<?xml version="1.0" encoding="UTF-8"?> <!-- Generator: Adobe Illustrator 23.0.3, SVG Export Plug-In . SVG Version: 6.00 Build 0) --> <svg xmlns="http://www.w3.org/2000/svg" xmlns:xlink="http://www.w3.org/1999/xlink" id="Layer_1" x="0px" y="0px" viewBox="0 0 141.7 141.7" style="enable-background:new 0 0 141.7 141.7;" xml:space="preserve"> <title>Untitled-1</title> <g> <g> <g> <g> <path d="M28.2,96.7c13.9-0.1,26.6-3.2,39.8,3.6V94c0-16.3,0-31.6,0.1-47.9c0-4.9,0.6-4.7-3.8-6.1c-4.1-1.6-8.4-2.6-12.8-3 c-7.9-0.5-15.1-0.1-23.2-0.1L28.2,96.7z M113.4,36.7c-7.8,0-14.5-0.2-22.1,0.1c-5.7,0.2-11.3,1.6-16.4,4.2 c-1.3,0.7-1.4,1.5-1.4,3.2c0,18.8,0,36.4,0,55.1c0,0.7,0.1,0.5,0.1,1.5c8.8-4.4,17.6-4.9,26.9-4.6c4.5,0.1,8.2,0,12.9,0 L113.4,36.7z M77.3,105.5h42.5V41.2h4.9v69.3H17V41.2h4.8v2.7c0,16.2,0,32.4,0,48.6c0,3.4,0.1,6.8-0.1,10.2 c-0.1,2.3,0.8,3,2.8,3c4.9-0.1,9.9,0,14.8,0c8.4,0,16.8,0,25.4-0.4c-0.7-0.3-1.4-0.7-2.1-0.9c-7.3-2.6-14.9-2.6-22.5-2.3 c-5.1,0.2-10.1,0.3-15.2,0.6c-1.3,0.1-2.1-0.3-2.1-1.9C23,77.8,23,55,23,32.2c0-0.1,0.1-0.1,0.4-0.6h4.9 c8.1-0.1,16.2-0.3,24.3-0.2c5.9,0.3,11.7,1.9,16.9,4.8c0.7,0.4,1.4,0.4,2.1,0.2c9.7-5.4,20.2-5.9,30.8-5.4 c5.3,0.2,10.6,0.5,16.1,0.7v70.1c-7.1,0-14.2,0-21.2,0c-6.1-0.1-12.1,0.2-17.9,2.3l-2.3,0.9C77.2,105.2,77.2,105.4,77.3,105.5"></path> </g> </g> <polygon points="95.1,53 95,53.7 94.6,54.2 94,54.5 93.4,54.7 92.8,54.5 92.2,54.2 91.9,53.7 91.8,53 91.9,52.4 92.3,51.9 92.8,51.4 93.4,51.4 94.1,51.5 94.6,51.9 94.9,52.4 "></polygon> <polygon points="94.6,59.6 94.6,60.3 94.2,60.8 93.6,61.1 93,61.4 92.4,61.2 91.9,60.8 91.5,60.3 91.4,59.6 91.6,59 91.9,58.4 92.4,58 93,57.8 93.7,58 94.2,58.4 94.6,58.9 "></polygon> <polygon points="93.7,57.1 93.7,57.8 93.3,58.3 92.8,58.6 92.2,58.7 91.6,58.6 91.1,58.3 90.7,57.8 90.6,57.1 90.8,56.5 91.1,56 91.6,55.7 92.2,55.6 92.8,55.7 93.3,56 93.5,56.5 "></polygon> <polygon points="98.3,58.7 98.2,59.5 97.7,60.1 96.9,60.3 96.2,60 95.7,59.5 95.5,58.7 95.7,58 96.2,57.5 96.9,57.2 97.6,57.5 98.2,58 "></polygon> <polygon points="98,49.9 97.9,50.5 97.5,51.1 97,51.5 96.3,51.6 95.6,51.5 95.1,51.1 94.8,50.5 94.5,49.9 94.8,49.2 95.1,48.7 95.7,48.3 96.3,48.2 96.9,48.4 97.5,48.7 97.8,49.3 "></polygon> <polygon points="102.3,48.4 102.2,49.1 101.9,49.7 101.3,50.1 100.6,50.2 100,50.1 99.4,49.7 99.1,49.1 99,48.4 99.1,47.8 99.4,47.2 100,46.8 100.6,46.7 101.3,46.9 101.8,47.2 102.3,47.7 "></polygon> <polygon points="104.2,50.8 104.1,51.5 103.8,52.1 103.2,52.6 102.5,52.7 101.8,52.6 101.3,52.1 100.9,51.5 100.9,50.8 101,50.2 101.3,49.5 101.8,49.1 102.5,49 103.2,49.1 103.7,49.5 104.1,50.1 "></polygon> <polygon points="101.2,55.7 101.1,56.3 100.7,56.9 100.2,57.2 99.5,57.3 98.8,57.3 98.3,56.9 97.9,56.4 97.8,55.7 97.9,55 98.2,54.5 98.9,54.2 99.5,54.1 100.2,54.2 100.8,54.5 101.1,55.1 "></polygon> <g> <g> <path d="M79.7,72c-0.1,0-0.2,0-0.2-0.1c-0.1-0.1-0.1-0.3,0-0.4c0,0,0,0,0,0c0.2-0.1,14.8-14.6,16.4-16.1s3.2-5.1,3.6-5.9 c0.1-0.2,0.2-0.2,0.4-0.2c0.2,0.1,0.2,0.2,0.2,0.4c0,0,0,0,0,0c-0.4,0.9-2.1,4.5-3.7,6.1S80,71.7,79.9,71.9 C79.8,71.9,79.7,71.9,79.7,72"></path> <path d="M98.7,52.4c-0.2,0-0.3-0.2-0.3-0.3c0-0.1,0.1-0.2,0.2-0.3c1-0.4,2-0.7,3-1c0.2,0,0.3,0.1,0.3,0.3c0,0,0,0,0,0 c0,0.2-0.1,0.3-0.3,0.3c-1,0.2-1.9,0.6-2.8,0.9L98.7,52.4"></path> <path d="M95,56.8c-0.1,0-0.2,0-0.2-0.1c-0.1-0.1-0.1-0.3-0.1-0.4c0.1-0.3,0.8-3.1,1.3-4.8c0-0.2,0.2-0.3,0.4-0.2c0,0,0,0,0,0 c0.2,0,0.3,0.2,0.2,0.4c-0.1,0.4-0.8,3.2-1.2,4.4l0,0c0.7-0.4,1.5-0.6,2.3-0.6c0.2,0,0.3,0.1,0.3,0.3c0,0.2-0.1,0.3-0.3,0.3l0,0 c-0.7,0.1-1.4,0.3-2.1,0.6C95.4,56.7,95.2,56.8,95,56.8"></path> <path d="M93.6,59.4c-0.4,0.1-0.9-0.1-1.2-0.3c-0.1-0.1-0.2-0.3-0.1-0.5c0.2-0.8,0.8-4.3,0.8-4.4c0-0.2,0.2-0.3,0.3-0.3 c0,0,0,0,0,0c0.2,0,0.3,0.2,0.2,0.3c0,0.2-0.6,3.6-0.8,4.4c0.3,0.1,0.6,0.1,0.8,0.1c0.5,0,1-0.1,1.5-0.1l0.6-0.1 c0.2,0,0.3,0.1,0.3,0.3c0,0.2-0.1,0.3-0.3,0.3c0,0,0,0,0,0l-0.5,0.1C94.7,59.4,94.1,59.4,93.6,59.4"></path> <path d="M85.9,65.5c0,0,1.3-3.9,1.6-4.9s1.2-5.8,2.8-8s4.3-7.4,5.6-8.2c0,0-3.3,10.7-4.8,12.3s-2.8,3.2-2.9,4s-1,3-1,3.4 S85.9,65.5,85.9,65.5"></path> <path d="M88.5,62.7c1.7,0,3.3-0.3,4.8-0.9c2.8-1,10.2-0.3,11.6,0.2s1.7,0.3,2.4,1.4c0,0-2.3,0-4.4,0.2s-6.4,0.9-9,0.1 c-0.6-0.2-4.6-0.7-5.6-0.1S88.5,62.7,88.5,62.7"></path> <path d="M84.2,67c0.2-1.4,0.5-2.7,0.8-4.1c0.3-0.8,2.3-6.1,1.9-8.3s-0.7-6.5-1.1-7.3c-0.5-0.9-0.9-1.9-1.2-2.9 c-0.6,2-0.6,4.2,0,6.3c1,3.6,0.6,4.3-0.1,6.6s-0.8,4.6-0.4,5.6s-0.7,4.7-0.7,4.7L84.2,67z"></path> <path d="M86.9,66.7c-0.7,0.1-1.4,0-2.2-0.1l0.8-0.6c0.7,0.1,1.4,0.1,2.1,0.1c1.8,0.1,3.6,0.5,5.3,1.1c1,0.4,5.4,3.2,6,5 s0.1,2.3,0.1,2.3c-1.1-1.9-2.7-3.4-4.7-4.3"></path> </g> </g> <rect x="77.4" y="78.7" width="31.9" height="1.4"></rect> <rect x="77.4" y="83.6" width="31.9" height="1.4"></rect> <rect x="77.4" y="88.6" width="31.9" height="1.4"></rect> </g> </g> </svg> 