<?xml version="1.0" encoding="UTF-8" standalone="no"?>
<!DOCTYPE svg PUBLIC "-//W3C//DTD SVG 1.1//EN" "http://www.w3.org/Graphics/SVG/1.1/DTD/svg11.dtd">
<svg width="100%" height="100%" viewBox="0 0 184 152" version="1.1" xmlns="http://www.w3.org/2000/svg" xmlns:xlink="http://www.w3.org/1999/xlink" xml:space="preserve" xmlns:serif="http://www.serif.com/" style="fill-rule:evenodd;clip-rule:evenodd;stroke-linejoin:round;stroke-miterlimit:2;">
    <g transform="matrix(1,0,0,1,-511.818,-721.082)">
        <g>
            <g>
                <path d="M525.377,727.059C532.929,722.179 539.916,717.087 557.127,725.841C565.807,730.255 578.224,731.657 586.991,728.231C598.732,723.642 618.013,723.094 628.081,728.842C638.083,734.552 648.515,726.034 659.584,722.927C666.852,720.886 674.141,721.452 679.719,725.265C686.68,730.023 695.72,740.814 695.72,755.124C695.72,764.665 689.62,775.966 688.338,784.439C686.997,793.297 689.654,802.044 687.678,808.277C684.967,816.83 674.858,821.631 672.163,826.767C663.103,844.035 644.947,872.201 601.335,872.364C563.739,872.505 538.43,843.687 531.515,827.648C529.202,822.284 513.626,815.671 514.014,805.344C514.606,789.568 519.582,789.255 519.217,780.885C518.867,772.882 511.818,764.186 511.818,755.124C511.818,742.808 517.825,731.94 525.377,727.059ZM664.433,814.375C662.094,814.012 627.477,801.895 604.497,801.561C574.967,801.132 548.046,813.564 544.152,814.02C546.339,814.315 573.322,818.245 601.482,818.755C632.696,819.319 662.092,814.719 664.433,814.375ZM663.845,732.292C675.759,732.292 685.432,743.497 685.432,757.3C685.432,771.102 675.759,782.307 663.845,782.307C651.93,782.307 642.257,771.102 642.257,757.3C642.257,743.497 651.93,732.292 663.845,732.292ZM546.188,731.055C558.103,731.055 567.776,742.26 567.776,756.063C567.776,769.865 558.103,781.07 546.188,781.07C534.274,781.07 524.601,769.865 524.601,756.063C524.601,742.26 534.274,731.055 546.188,731.055Z"/>
            </g>
            <g transform="matrix(0.600159,0,0,0.382469,243.721,399.913)">
                <ellipse cx="701.776" cy="935.581" rx="29.445" ry="20.65"/>
            </g>
            <g transform="matrix(0.600159,0,0,0.382469,125.174,399.913)">
                <ellipse cx="701.776" cy="935.581" rx="29.445" ry="20.65"/>
            </g>
        </g>
    </g>
</svg>
