<?xml version="1.0" encoding="UTF-8" standalone="no"?>
<!DOCTYPE svg PUBLIC "-//W3C//DTD SVG 1.1//EN" "http://www.w3.org/Graphics/SVG/1.1/DTD/svg11.dtd">
<svg width="100%" height="100%" viewBox="0 0 184 184" version="1.1" xmlns="http://www.w3.org/2000/svg" xmlns:xlink="http://www.w3.org/1999/xlink" xml:space="preserve" xmlns:serif="http://www.serif.com/" style="fill-rule:evenodd;clip-rule:evenodd;stroke-linejoin:round;stroke-miterlimit:2;">
    <g transform="matrix(1,0,0,1,-270.052,-708.34)">
        <g transform="matrix(0.30441,0.325928,-0.325928,0.30441,534.928,385.885)">
            <g transform="matrix(1.53051,-1.6387,1.6387,1.53051,-2005.94,897.62)">
                <path d="M656.603,783.553C629.289,744.646 640.656,705.918 640.656,705.918C640.656,705.918 694.83,690.767 727.557,729.527C760.284,768.287 768.991,815.407 770.212,817.464C771.433,819.521 774.216,823.195 777.252,824.578C788.433,829.67 795.532,823.659 806.641,824.927C814.633,825.839 821.064,827.329 821.096,829.355C818.719,829.851 801.872,837.077 782.642,852.36C769.941,862.455 762.761,886.856 762.761,886.856C762.761,886.856 758.098,881.726 756.442,878.486C749.857,865.603 762.958,852.562 758.993,838.618C758.425,836.62 756.589,835.008 754.739,834.063C750.429,831.861 743.75,832.005 736.908,831.075C735.693,836.278 734.509,840.098 728.26,840.632C724.336,840.967 712.103,843.204 712.103,843.204C712.103,843.204 712.369,833.824 712.199,829.777C702.568,828.586 692.506,822.258 680.235,813.065C677.608,811.097 677.584,836.274 678.54,839.276C678.54,839.276 672.09,837.335 667.938,831.763C663.412,825.691 658.353,816.359 658.241,815.812C656.282,806.21 654.207,790.588 656.603,783.553ZM821.096,829.355C821.097,829.402 821.094,829.449 821.088,829.496C821.082,829.543 821.073,829.591 821.059,829.639C821.486,829.371 821.481,829.275 821.096,829.355ZM684.702,717.309C687.337,720.13 687.309,724.446 684.639,726.94C681.969,729.433 677.662,729.167 675.027,726.346C672.391,723.524 672.42,719.209 675.09,716.715C677.76,714.221 682.067,714.487 684.702,717.309Z"/>
            </g>
        </g>
        <g transform="matrix(0.30441,0.325928,-0.325928,0.30441,534.928,385.885)">
            <g transform="matrix(1.16912,0.0699278,-0.102596,1.71531,-333.835,318.211)">
                <path d="M558.489,271.755C582.509,244.916 610.48,237.013 645.321,236.445C655.369,236.282 665.423,236.367 675.473,236.371C678.808,236.372 682.143,236.373 685.479,236.375C687.022,236.375 691.01,235.323 690.104,236.572C687.24,240.518 682.305,242.775 678.747,246.07C669.17,254.937 654.189,267.255 655.206,280.638"/>
            </g>
        </g>
    </g>
</svg>
