<?xml version="1.0" encoding="UTF-8" standalone="no"?>
<!DOCTYPE svg PUBLIC "-//W3C//DTD SVG 1.1//EN" "http://www.w3.org/Graphics/SVG/1.1/DTD/svg11.dtd">
<svg width="100%" height="100%" viewBox="0 0 186 177" version="1.1" xmlns="http://www.w3.org/2000/svg" xmlns:xlink="http://www.w3.org/1999/xlink" xml:space="preserve" xmlns:serif="http://www.serif.com/" style="fill-rule:evenodd;clip-rule:evenodd;stroke-linejoin:round;stroke-miterlimit:2;">
    <g transform="matrix(1,0,0,1,-41.5347,-269.557)">
        <g transform="matrix(0.868057,0,0,0.868057,-240.824,-111.671)">
            <path d="M455.603,537.075C455.513,537.088 455.429,537.101 455.345,537.113C457.421,554.064 462.098,567.881 466.987,586.467C469.007,594.147 479.247,630.846 475.629,636.406C472.946,640.528 460.645,640.705 453.056,641.32C439.107,642.451 410.503,644.401 408.052,637.325C404.368,626.687 408.354,608.544 411.367,589.866C413.974,573.703 415.389,557.044 416.104,545.646C416.266,543.061 416.579,540.588 416.93,538.183C363.195,536.099 322.975,526.077 325.38,510.486C326.128,505.631 326.631,500.193 332.631,492.4C339.885,482.975 354.325,472.329 358.323,469.301C375.723,456.126 400.128,442.753 423.228,439.774C459.086,435.149 505.527,458.094 530.013,480C535.963,485.323 537.395,492.248 538.457,495.03C545.511,513.507 495.9,530.212 460.938,536.224C460.907,535.969 460.874,535.715 460.838,535.461C460.606,533.827 460.289,532.204 459.879,530.615C459.46,528.995 458.938,527.43 458.36,525.883C457.651,523.981 456.879,522.168 455.981,520.399C454.589,517.656 453.029,515.193 451.258,512.844L450.99,512.987C452.036,515.974 452.696,519.048 453.291,522.318C453.616,524.101 453.879,525.878 454.143,527.71C454.315,528.904 454.469,530.094 454.643,531.299C454.786,532.292 454.927,533.286 455.093,534.281C455.249,535.214 455.425,536.144 455.603,537.075ZM535.962,496.84C530.069,493.117 522.727,490.176 514.595,487.857C503.97,484.827 492.036,482.878 480.327,481.496C473.827,480.769 467.694,479.544 461.328,478.661C458.594,478.281 455.82,477.973 452.961,477.775C445.429,477.309 438.01,477.216 430.639,477.469C426.184,477.621 421.747,477.894 417.317,478.249C410.711,478.778 404.123,479.511 397.484,480.182C380.415,482.126 367.06,485.651 357.104,489.741C344.194,495.044 337.019,501.177 334.751,505.503L335.014,505.653C337.534,501.605 344.999,496.257 357.917,491.924C367.896,488.577 381.109,485.825 397.883,484.903C404.516,484.455 411.105,484.035 417.696,483.636C422.075,483.37 426.453,483.125 430.849,482.938C438.065,482.631 445.325,482.46 452.708,482.753C455.463,482.841 458.139,483.048 460.781,483.305C467.211,483.928 473.428,484.854 479.99,485.29C491.616,485.991 503.488,487.283 514.149,489.626C522.313,491.419 529.754,493.812 535.809,497.101L535.962,496.84Z"/>
        </g>
    </g>
</svg>
