<?xml version="1.0" encoding="UTF-8" standalone="no"?>
<!DOCTYPE svg PUBLIC "-//W3C//DTD SVG 1.1//EN" "http://www.w3.org/Graphics/SVG/1.1/DTD/svg11.dtd">
<svg width="100%" height="100%" viewBox="0 0 189 176" version="1.1" xmlns="http://www.w3.org/2000/svg" xmlns:xlink="http://www.w3.org/1999/xlink" xml:space="preserve" xmlns:serif="http://www.serif.com/" style="fill-rule:evenodd;clip-rule:evenodd;stroke-linejoin:round;stroke-miterlimit:2;">
    <g transform="matrix(1,0,0,1,-508.205,-488.426)">
        <g transform="matrix(0.896097,0,0,0.896097,-332.263,29.3257)">
            <path d="M976.718,707.489L976.733,707.496C981.679,713.056 1000.14,696.52 1009.38,689.185C1019.13,681.441 1025.77,674.904 1037.99,672.066C1055.9,667.906 1068.35,678.075 1076.95,687.469C1085.56,696.864 1103.91,712.091 1111.77,707.496C1119.63,702.901 1101.41,672.554 1100.06,666.218C1098.71,659.881 1090.39,649.917 1093.19,634.046C1095.99,618.175 1111.85,609.929 1119.48,606.576C1127.1,603.223 1150.05,588.724 1148.15,581.429C1146.25,574.134 1110.89,580.016 1104.04,581.429C1096.18,583.049 1084.93,581.641 1075.51,577.168C1066.1,572.695 1062.04,562.905 1061.43,550.906C1060.82,538.954 1055.86,512.847 1048.86,512.409L1048.78,512.405C1048.78,512.405 1042.41,510.482 1036.44,526.538C1032.16,538.062 1029.4,559.38 1013.46,577.168C1006.98,584.392 984.337,581.217 972.505,577.168C961.195,573.298 942.766,571.118 938.426,577.168C934.087,583.217 959.041,599.884 961.801,603.444C964.561,607.004 989.249,621.744 990.571,630.914C991.949,640.473 991.375,654.691 982.79,676.649C971.876,704.567 976.424,707.343 976.718,707.489ZM1039.06,610.267C1033.67,608.303 1028.33,606.178 1022.84,604.492C1019.76,603.549 1016.68,602.726 1013.51,602.156C1006.43,600.882 998.729,600.837 991.48,599.358C986.692,598.381 982.154,596.785 978.159,593.751C981.812,597.38 986.223,599.602 990.963,601.246C997.919,603.658 1005.51,604.717 1012.32,606.904C1016.14,608.131 1019.78,609.751 1023.38,611.517C1027.84,613.702 1032.17,616.115 1036.56,618.395C1033.91,624.255 1031.46,630.23 1028.62,636.028C1026.34,640.68 1023.87,645.179 1020.8,649.37C1017.11,654.406 1011.81,658.143 1007.45,662.612C1005.51,664.601 1003.77,666.707 1002.44,669.134C1004.06,666.943 1006.03,665.116 1008.19,663.431C1013.24,659.472 1019.14,656.358 1023.6,651.729C1027.39,647.791 1030.62,643.452 1033.65,638.921C1036.97,633.952 1039.99,628.789 1043.12,623.722C1056.7,640.46 1065.16,647.278 1075.64,659.91C1079.8,664.913 1084.24,670.794 1089.45,678.607C1085.15,670.189 1081.39,663.794 1077.82,658.309C1068.95,644.689 1061.4,637.015 1049.98,619.039C1057.67,617.681 1062.38,616.691 1066.7,615.336C1071.2,613.926 1075.26,612.175 1081.77,609.213C1088.29,606.25 1092.18,604.912 1098.65,601.973C1102.72,600.121 1107.77,597.657 1115.14,593.751C1107.4,596.754 1102.12,598.601 1097.87,599.957C1091.09,602.123 1087.05,602.997 1080.21,605.181C1073.69,607.267 1069.64,608.492 1065.2,609.328C1060.68,610.179 1055.8,610.576 1047.52,611.025C1045.8,599.211 1045.25,592.132 1045.25,586.548C1045.23,574.692 1047.46,569.754 1045.52,542.359C1044.11,569.812 1041.28,574.445 1039.86,586.226C1039.19,591.745 1038.84,598.747 1039.06,610.267Z"/>
        </g>
    </g>
</svg>
