<?xml version="1.0" encoding="UTF-8" standalone="no"?>
<!DOCTYPE svg PUBLIC "-//W3C//DTD SVG 1.1//EN" "http://www.w3.org/Graphics/SVG/1.1/DTD/svg11.dtd">
<svg width="100%" height="100%" viewBox="0 0 141 187" version="1.1" xmlns="http://www.w3.org/2000/svg" xmlns:xlink="http://www.w3.org/1999/xlink" xml:space="preserve" xmlns:serif="http://www.serif.com/" style="fill-rule:evenodd;clip-rule:evenodd;stroke-linejoin:round;stroke-miterlimit:2;">
    <g transform="matrix(1,0,0,1,-537.464,-262.876)">
        <g transform="matrix(0.775588,0,0,0.740883,-80.187,-44.2839)">
            <path d="M850.113,627.726C847.065,624.444 844.223,620.96 841.749,617.192C837.548,610.791 834.844,603.638 833.568,595.889C832.817,591.327 832.636,586.524 833.392,581.439C834.265,574.854 837.82,569.279 841.032,563.526C844.191,557.867 847.308,552.175 849.626,546.224C852.669,538.41 854.684,530.271 853.993,521.285C852.98,511 850.755,501.847 845.921,494.184C843.81,490.838 841.544,487.802 838.756,485.014C833.617,479.876 828.302,475.557 822.059,471.495C813.445,465.889 804.977,461.461 796.365,455.841C804.42,470.244 813.323,483.009 819.307,497.945C820.318,500.468 820.849,503.01 821.702,505.6C823.376,510.683 824.325,516.035 824.072,522.133C823.923,529.716 819.501,535.46 815.724,541.533C811.87,547.731 807.975,553.971 805.039,560.553C802.736,565.717 801.081,571.124 800.277,576.848C798.893,588.218 799.687,598.855 802.891,608.504C807.727,623.072 816.855,635.667 828.464,645.49C835.708,651.62 843.368,657.39 851.857,660.877C855.912,662.543 859.732,663.668 863.844,664.427C875.077,666.5 892.233,665.352 892.233,665.352C892.687,659.508 894.553,654.593 896.719,646.855C897.404,644.41 898.399,642.437 898.914,639.816C900.243,633.049 901.65,626.065 904.653,619.508C906.582,615.294 909.578,611.769 913.057,608.459C915.038,606.575 917.297,604.862 919.981,603.467C923.477,601.549 927.408,601.377 931.268,600.828C935.891,600.17 940.5,599.456 944.934,598.139C951.043,596.324 956.967,593.905 962.168,589.316C967.807,584.023 972.594,578.824 974.931,572.472C975.964,569.664 976.824,567.061 977.129,564.108C977.693,558.668 977.873,553.942 977.216,548.412C976.318,540.861 974.887,534.663 973.956,527.107C968.445,535.709 964.319,543.263 958.554,551.528C956.691,554.201 954.326,555.895 952.244,558.399C950.003,561.093 947.374,563.408 943.952,565.512C940.233,567.969 935.956,567.285 931.835,567.58C926.625,567.953 921.391,568.423 916.329,569.542C912.124,570.471 908.054,571.934 904.136,574.031C898.648,577.082 893.786,580.547 889.976,584.786C880.882,594.903 875.816,607.47 874.766,620.466L874.719,621.054C874.461,619.757 874.235,618.453 874.055,617.135C872.132,603.063 875.483,588.584 885.179,577.593C890.16,571.358 896.391,566.394 902.506,561.352C910.246,554.969 918.048,548.687 924.439,541.254C930.816,533.837 935.984,525.461 939.018,515.372C943.872,498.058 944.022,481.974 938.354,467.245C935.915,460.908 932.625,455.238 928.729,449.495C920.385,437.198 910.768,426.695 901.972,414.587C905.046,431.329 909.391,446.97 911.75,463.548C912.214,466.811 912.296,469.928 912.67,473.162C913.014,476.139 913.287,479.073 913.445,482.061C913.844,489.597 912.742,497.213 909.517,505.198C907.334,510.792 903.691,515.055 899.864,519.108C894.223,525.082 887.625,530.218 881.163,535.6C873.245,542.195 865.593,549.158 859.307,557.413C845.947,576.858 841.996,600.737 848.521,622.647C849.026,624.343 849.546,626.043 850.113,627.726Z"/>
        </g>
    </g>
</svg>
