<?xml version="1.0" encoding="UTF-8" standalone="no"?>
<!DOCTYPE svg PUBLIC "-//W3C//DTD SVG 1.1//EN" "http://www.w3.org/Graphics/SVG/1.1/DTD/svg11.dtd">
<svg width="100%" height="100%" viewBox="0 0 186 181" version="1.1" xmlns="http://www.w3.org/2000/svg" xmlns:xlink="http://www.w3.org/1999/xlink" xml:space="preserve" xmlns:serif="http://www.serif.com/" style="fill-rule:evenodd;clip-rule:evenodd;stroke-linejoin:round;stroke-miterlimit:2;">
    <g transform="matrix(1,0,0,1,-41.5347,-706.934)">
        <g transform="matrix(0.503743,0,0,0.503743,-358.409,580.235)">
            <path d="M1001.72,322.953C981.59,291.225 998.88,268.351 959.637,252.522C953.381,249.998 931.643,252.228 923.457,259.175C886.029,290.937 920.903,319.922 898.482,337.354C870.2,359.343 824.53,337.469 806.469,379.943C794.866,407.227 843.509,421.792 837.528,448.602C834.235,463.364 816.693,477.737 810.728,491.618C801.919,512.115 786.715,527.376 797.895,551.013C809.646,575.854 848.433,579.225 871.298,570.686C880.211,567.358 912.172,538.416 942.914,541.665C988.142,546.445 984.582,592.707 1039.42,608.596C1055.19,613.165 1090.75,605.689 1095.11,592.572C1097.86,584.284 1099.43,569.933 1094.81,561.832C1086.89,547.946 1073.6,521.36 1086.6,504.512C1104.3,481.597 1161.53,473.91 1162.45,438.9C1163.35,404.894 1114.97,432.422 1101.74,409.197C1089.67,387.994 1127.68,346.92 1099.94,331.227C1084.88,322.71 1069.37,332.065 1053.73,333.429C1037.13,334.876 1009.94,335.905 1001.72,322.953ZM960.616,453.255C950.237,439.198 944.773,425.59 952.137,409.036C964.722,380.743 1007.69,382.546 1020.56,397.9C1026.62,405.124 1030.9,413.612 1034.01,422.591C1036.02,428.398 1037.84,434.263 1037.9,440.795C1038.11,462.555 1015.81,480.156 992.637,476.545C979.037,474.426 968.244,463.587 960.616,453.255Z"/>
        </g>
    </g>
</svg>
