<?xml version="1.0" encoding="UTF-8" standalone="no"?>
<!DOCTYPE svg PUBLIC "-//W3C//DTD SVG 1.1//EN" "http://www.w3.org/Graphics/SVG/1.1/DTD/svg11.dtd">
<svg width="100%" height="100%" viewBox="0 0 185 171" version="1.1" xmlns="http://www.w3.org/2000/svg" xmlns:xlink="http://www.w3.org/1999/xlink" xml:space="preserve" xmlns:serif="http://www.serif.com/" style="fill-rule:evenodd;clip-rule:evenodd;stroke-linejoin:round;stroke-miterlimit:2;">
    <g transform="matrix(1,0,0,1,-510.839,-39.4484)">
        <g transform="matrix(1.82527,0,0,1.82527,-1060.44,-277.524)">
            <path d="M942.97,240.507C942.595,239.154 939.096,236.19 937.54,236.162C934.828,236.114 932.25,237.232 929.977,240.135C926.307,244.82 922.763,256.567 918.52,261.443C915.81,264.557 912.764,266.376 909.79,266.919C906.399,267.539 902.139,267.415 898.473,265.711C894.912,264.055 891.726,261.08 890.189,255.79C889.098,252.034 889.537,246.192 892.117,239.72C894.257,234.351 897.798,228.374 902.445,222.985C906.948,217.763 911.634,214.416 915.678,210.55C917.062,209.226 918.355,207.828 919.464,206.155C922.1,202.169 923.88,198.668 923.43,195.755C923.297,194.895 922.597,194.37 921.637,193.929C920.471,193.393 919.031,193.048 917.324,192.827C913.481,192.325 909.937,192.428 907.495,194.461C905.372,196.229 904.443,199.3 904.33,203.709C904.004,212.613 901.033,223.346 895.918,230.693C890.814,238.026 883.807,242.251 875.688,240.96C865.804,239.34 861.058,232.611 860.852,223.161C860.764,219.126 861.447,214.515 863.087,209.892C866.315,200.788 869.943,194.066 876.456,188.344C878.843,186.282 882.516,183.212 882.059,180.947C881.598,178.663 878.61,177.332 877.421,177.583C871.521,178.832 871.576,182.031 866.872,183.841C864.635,184.702 866.006,184.268 862.486,184.083C865.668,182.736 864.222,183.647 866.176,182.439C870.675,179.659 872.559,175.795 875.882,173.989C878.182,172.739 885.791,175.078 886.627,180.028C887.235,183.625 883.365,187.654 879.564,193.481C875.684,199.43 874.227,205.46 872.498,213.531C871.819,216.7 872.281,220.281 872.508,222.952C872.736,225.64 874.696,227.357 877.536,227.682C879.13,227.87 880.444,227.099 881.627,226.072C883.319,224.602 884.642,222.463 885.775,220.089C888.199,215.011 889.428,208.738 889.437,203.422C889.567,193.418 893.004,186.923 897.797,182.884C903.177,178.349 910.774,176.745 919.283,177.862C928.419,179.07 933.711,183.004 936.364,187.762C939.995,194.273 938.921,203.988 931.966,214.445C930.22,217.078 928.222,219.309 926.044,221.391C922.321,224.951 917.951,227.973 913.804,232.781C910.95,236.091 908.635,239.688 907.007,243.096C905.925,245.359 905.148,247.52 904.778,249.424C904.611,250.286 905.518,253.022 909.137,251.853C911.033,251.24 914.35,247.645 915.846,244.935C918.207,240.657 918.981,238.264 921.217,235.408C926.735,228.362 930.19,227.034 936.757,226.56C944.791,225.98 948.269,231.904 951.883,237.18L951.887,237.186C952.126,237.309 952.364,237.456 952.601,237.627C955.301,239.582 959.322,239.8 960.384,243.468C962.232,249.85 962.612,256.03 958.044,258.623C953.476,261.216 948.493,258.07 943.831,252.865C941.626,250.403 943.313,241.739 942.97,240.507Z"/>
        </g>
    </g>
</svg>
