<?xml version="1.0" encoding="UTF-8" standalone="no"?>
<!DOCTYPE svg PUBLIC "-//W3C//DTD SVG 1.1//EN" "http://www.w3.org/Graphics/SVG/1.1/DTD/svg11.dtd">
<svg width="100%" height="100%" viewBox="0 0 187 175" version="1.1" xmlns="http://www.w3.org/2000/svg" xmlns:xlink="http://www.w3.org/1999/xlink" xml:space="preserve" xmlns:serif="http://www.serif.com/" style="fill-rule:evenodd;clip-rule:evenodd;stroke-linejoin:round;stroke-miterlimit:2;">
    <g transform="matrix(1,0,0,1,-510.219,-271.086)">
        <g transform="matrix(0.964329,0,0,0.964329,-8.19561,-402.065)">
            <path d="M582.099,717.975C593.198,722.15 600.454,727.109 609.205,730.592C615.593,733.135 622.658,735.018 631.913,735.595C645.598,736.48 661.366,730.08 675.457,729.974C679.461,729.943 683.281,730.624 686.619,733.04C692.374,737.494 697.603,744.354 700.582,751.693C702.862,757.311 703.302,763.345 700.223,768.292C697.718,772.382 693.427,775.186 689.05,777.63C684.286,780.289 678.986,781.994 674.061,782.525C659.191,784.216 648.201,778.043 638.038,771.803C627.329,765.228 617.315,758.272 606.662,754.373C597.732,751.104 588.371,749.836 578.104,751.462C556.563,754.894 543.208,772.041 538.99,793.847C536.126,808.655 537.727,825.509 543.18,839.382C547.893,851.374 555.509,861.131 564.86,866.86C576.35,873.465 589.135,877.979 602.177,879.119C615.662,880.298 629.308,878.471 641.771,872.529C656.263,865.899 670.313,853.479 686.037,848.653C693.29,846.427 700.838,847.037 708.634,851.202C716.511,854.845 725.864,851.407 729.507,843.529C733.15,835.652 729.712,826.299 721.834,822.656C709.74,817.906 698.586,817.181 687.828,819.501C680.858,821.003 674.169,823.702 667.444,826.772C654.819,832.535 642.214,840.045 629.93,844.714C622.292,847.59 614.162,847.69 606.265,846.404C598.101,845.075 590.252,841.692 583.274,837.066C580.539,835.359 578.649,832.342 577.043,829.007C574.009,822.707 572.5,814.995 572.631,807.527C572.735,801.657 573.717,795.889 576.261,791.313C577.903,788.358 580.212,785.888 583.767,785.264C592.203,783.75 599.206,787.412 606.434,791.464C617.07,797.426 627.82,804.746 640.189,809.308C651.396,813.442 663.75,815.669 678.121,813.519C686.975,812.152 696.578,808.899 704.796,803.44C713.287,797.799 720.529,790.334 724.694,781.515C729.614,770.911 729.802,759.329 725.576,748.231C720.561,735.06 710.273,722.51 699.093,715.376C691.807,710.357 683.722,708.581 675.124,708.786C661.521,709.11 646.383,715.57 633.16,714.836C626.507,714.451 621.419,713.145 616.819,711.338C607.941,707.85 600.559,702.883 589.301,698.704C583.983,696.717 578.052,699.421 576.064,704.739C574.077,710.057 576.781,715.988 582.099,717.975Z"/>
        </g>
    </g>
</svg>
