<?xml version="1.0" encoding="UTF-8"?> <!-- Generator: Adobe Illustrator 23.0.3, SVG Export Plug-In . SVG Version: 6.00 Build 0) --> <svg xmlns="http://www.w3.org/2000/svg" xmlns:xlink="http://www.w3.org/1999/xlink" id="Layer_1" x="0px" y="0px" viewBox="0 0 141.7 141.7" style="enable-background:new 0 0 141.7 141.7;" xml:space="preserve"> <title>Untitled-1</title> <g> <g> <g> <g> <path d="M39.1,87.1c0-1.5,1.2-2.7,2.7-2.7c0,0,0,0,0.1,0h39.9c1.5-0.1,2.8,1.1,2.9,2.6s-1.1,2.8-2.6,2.9c-0.1,0-0.2,0-0.3,0 H41.8C40.4,89.8,39.1,88.7,39.1,87.1C39.1,87.1,39.1,87.1,39.1,87.1 M41.8,67.2h39.9c1.5,0,2.7,1.2,2.7,2.7 c0,1.5-1.2,2.7-2.7,2.7H41.8c-1.5,0-2.7-1.2-2.7-2.7c0,0,0,0,0,0c-0.1-1.5,1.1-2.7,2.5-2.7C41.7,67.3,41.8,67.3,41.8,67.2 M41.8,50h39.9c1.5,0,2.7,1.2,2.7,2.7c0,1.5-1.2,2.7-2.7,2.7H41.8c-1.5,0-2.7-1.2-2.7-2.7C39.1,51.2,40.3,50,41.8,50 M41.8,32.8 h39.9c1.5-0.1,2.8,1.1,2.9,2.6c0.1,1.5-1.1,2.8-2.6,2.9c-0.1,0-0.2,0-0.3,0H41.8c-1.5,0-2.7-1.2-2.7-2.6c0,0,0,0,0-0.1 c-0.1-1.5,1.1-2.7,2.5-2.7C41.7,32.8,41.8,32.8,41.8,32.8 M99.7,83.7V21.5c0-2.5-1.9-4.5-4.4-4.5c0,0-0.1,0-0.1,0H28.5 c-2.5,0-4.5,2-4.5,4.5V101c0,2.5,1.9,4.5,4.4,4.6c0,0,0.1,0,0.1,0h49.4L99.7,83.7z"></path> </g> </g> <rect x="83.3" y="95.3" transform="matrix(0.7071 -0.7071 0.7071 0.7071 -43.1062 99.3429)" width="30.1" height="12.8"></rect> <g> <g> <path d="M77.6,113.5c-0.3,0.3-0.5,0.6-0.6,0.9l-1.8,8.2c-0.2,1,0.4,2,1.4,2.3c0.3,0.1,0.6,0.1,0.9,0l8.2-1.8 c0.4-0.1,0.7-0.3,0.9-0.6l2.5-2.5l-9.1-9.1L77.6,113.5z"></path> <path d="M120.9,85.5l-6.4-6.4c-0.7-0.8-1.9-0.8-2.6-0.1c0,0-0.1,0.1-0.1,0.1l-4.2,4.3l9.1,9.1l4.2-4.2 C121.7,87.6,121.7,86.3,120.9,85.5C120.9,85.5,120.9,85.5,120.9,85.5"></path> </g> </g> </g> </g> </svg> 