<?xml version="1.0" encoding="UTF-8"?> <!-- Generator: Adobe Illustrator 23.0.3, SVG Export Plug-In . SVG Version: 6.00 Build 0) --> <svg xmlns="http://www.w3.org/2000/svg" xmlns:xlink="http://www.w3.org/1999/xlink" id="Layer_1" x="0px" y="0px" viewBox="0 0 141.7 141.7" style="enable-background:new 0 0 141.7 141.7;" xml:space="preserve"> <style type="text/css"> .st0{clip-path:url(#SVGID_2_);} </style> <title>Untitled-1</title> <g> <g> <g> <g> <path d="M97.4,60l-8.8-8.8l3-3l2.6-2.6c0.3-0.3,0.3-0.7,0.2-1c-0.2-0.5-0.6-0.8-1.1-0.9H81.6c-0.8,0-1.5,0.7-1.5,1.5v11.6 c0.1,0.5,0.4,0.9,0.9,1.1c0.4,0.2,0.9,0.1,1.2-0.3l2.7-2.7l1.2-1.2l8.8,8.8c0.5,1,1.6,1.4,2.7,1s1.4-1.6,1-2.7 C98.3,60.6,97.9,60.2,97.4,60"></path> <path d="M30.6,24.6c-1.3,0-2.3,1-2.3,2.3c0,0,0,0,0,0V78c0,1.3,1,2.3,2.3,2.3c0,0,0,0,0,0h81.1c1.3,0,2.3-1,2.3-2.3c0,0,0,0,0,0 V26.9c0-1.3-1-2.3-2.3-2.3c0,0,0,0,0,0H30.6z M111.7,85.4H30.6c-4.1,0-7.4-3.3-7.4-7.4V26.9c0-4.1,3.3-7.4,7.4-7.4h81.1 c4.1,0,7.4,3.3,7.4,7.4V78C119.1,82.1,115.8,85.4,111.7,85.4C111.7,85.4,111.7,85.4,111.7,85.4"></path> </g> </g> <g> <defs> <path id="SVGID_1_" d="M28.3,78V26.9c0-1.3,1-2.3,2.3-2.3c0,0,0,0,0,0h81.1c1.3,0,2.3,1,2.3,2.3c0,0,0,0,0,0V78 c0,1.3-1,2.3-2.3,2.3c0,0,0,0,0,0H30.6C29.3,80.3,28.3,79.3,28.3,78C28.3,78,28.3,78,28.3,78 M30.6,19.4c-4.1,0-7.4,3.3-7.4,7.4 V78c0,4.1,3.3,7.4,7.4,7.4h81.1c4.1,0,7.4-3.3,7.4-7.4c0,0,0,0,0,0V26.9c0-4.1-3.3-7.4-7.4-7.4H30.6z"></path> </defs> <clipPath id="SVGID_2_"> <use xlink:href="#SVGID_1_" style="overflow:visible;"></use> </clipPath> <g class="st0"> <rect x="46.2" y="69.2" width="49.6" height="34.1"></rect> </g> </g> <g> <g> <path d="M118.5,117.6H23.7c-0.9,0.1-1.8-0.6-1.8-1.6c-0.1-0.9,0.6-1.8,1.6-1.8c0.1,0,0.2,0,0.3,0h94.8c0.9-0.1,1.8,0.6,1.8,1.6 c0.1,0.9-0.6,1.8-1.6,1.8C118.7,117.6,118.6,117.6,118.5,117.6 M59.7,105.9c0.1-0.6,0.6-1,1.2-1L82,105c0.6,0,1.1,0.4,1.2,0.9 l1,3.6c0,0.6-0.4,1-0.9,1.1c0,0-0.1,0-0.1,0l-23.5-0.1c-0.4,0-0.8-0.3-0.8-0.7c0-0.1,0-0.2,0-0.2L59.7,105.9z M124.7,119.5v-2.6 h-0.1c0-0.1,0-0.2-0.1-0.3l-4.9-25.3c-0.5-1.3-1.8-2.2-3.2-2.3l-91.3,0.1c-1.4,0.1-2.7,1-3.1,2.3l-5,24.8 c-0.1,0.2-0.1,0.4-0.1,0.6l0,0v2.7c0,0,0,0.1,0,0.1v0.2c0,0,0,0.1,0,0.1v0.4l0,0c0.2,1.1,1.2,1.9,2.4,1.9h102.9 c1.1,0,2.1-0.8,2.4-1.9l0,0v-0.3c0-0.1,0-0.2,0-0.2v-0.2C124.7,119.6,124.7,119.5,124.7,119.5"></path> </g> </g> </g> </g> </svg> 