<?xml version="1.0" encoding="UTF-8"?> <!-- Generator: Adobe Illustrator 23.0.3, SVG Export Plug-In . SVG Version: 6.00 Build 0) --> <svg xmlns="http://www.w3.org/2000/svg" xmlns:xlink="http://www.w3.org/1999/xlink" id="Layer_1" x="0px" y="0px" viewBox="0 0 141.7 141.7" style="enable-background:new 0 0 141.7 141.7;" xml:space="preserve"> <style type="text/css"> .st0{fill:#FFFFFF;} </style> <title>Untitled-1</title> <g> <path class="st0" d="M54.6,92.9v15.9l19,7C68.6,105.9,62.3,98.2,54.6,92.9z"></path> <path class="st0" d="M54.6,21V90c7.8,5.1,15.6,13.1,21.8,25.7c0.2,0.4,0.1,0.8,0,1.1l10.7,3.9V33L54.6,21z M77.9,70.7 c0.5,0.5,0.5,1.3,0,1.8c-0.2,0.2-0.6,0.4-0.9,0.4s-0.6-0.1-0.9-0.4L71.6,68l-4.5,4.5c-0.2,0.2-0.6,0.4-0.9,0.4s-0.6-0.1-0.9-0.4 c-0.5-0.5-0.5-1.3,0-1.8l4.5-4.5l-4.5-4.5c-0.5-0.5-0.5-1.3,0-1.8s1.3-0.5,1.8,0l4.5,4.5l4.5-4.5c0.5-0.5,1.3-0.5,1.8,0 s0.5,1.3,0,1.8l-4.5,4.5L77.9,70.7z"></path> </g> <polygon class="st0" points="122.2,108.8 122.2,21 89.8,33 89.8,120.8 "></polygon> <g> <path class="st0" d="M39.1,85.8c-9.2-2.4-16.9-1.4-19.5-1v36l32.3-12l0-17.7C47.9,88.8,43.6,87,39.1,85.8z"></path> <path class="st0" d="M51.9,88.4L51.9,21L19.5,33v49.3C24.1,81.6,37.8,80.5,51.9,88.4z"></path> </g> </svg> 