<?xml version="1.0" encoding="UTF-8"?> <!-- Generator: Adobe Illustrator 23.0.3, SVG Export Plug-In . SVG Version: 6.00 Build 0) --> <svg xmlns="http://www.w3.org/2000/svg" xmlns:xlink="http://www.w3.org/1999/xlink" id="Layer_1" x="0px" y="0px" viewBox="0 0 141.7 141.7" style="enable-background:new 0 0 141.7 141.7;" xml:space="preserve"> <title>Untitled-1</title> <g> <g> <g> <g> <path d="M45.6,96.6c0,0-3.6,1.2-2.2,5.5c1.3,3.9,5.7,2.3,5.7,2.3l12.5-4.1c0,0,3.8-1.4,4.5,0c1.1,2.2-3,4.1-3,4.1l-14.5,8 l-24.1-4.5c0,0-5-1.4-6.2,1.9c-0.8,2.4,0,4.2,4,5.6c4.3,1.5,25.5,9.1,25.5,9.1h26.1l29.2-21.8l20.6-0.7V77.4h-36L45.6,96.6z"></path> <path d="M56.9,17c5.9,12,7,21.3,5.8,28.5c-6.2,1.5-14.4,6.8-18.1,14.6l7.2-27L40.4,67.3C17.4,34.2,56.9,17,56.9,17"></path> <path d="M42.8,77.4l29.9-19.7L41.7,75.7c0.4-4.5,1.6-9,3.5-13.1c4.1-8.5,11-12.5,18.1-14.2C75,45.6,87,49.2,87,49.2 C75.5,91.7,42.8,77.4,42.8,77.4"></path> </g> </g> </g> </g> </svg> 