<?xml version="1.0" encoding="UTF-8"?> <!-- Generator: Adobe Illustrator 23.0.3, SVG Export Plug-In . SVG Version: 6.00 Build 0) --> <svg xmlns="http://www.w3.org/2000/svg" xmlns:xlink="http://www.w3.org/1999/xlink" id="Layer_1" x="0px" y="0px" viewBox="0 0 141.7 141.7" style="enable-background:new 0 0 141.7 141.7;" xml:space="preserve"> <title>Untitled-1</title> <g> <g> <g> <g> <path d="M66,90.7L49.8,74.6l3.4-3.4l10.2,10.2V56.9h4.9v24.4l10.2-10.2l3.4,3.4L66,90.7z M102.8,64h-2.8 C98.1,47.1,83.3,33.9,66,33.9c-17.9,0-32.9,13.7-34.1,31.3c-11.4,3.9-17.6,16.3-13.7,27.7c3,8.9,11.4,14.9,20.8,14.9h63.8 c12.1,0.3,22.1-9.3,22.4-21.4c0.3-12.1-9.3-22.1-21.4-22.4C103.4,64,103.1,64,102.8,64"></path> </g> </g> </g> </g> </svg> 