<?xml version="1.0" encoding="UTF-8"?> <!-- Generator: Adobe Illustrator 23.0.3, SVG Export Plug-In . SVG Version: 6.00 Build 0) --> <svg xmlns="http://www.w3.org/2000/svg" xmlns:xlink="http://www.w3.org/1999/xlink" id="Layer_1" x="0px" y="0px" viewBox="0 0 141.7 141.7" style="enable-background:new 0 0 141.7 141.7;" xml:space="preserve"> <title>Untitled-1</title> <g> <g> <g> <g> <path d="M73.4,47c0.9-1,1.8-2.1,2.8-3c0-14.8-5.3-23-20-23s-20,8.4-20,23.3c0,14.1,5.7,15.5,5.7,23v3.3c3.9,5,8.7,9.2,14.3,12.2 c3.3-1.8,6.3-4,9.1-6.5c-0.3-1.9-0.5-3.8-0.5-5.8C64.8,62,67.9,53.6,73.4,47"></path> <path d="M108.7,56.5L89.6,81.8c0.5,0.4,1,0.8,1.6,1.2c0.7,0.4,1.3,0.7,2.1,1l0.3,0.1c1.3,0.4,2.6,0.7,4,0.7l0,0 c0.6,0,1.2,0,1.8-0.1h0.2c6.3-1,11.5-6.2,13.3-12.6c0.1-0.2,0.1-0.5,0.2-0.8c0.1-0.5,0.2-1,0.3-1.5c0-0.1,0-0.3,0.1-0.4 c0-0.4,0.1-0.8,0.1-1.2s0-0.5,0-0.8c0-2-0.4-3.9-1.1-5.7C111.6,59.7,110.3,57.9,108.7,56.5"></path> <path d="M85.1,116.7V99.6c-0.3-0.1-0.5-0.2-0.8-0.3l-0.2-0.1l-0.8-0.4l-3.2-1.7l-1-0.6c-5.9-3.2-10.3-8.5-12.5-14.9 c-3,3.6-6.5,6.7-10.5,9.1c-7.3-4.3-12.5-11.5-16.9-17.4c-9.7,3.2-23.7,11.6-22.2,33.8c0.7,10.6,18.6,13.5,39.1,13.5 c11.2,0,21.7-0.9,29-3.4L85.1,116.7L85.1,116.7z"></path> <path d="M99.3,89.7c-0.8,0.1-1.6,0.2-2.5,0.2c-9.3,0-16.4-7.6-16.4-17.9c0-11.3,8.5-21.6,19-23.1c0.8-0.1,1.6-0.2,2.5-0.2l0,0 c9.3,0,16.4,7.5,16.4,17.9C118.3,77.9,109.8,88.2,99.3,89.7 M124.8,65.7c0-9.8-4.7-17.7-11.9-21.5l0,0l-4.1-2.2 c-3.1-1.7-6.7-2.6-10.2-2.6c-1.1,0-2.2,0.1-3.3,0.2c-14,2-25.4,15.8-25.4,31c0,9.7,4.7,17.6,11.8,21.5l4.2,2.3l0,0 c0.3,0.2,0.6,0.3,0.8,0.4c0.5,0.2,1,0.5,1.6,0.7l0.4,0.2c0.5,0.2,1,0.3,1.5,0.5c2,0.5,4,0.8,6,0.8h0.2c-1.7,1.5-3.8,2.6-6,3.2 v16.6c0,0.7,0.2,1.3,0.6,1.8c0.2,0.2,0.4,0.5,0.6,0.7c0.2,0.2,0.5,0.4,0.7,0.5c1.5,0.8,3.1,1.1,4.8,1.1c0.6,0,1.1,0,1.7-0.1 c1.4-0.1,2.7-0.6,3.8-1.4c0.4-0.3,0.8-0.7,1-1.2c0.1-0.3,0.2-0.6,0.3-0.9c0-0.1,0-0.3,0-0.5v-21 C115.7,91.8,124.8,79.3,124.8,65.7"></path> </g> </g> </g> </g> </svg> 