<?xml version="1.0" encoding="UTF-8"?> <!-- Generator: Adobe Illustrator 23.0.3, SVG Export Plug-In . SVG Version: 6.00 Build 0) --> <svg xmlns="http://www.w3.org/2000/svg" xmlns:xlink="http://www.w3.org/1999/xlink" id="Layer_1" x="0px" y="0px" viewBox="0 0 141.7 141.7" style="enable-background:new 0 0 141.7 141.7;" xml:space="preserve"> <title>Untitled-1</title> <g> <g> <g> <g> <path d="M102.8,111.3c-3.7,2.6-15.6-1.4-18.2-4.1c-4.3-4.4-14.5-14.3-12-21.6c0,0-4.3-6.8,0.6-16.4c0,0,5.6-22,37.6-32.9 c3.4-1.2,21.9-4,10.7,12.7c-3.6,5.4-8.6,6.4-8.4,12.4c0.2,4.8-4.3,11.4-5.1,12.3s-3.8,1.8-0.8,4.9c2.8,2.9,7.1,7.8,2.2,16 C104.6,102.3,105.9,109,102.8,111.3"></path> <path d="M38.4,111c3.7,2.7,15.6-1.3,18.2-4c4.3-4.4,14.6-14.2,12.2-21.5c0,0,4.3-6.7-0.5-16.4c0,0-5.5-22.1-37.3-33.2 c-3.4-1.2-21.2-3.2-10,13.5c3.5,5.4,7.8,5.5,7.5,11.5c-0.2,4.8,4.2,11.4,5,12.4s3.8,1.8,0.7,4.9c-2.9,2.9-7.2,7.8-2.3,16 C36.7,102.1,35.3,108.8,38.4,111"></path> <path d="M70.8,97.4c1.2,0,2.1-7.1,2.1-15.9s-1-15.9-2.1-15.9s-2.1,7.1-2.1,15.9S69.6,97.4,70.8,97.4"></path> <path d="M71.1,66.3L71.1,66.3L71.1,66.3"></path> </g> </g> <polygon points="70.3,66.3 70.3,66.3 70.3,66.3 "></polygon> <g> <g> <path d="M69.1,51.9h3.2v8.8c0,0.1,0,0.1,0,0.2L71.1,64c0,0.1-0.1,0.1-0.1,0.2c-0.1,0.1-0.2,0.1-0.4,0.2c-0.2,0-0.4-0.1-0.5-0.3 l-1.1-3.1c0-0.1,0-0.1,0-0.2L69.1,51.9z"></path> <path d="M78.5,34.8v0.4c0,1.2-0.9,2.1-2.1,2.1l0,0l0,0H75H64.9c-1.2,0-2.1-0.9-2.1-2.1v-0.4c0-1.2,0.9-2.1,2.1-2.1h11.5 C77.5,32.6,78.5,33.5,78.5,34.8L78.5,34.8"></path> <path d="M75,38.5v7.6h3.3c1.2,0,2.1,0.9,2.1,2.1c0,0,0,0,0,0l0,0v0.4c0,1.2-0.9,2.1-2.1,2.1c0,0,0,0,0,0l0,0h-0.2H62.8 c-1.1-0.1-2-1-2-2.1v-0.4c0-1.2,0.9-2.1,2.1-2.1c0,0,0,0,0,0h3.3v-7.6L75,38.5z"></path> </g> </g> </g> </g> </svg> 