<?xml version="1.0" encoding="UTF-8"?> <!-- Generator: Adobe Illustrator 23.0.3, SVG Export Plug-In . SVG Version: 6.00 Build 0) --> <svg xmlns="http://www.w3.org/2000/svg" xmlns:xlink="http://www.w3.org/1999/xlink" id="Layer_1" x="0px" y="0px" viewBox="0 0 141.7 141.7" style="enable-background:new 0 0 141.7 141.7;" xml:space="preserve"> <title>Untitled-1</title> <g> <g> <g> <g> <path d="M118,97.4H84.3v-6.7H118V97.4z M57.4,24.1H91v6.7H57.4V24.1z M57.4,97.4H23.7v-6.7h33.7L57.4,97.4z M124.7,120.4V87.9 c0,0,0-4-4-4h-16.2V64.3H77.6v-6.6h16.2c0,0,4,0,4-4V21.3c0,0,0-4-4-4H54.6c0,0-4,0-4,4v32.5c0,0,0,4,4,4h16.3v6.6H37.2V84H20.9 c0,0-4,0-4,4v32.5c0,0,0,4,4,4h39.3c0,0,4,0,4-4V87.9c0,0,0-4-4-4H43.9V71.1h53.9V84H81.5c0,0-4,0-4,4v32.5c0,0,0,4,4,4h39.3 C120.8,124.5,124.8,124.5,124.7,120.4"></path> </g> </g> </g> </g> </svg> 