<?xml version="1.0" encoding="UTF-8"?> <!-- Generator: Adobe Illustrator 23.0.3, SVG Export Plug-In . SVG Version: 6.00 Build 0) --> <svg xmlns="http://www.w3.org/2000/svg" xmlns:xlink="http://www.w3.org/1999/xlink" id="Layer_1" x="0px" y="0px" viewBox="0 0 141.7 141.7" style="enable-background:new 0 0 141.7 141.7;" xml:space="preserve"> <style type="text/css"> .st0{fill:none;stroke:#000000;stroke-width:0.28;stroke-linecap:round;stroke-linejoin:round;} </style> <title>Untitled-1</title> <g> <g> <g> <g> <path d="M70.8,122c-28.2,0.1-51.1-22.8-51.2-51c0-9.5,2.6-18.9,7.7-27l1.4,0.8L28,46.5c0,0,0,0.1,0,0.1l0.6,2.1 c0,0.1,0,0.1,0.1,0.1c0,0,0.1,0,0.1,0l1-0.5C27.4,54,27,60.1,27.9,60.8c0.2,0.1,0.4,0.1,0.5,0c1.2-0.9,3.1-3.2,3.1-4.3 c-0.1-0.9,0.4-1.8,1.3-2.1c1.7-0.7,3-1.9,4-3.4c0.3-0.7,1-1.2,1.8-1.1c0.1,0,0.2,0.1,0.3,0.2c0.3,0.2,0.7,0.4,1.2,0.3 c0.3,0,0.6-0.2,0.7-0.4c0.1-0.2,0.2-0.3,0.7-0.2s0.6,1,0.6,1.9c0,0.6,0.1,1.2,0.2,1.7c0.1,0.9-0.1,1.7-0.6,2.4 c-0.2,0.2-0.2,0.4-0.2,0.5c0,0.1,0,0.1,0.1,0.2c0.1,0.1,0.4,0,1.1-0.2c0.5-0.2,1.1-0.3,1.6-0.4c0.3,0,0.4,0,0.4,0s0,0.4-0.1,0.8 c-0.1,0.4-0.2,0.8-0.2,1.2c-0.1,1.3-1.9,5.8-2,5.9c0,0.1,0,0.1,0,0.2c0.6,0.5,1.1,1.2,1.4,2c0.2,1.1,0.3,1.7,0.3,1.7 s0.7,2,0.9,2.8s1.8,1.2,1.9,1.3l0,0c0,0,0.1,0,0.1,0c0,0,0.1-0.1,0.1-0.1l-0.2-2c0,0,0,0,0-0.1l-1.8-2.8v-2.4c0,0,0-0.1-0.1-0.1 c-0.4-0.4-1-1.2-0.9-1.5c0.2-0.7,1-2.8,1.8-3c0.2,0,0.3,0,0.4,0.1c1.1,1.2,2,2.5,2.8,3.9c0.4,0.8,0.8,0.9,0.9,0.9l0,0 c2.1-0.4,3.4-1.2,3.9-2.2c0.7-1.4-0.1-3.1-0.8-4.5c-0.2-0.3-0.3-0.6-0.4-0.9c-0.3-0.8,0.1-1.7,0.9-2.1c0.5-0.4,1.2-0.7,1.9-0.6 c0.2,0.2,0.9,0.7,1.3,0.6c0.1-0.1,0.2-0.2,0.2-0.3c0-0.1,0-0.1,0.1-0.2c0.4-0.3,1.6-0.6,3.9-0.4c3,0.3,5.6-1.5,5.7-2.4 c0.1-0.6,0.5-1.2,1.1-1.4c0.5-0.2,0.9-0.5,1.3-0.9c0,0,0,0,0-0.1l0.4-1.3l0.1-1.2L69.1,44l-0.1-1l1.5-1.2c0.1,0,0.1-0.1,0.1-0.2 c0-0.1-0.1-0.1-0.2-0.1c-0.6,0-1.2-0.1-1.8-0.2c-0.3-0.1-0.4-0.3-0.5-0.6c-0.1-0.3,0.1-0.6,0.3-0.8c0.8-0.4,1.7-0.6,2.6-0.8 c0.1,0.8,0.8,1.3,1.5,1.3c0.7,0.1,1.3,0.6,1.3,1.4v1l-0.2,2c0,0,0,0.1,0,0.1c0,0,0.1,0.1,0.2,0.1l0,0l2.9-0.1 c0.1,0,0.2-0.1,0.2-0.2v-2.6c0,0,0,0,0-0.1l-0.5-1.5l1.1-0.9c0.7-0.4,1.4-0.7,2.1-0.9c0.7,0.1,1.4,0.1,2.1,0.1c0,0,0.1,0,0.1,0 l2-1.7l2-1.3c0,0,0.1-0.1,0.1-0.1l0.4-3.2c0-0.1,0-0.1-0.1-0.2c-0.9-0.5-1.9-1-2.8-1.3c-0.2-0.1-0.2-0.2-0.2-0.2 c-0.1-0.4,0.4-1,0.7-1.4l0.3-0.4c1.2,0.3,7.4,1.5,8,0.5c0.6-0.8,2.6-1.2,3-1.3l1.8,1.8c0,0,0.1,0,0.1,0c0.9,0.1,1.9,0,2.8-0.2 c0,0,0-0.1,0.1-0.1c0.2-0.2,0.4-0.3,0.7-0.5c22.9,16.5,28,48.5,11.5,71.3C102.6,114.1,87.2,122,70.8,122 M91.9,24.5 c-0.5-0.5-4.9-2-5.4-2.2l-1.9-0.4L81.9,22L80,21.9l-0.1-0.8c0-0.1,0-0.1-0.1-0.1L78,20.3c-0.1,0-0.2,0-0.2,0.1l-0.2,0.3 l-3.2,0.1c-0.5-0.3-1-0.6-1.4-1l0,0c0.2,0,0.3,0,0.5-0.1c6.8,0.3,13.5,2,19.6,5C92.6,24.7,92.3,24.6,91.9,24.5 M70.8,17.1 c-29.7,0-53.8,24.1-53.8,53.8s24.1,53.8,53.8,53.8s53.8-24.1,53.8-53.8l0,0C124.6,41.2,100.5,17.1,70.8,17.1"></path> <path class="st0" d="M70.8,122c-28.2,0.1-51.1-22.8-51.2-51c0-9.5,2.6-18.9,7.7-27l1.4,0.8L28,46.5c0,0,0,0.1,0,0.1l0.6,2.1 c0,0.1,0,0.1,0.1,0.1c0,0,0.1,0,0.1,0l1-0.5C27.4,54,27,60.1,27.9,60.8c0.2,0.1,0.4,0.1,0.5,0c1.2-0.9,3.1-3.2,3.1-4.3 c-0.1-0.9,0.4-1.8,1.3-2.1c1.7-0.7,3-1.9,4-3.4c0.3-0.7,1-1.2,1.8-1.1c0.1,0,0.2,0.1,0.3,0.2c0.3,0.2,0.7,0.4,1.2,0.3 c0.3,0,0.6-0.2,0.7-0.4c0.1-0.2,0.2-0.3,0.7-0.2s0.6,1,0.6,1.9c0,0.6,0.1,1.2,0.2,1.7c0.1,0.9-0.1,1.7-0.6,2.4 c-0.2,0.2-0.2,0.4-0.2,0.5c0,0.1,0,0.1,0.1,0.2c0.1,0.1,0.4,0,1.1-0.2c0.5-0.2,1.1-0.3,1.6-0.4c0.3,0,0.4,0,0.4,0s0,0.4-0.1,0.8 c-0.1,0.4-0.2,0.8-0.2,1.2c-0.1,1.3-1.9,5.8-2,5.9c0,0.1,0,0.1,0,0.2c0.6,0.5,1.1,1.2,1.4,2c0.2,1.1,0.3,1.7,0.3,1.7 s0.7,2,0.9,2.8s1.8,1.2,1.9,1.3l0,0c0,0,0.1,0,0.1,0c0,0,0.1-0.1,0.1-0.1l-0.2-2c0,0,0,0,0-0.1l-1.8-2.8v-2.4c0,0,0-0.1-0.1-0.1 c-0.4-0.4-1-1.2-0.9-1.5c0.2-0.7,1-2.8,1.8-3c0.2,0,0.3,0,0.4,0.1c1.1,1.2,2,2.5,2.8,3.9c0.4,0.8,0.8,0.9,0.9,0.9l0,0 c2.1-0.4,3.4-1.2,3.9-2.2c0.7-1.4-0.1-3.1-0.8-4.5c-0.2-0.3-0.3-0.6-0.4-0.9c-0.3-0.8,0.1-1.7,0.9-2.1c0.5-0.4,1.2-0.7,1.9-0.6 c0.2,0.2,0.9,0.7,1.3,0.6c0.1-0.1,0.2-0.2,0.2-0.3c0-0.1,0-0.1,0.1-0.2c0.4-0.3,1.6-0.6,3.9-0.4c3,0.3,5.6-1.5,5.7-2.4 c0.1-0.6,0.5-1.2,1.1-1.4c0.5-0.2,0.9-0.5,1.3-0.9c0,0,0,0,0-0.1l0.4-1.3l0.1-1.2L69.1,44l-0.1-1l1.5-1.2c0.1,0,0.1-0.1,0.1-0.2 c0-0.1-0.1-0.1-0.2-0.1c-0.6,0-1.2-0.1-1.8-0.2c-0.3-0.1-0.4-0.3-0.5-0.6c-0.1-0.3,0.1-0.6,0.3-0.8c0.8-0.4,1.7-0.6,2.6-0.8 c0.1,0.8,0.8,1.3,1.5,1.3c0.7,0.1,1.3,0.6,1.3,1.4v1l-0.2,2c0,0,0,0.1,0,0.1c0,0,0.1,0.1,0.2,0.1l0,0l2.9-0.1 c0.1,0,0.2-0.1,0.2-0.2v-2.6c0,0,0,0,0-0.1l-0.5-1.5l1.1-0.9c0.7-0.4,1.4-0.7,2.1-0.9c0.7,0.1,1.4,0.1,2.1,0.1c0,0,0.1,0,0.1,0 l2-1.7l2-1.3c0,0,0.1-0.1,0.1-0.1l0.4-3.2c0-0.1,0-0.1-0.1-0.2c-0.9-0.5-1.9-1-2.8-1.3c-0.2-0.1-0.2-0.2-0.2-0.2 c-0.1-0.4,0.4-1,0.7-1.4l0.3-0.4c1.2,0.3,7.4,1.5,8,0.5c0.6-0.8,2.6-1.2,3-1.3l1.8,1.8c0,0,0.1,0,0.1,0c0.9,0.1,1.9,0,2.8-0.2 c0,0,0-0.1,0.1-0.1c0.2-0.2,0.4-0.3,0.7-0.5c22.9,16.5,28,48.5,11.5,71.3C102.6,114.1,87.2,122,70.8,122L70.8,122z M91.9,24.5 c-0.5-0.5-4.9-2-5.4-2.2l-1.9-0.4L81.9,22L80,21.9l-0.1-0.8c0-0.1,0-0.1-0.1-0.1L78,20.3c-0.1,0-0.2,0-0.2,0.1l-0.2,0.3 l-3.2,0.1c-0.5-0.3-1-0.6-1.4-1l0,0c0.2,0,0.3,0,0.5-0.1c6.8,0.3,13.5,2,19.6,5C92.6,24.7,92.3,24.7,91.9,24.5z M70.8,17.1 c-29.7,0-53.8,24.1-53.8,53.8s24.1,53.8,53.8,53.8s53.8-24.1,53.8-53.8l0,0C124.6,41.2,100.5,17.1,70.8,17.1z"></path> <path d="M30.4,60.1c0,0,0,0.1,0,0.2h-0.1l0,0c0-0.1-0.1-0.1-0.2-0.1c-0.1,0-0.1,0.1-0.1,0.2l0,0c0,0,0.1,0.5-0.1,0.7 c-0.5,0.4-0.7,1-0.5,1.6c0.1,0.5,0.5,0.9,1,0.9l0,0c0.4,0,0.7-0.3,0.7-0.7c0.1-1,0.1-2.2-0.5-2.8C30.6,60,30.5,60,30.4,60.1"></path> <path class="st0" d="M30.4,60.1c0,0,0,0.1,0,0.2h-0.1l0,0c0-0.1-0.1-0.1-0.2-0.1c-0.1,0-0.1,0.1-0.1,0.2l0,0 c0,0,0.1,0.5-0.1,0.7c-0.5,0.4-0.7,1-0.5,1.6c0.1,0.5,0.5,0.9,1,0.9l0,0c0.4,0,0.7-0.3,0.7-0.7c0.1-1,0.1-2.2-0.5-2.8 C30.6,60,30.5,60,30.4,60.1C30.4,60.1,30.4,60.1,30.4,60.1z"></path> <path d="M87.2,35.3c0.1,0.5,0.1,1.1,0,1.6c0,0.1,0,0.2,0,0.3c0.1,0.1,0.3,0.2,0.4,0.2c0.2,0,0.4,0,0.6-0.1 c0.1,0,0.1-0.1,0.1-0.2c-0.2-0.6-0.3-1.3-0.2-2c0.2,0,0.3-0.2,0.4-0.4c0.2-1.1-0.2-2.2-1.1-2.8c-0.1-0.1-0.2-0.1-0.3-0.1 c-0.1,0-0.3,0.1-0.3,0.2c-0.1,0.5,0.1,1.1,0.4,1.5C87.2,34.2,87.2,34.7,87.2,35.3"></path> <path class="st0" d="M87.2,35.3c0.1,0.5,0.1,1.1,0,1.6c0,0.1,0,0.2,0,0.3c0.1,0.1,0.3,0.2,0.4,0.2c0.2,0,0.4,0,0.6-0.1 c0.1,0,0.1-0.1,0.1-0.2c-0.2-0.6-0.3-1.3-0.2-2c0.2,0,0.3-0.2,0.4-0.4c0.2-1.1-0.2-2.2-1.1-2.8c-0.1-0.1-0.2-0.1-0.3-0.1 c-0.1,0-0.3,0.1-0.3,0.2c-0.1,0.5,0.1,1.1,0.4,1.5C87.3,34.2,87.3,34.7,87.2,35.3z"></path> <path d="M95.2,34.8c0.4,0.8,0.6,1.2,0.9,1.2c0.5,0,0.8-0.9,0.8-1.5c0-0.2,0-0.4,0-0.6c0-0.2,0-0.4,0-0.6c0.3,0,0.7-0.1,0.8-0.3 s0-0.5-0.3-0.8C97.2,31.8,97,31.4,97,31c0-0.3-0.1-0.6-0.2-0.8c-0.1-0.1-0.1-0.1-0.2,0c0,0,0,0,0,0c0,0,0,0,0,0.1l-0.6-0.2 c0-0.1,0-0.1,0-0.2c-0.1-0.1-0.2-0.1-0.2,0c0,0,0,0,0,0c-0.4,0.5-0.9,0.9-1.4,1.3c-0.3,0.1-0.4,0.4-0.5,0.7 c-0.1,0.5,0.3,0.9,0.7,1.3l0.2,0.3C94.9,33.9,95.1,34.3,95.2,34.8"></path> <path class="st0" d="M95.2,34.8c0.4,0.8,0.6,1.2,0.9,1.2c0.5,0,0.8-0.9,0.8-1.5c0-0.2,0-0.4,0-0.6c0-0.2,0-0.4,0-0.6 c0.3,0,0.7-0.1,0.8-0.3s0-0.5-0.3-0.8C97.2,31.8,97,31.4,97,31c0-0.3-0.1-0.6-0.2-0.8c-0.1-0.1-0.1-0.1-0.2,0c0,0,0,0,0,0 c0,0,0,0,0,0.1l-0.6-0.2c0-0.1,0-0.1,0-0.2c-0.1-0.1-0.2-0.1-0.2,0c0,0,0,0,0,0c-0.4,0.5-0.9,0.9-1.4,1.3 c-0.3,0.1-0.4,0.4-0.5,0.7c-0.1,0.5,0.3,0.9,0.7,1.3l0.2,0.3C94.8,33.9,95.1,34.3,95.2,34.8z"></path> <path d="M86.3,40.8c0.4,0,0.7-0.2,1-0.3c0.3-0.2,0.6-0.3,0.9-0.3c0.1,0,0.1,0,0.2,0.1c0.1,0.3,0.4,0.4,0.7,0.5 c0.2,0,0.4-0.1,0.5-0.2c0.1-0.2,0.2-0.4,0.2-0.6c0-0.6-0.4-0.7-0.7-0.9c-0.2-0.1-0.4-0.2-0.6-0.3c-0.7-0.5-1-0.4-1.1-0.3 c-0.1,0-0.1,0.1-0.1,0.2c0.1,0.2,0.2,0.7-0.1,0.8c-0.1,0.1-0.2,0.1-0.4,0.2c-0.5,0.2-1,0.5-1.1,0.8C85.8,40.5,86,40.7,86.3,40.8 C86.3,40.8,86.3,40.8,86.3,40.8"></path> <path class="st0" d="M86.3,40.8c0.4,0,0.7-0.2,1-0.3c0.3-0.2,0.6-0.3,0.9-0.3c0.1,0,0.1,0,0.2,0.1c0.1,0.3,0.4,0.4,0.7,0.5 c0.2,0,0.4-0.1,0.5-0.2c0.1-0.2,0.2-0.4,0.2-0.6c0-0.6-0.4-0.7-0.7-0.9c-0.2-0.1-0.4-0.2-0.6-0.3c-0.7-0.5-1-0.4-1.1-0.3 c-0.1,0-0.1,0.1-0.1,0.2c0.1,0.2,0.2,0.7-0.1,0.8c-0.1,0.1-0.2,0.1-0.4,0.2c-0.5,0.2-1,0.5-1.1,0.8C85.8,40.5,86,40.7,86.3,40.8 C86.3,40.8,86.3,40.8,86.3,40.8L86.3,40.8z"></path> <path d="M78.7,45.9c0.3,0,0.6,0,0.9-0.1c0.3,0,0.6-0.1,0.8-0.1s0.2,0,0.2,0c0,0.1,0,0.2,0,0.2c0,0.1-0.1,0.1-0.2,0.1h-0.1 c-0.2,0-1,0.1-1.1,0.4c0,0.1,0,0.2,0.2,0.4c0.2,0.1,0.3,0.1,0.5,0.1c0.3,0,0.5-0.1,0.7-0.3l0,0c0.1,0,0.2,0,0.3,0 c0.1,0,0.2-0.1,0.4-1h0.1c0.1,0,0.2,0,0.2,0.1c0,0.1,0.1,0.3,0.1,0.4c0,0.2,0,0.5,0.3,0.5h0.1c0.4-0.1,0.8-0.3,1-0.6v-0.1 c0,0,0-0.1,0.1-0.2c0,0.1,0.1,0.1,0.1,0.2c0.1,0.2,0.2,0.3,0.3,0.3l0.3-0.1c0.6-0.1,1.2-0.2,1.8-0.2H86c0.1,0.1,0.2,0.1,0.3,0.1 c0.4,0,0.6-0.3,0.6-0.7c0,0,0,0,0,0c0-0.2,0-0.5,0.1-0.7v-0.2c0-0.1,0-0.3,0-0.4c0-0.2,0-0.4,0.2-0.5c0.4-0.6,0.6-1.3,0.5-2 c-0.1-0.3-0.5-0.5-0.8-0.5c-0.1,0-0.3,0-0.4,0.1c-0.1,0-0.1,0.1-0.1,0.1c-0.1,0.4-0.2,0.8-0.3,1.2c-0.4,0.9-1.2,1.5-2.2,1.7 c-0.5,0-0.9,0.4-1.1,0.9c0,0.1-0.1,0.1-0.1,0.2c0,0-0.1,0-0.2-0.1c-0.2-0.2-0.6-0.3-0.9-0.3c-0.5,0-1,0-1.5-0.2L80,44.5h-0.1 c-0.3,0-1.7,0.6-1.8,1c0,0.1,0,0.2,0.1,0.3C78.4,45.9,78.5,45.9,78.7,45.9"></path> <path class="st0" d="M78.7,45.9c0.3,0,0.6,0,0.9-0.1c0.3,0,0.6-0.1,0.8-0.1s0.2,0,0.2,0c0,0.1,0,0.2,0,0.2 c0,0.1-0.1,0.1-0.2,0.1h-0.1c-0.2,0-1,0.1-1.1,0.4c0,0.1,0,0.2,0.2,0.4c0.2,0.1,0.3,0.1,0.5,0.1c0.3,0,0.5-0.1,0.7-0.3l0,0 c0.1,0,0.2,0,0.3,0c0.1,0,0.2-0.1,0.4-1h0.1c0.1,0,0.2,0,0.2,0.1c0,0.1,0.1,0.3,0.1,0.4c0,0.2,0,0.5,0.3,0.5h0.1 c0.4-0.1,0.8-0.3,1-0.6v-0.1c0,0,0-0.1,0.1-0.2c0,0.1,0.1,0.1,0.1,0.2c0.1,0.2,0.2,0.3,0.3,0.3l0.3-0.1c0.6-0.1,1.2-0.2,1.8-0.2 H86c0.1,0.1,0.2,0.1,0.3,0.1c0.4,0,0.6-0.3,0.6-0.7c0,0,0,0,0,0c0-0.2,0-0.5,0.1-0.7v-0.2c0-0.1,0-0.3,0-0.4 c0-0.2,0-0.4,0.2-0.5c0.4-0.6,0.6-1.3,0.5-2c-0.1-0.3-0.5-0.5-0.8-0.5c-0.1,0-0.3,0-0.4,0.1c-0.1,0-0.1,0.1-0.1,0.1 c-0.1,0.4-0.2,0.8-0.3,1.2c-0.4,0.9-1.2,1.5-2.2,1.7c-0.5,0-0.9,0.4-1.1,0.9c0,0.1-0.1,0.1-0.1,0.2c0,0-0.1,0-0.2-0.1 c-0.2-0.2-0.6-0.3-0.9-0.3c-0.5,0-1,0-1.5-0.2L80,44.5h-0.1c-0.3,0-1.7,0.6-1.8,1c0,0.1,0,0.2,0.1,0.3 C78.4,45.9,78.5,45.9,78.7,45.9z"></path> <path d="M77.4,47c-0.2,0.2-0.4,0.4-0.1,0.8c0,0,0.6,0.7,0.9,0.7l0,0c0.2,0,0.3-0.4,0.4-0.9v-0.1c0-0.1,0.1-0.2,0.1-0.3 c0-0.1,0.1-0.1,0.1-0.2c0-0.2-0.1-0.5-0.3-0.7c-0.1-0.2-0.3-0.3-0.6-0.4c0,0,0,0-0.1,0c-0.5,0.2-0.8,0.3-0.8,0.5 c0,0.1,0,0.2,0.1,0.2c0.2,0.1,0.2,0.2,0.2,0.2S77.5,46.8,77.4,47L77.4,47"></path> <path class="st0" d="M77.4,47c-0.2,0.2-0.4,0.4-0.1,0.8c0,0,0.6,0.7,0.9,0.7l0,0c0.2,0,0.3-0.4,0.4-0.9v-0.1 c0-0.1,0.1-0.2,0.1-0.3c0-0.1,0.1-0.1,0.1-0.2c0-0.2-0.1-0.5-0.3-0.7c-0.1-0.2-0.3-0.3-0.6-0.4c0,0,0,0-0.1,0 c-0.5,0.2-0.8,0.3-0.8,0.5c0,0.1,0,0.2,0.1,0.2c0.2,0.1,0.2,0.2,0.2,0.2S77.5,46.8,77.4,47L77.4,47z"></path> <path d="M67,54.8L67,54.8c0.2,0,0.4-0.3,0.8-0.9c0.3-0.4,0.5-0.8,0.6-1.3c0-0.1,0-0.2,0.1-0.3c0-0.1,0-0.1,0-0.2 c0,0-0.1-0.1-0.1-0.1h-0.1l-0.2,0h-0.1c-0.1,0.1-1.1,0.9-1.3,1.4c-0.1,0.4-0.1,0.7,0.1,1.1C66.8,54.7,66.9,54.8,67,54.8"></path> <path class="st0" d="M67,54.8L67,54.8c0.2,0,0.4-0.3,0.8-0.9c0.3-0.4,0.5-0.8,0.6-1.3c0-0.1,0-0.2,0.1-0.3c0-0.1,0-0.1,0-0.2 c0,0-0.1-0.1-0.1-0.1h-0.1l-0.2,0h-0.1c-0.1,0.1-1.1,0.9-1.3,1.4c-0.1,0.4-0.1,0.7,0.1,1.1C66.8,54.7,66.9,54.8,67,54.8z"></path> <path d="M48.2,77l0.4-0.1c0,0,0.1,0,0.1-0.1c0,0,0-0.1,0-0.1l-0.5-1.2c0-0.1-0.1-0.1-0.2-0.1c-0.1,0-0.1,0-0.2,0.1 c-0.1,0.2-0.2,0.4-0.2,0.5c-0.1,0.1-0.2,0.2-0.3,0.3c0-0.1,0-0.3,0-0.4c0,0,0-0.1,0-0.1c-0.3-0.5-0.7-1-1.2-1.4 c0-0.1,0-0.3,0.1-0.4c0-0.1,0.1-0.2,0.1-0.4c0.1-0.4-0.3-1.1-0.5-1.4s-1-1.2-1.5-1.3s-0.7-0.6-0.8-0.9s-0.3-1.2-0.9-1.2 c-0.2,0-0.4-0.5-0.5-0.8c-0.1-0.2-0.2-0.3-0.3-0.5c-0.2-0.2-0.4-0.4-0.7-0.6c-0.1-0.2-0.6-0.7-1-0.7h-0.1 c-0.2,0-0.3,0.2-0.3,0.4c-0.1,0.5,0.1,1.1,0.6,1.4C41,68.6,41,69,41,69l0,0c0,0,0.3,0.8,0.4,1c0.1,0.4,0.4,0.6,0.7,0.8 c0.2,0.1,0.2,0.7,0,1.1c0,0,0,0.1,0,0.1c0.1,0.2,0.3,0.4,0.4,0.6c0,0.1,0.1,0.2,0.1,0.3c0.3,1,0.6,1.9,1.1,2.8 c0.8,1.6,3.2,3.6,3.7,3.6c0.1,0,0.5,0,0.7-2.6"></path> <path class="st0" d="M48.2,77l0.4-0.1c0,0,0.1,0,0.1-0.1c0,0,0-0.1,0-0.1l-0.5-1.2c0-0.1-0.1-0.1-0.2-0.1c-0.1,0-0.1,0-0.2,0.1 c-0.1,0.2-0.2,0.4-0.2,0.5c-0.1,0.1-0.2,0.2-0.3,0.3c0-0.1,0-0.3,0-0.4c0,0,0-0.1,0-0.1c-0.3-0.5-0.7-1-1.2-1.4 c0-0.1,0-0.3,0.1-0.4c0-0.1,0.1-0.2,0.1-0.4c0.1-0.4-0.3-1.1-0.5-1.4s-1-1.2-1.5-1.3s-0.7-0.6-0.8-0.9s-0.3-1.2-0.9-1.2 c-0.2,0-0.4-0.5-0.5-0.8c-0.1-0.2-0.2-0.3-0.3-0.5c-0.2-0.2-0.4-0.4-0.7-0.6c-0.1-0.2-0.6-0.7-1-0.7h-0.1 c-0.2,0-0.3,0.2-0.3,0.4c-0.1,0.5,0.1,1.1,0.6,1.4C41,68.6,41,69,41,69l0,0c0,0,0.3,0.8,0.4,1c0.1,0.4,0.4,0.6,0.7,0.8 c0.2,0.1,0.2,0.7,0,1.1c0,0,0,0.1,0,0.1c0.1,0.2,0.3,0.4,0.4,0.6c0,0.1,0.1,0.2,0.1,0.3c0.3,1,0.6,1.9,1.1,2.8 c0.8,1.6,3.2,3.6,3.7,3.6C47.7,79.5,48,79.5,48.2,77z"></path> <path d="M52.1,75.7c0.1,0.1,0.1,0.1,0.2,0.2c0,0,0,0.2-0.1,0.3c-0.2,0.3-0.2,0.7,0,1.1c0.2,0.4,0.6,0.6,1,0.5h0 c0.1,0,0.2,0,0.3,0c0.1,0.1,0.2,0.2,0.3,0.3c0.2,0.2,0.3,0.4,0.6,0.4c0.1,0,0.2,0,0.3-0.1c0.1-0.1,0.3-0.1,0.5,0 c0.3,0.2,0.6,0.3,0.9,0.3c0,0,0,0.1,0,0.1c0,0.3,0.1,0.8,0.6,0.8h0.1c0.2,0,0.5-0.1,0.6-0.3c0,0,0,0,0.1,0l0.1,0.1 c0.1,0.1,0.2,0.1,0.4,0.1c0.1,0,0.4-0.1,0.4-0.5s0.2-0.5,0.2-0.5c0,0,0.1-0.1,0.1-0.1c0,0,0-0.1,0-0.1c-0.1-0.2-0.2-0.4-0.2-0.5 c0.2-0.1,0.4-0.2,0.6-0.3l0.3-0.1c0.4-0.3,0.6-0.7,0.5-1.2c0-0.1,0.1-0.2,0.1-0.3c0.2-0.2,0.4-0.4,0.7-0.4 c0.2,0.1,0.4,0,0.5-0.2c0-0.1,0-0.3-0.3-0.7c-0.3-0.3-0.4-0.6-0.5-1c-0.1-0.3-0.1-0.7,0-1c0.2-0.1,0.3-0.2,0.4-0.4 c0.1-0.1,0.2-0.2,0.2-0.2s0,0,0,0c0.3,0,0.5-0.3,0.6-0.6l0,0c0.1,0,0.2,0,0.3,0c0.1,0,0.1,0,0.2-0.1c0.1-0.1,0.1-0.3,0.1-0.5 c-0.1-0.2-0.4-0.4-0.8-0.5S61,70.1,61,69.9s0.1-0.7-0.7-0.9c0,0-0.1,0-0.1,0c-0.7,0.4-1.3,0.8-1.8,1.4c0,0-0.1,0.1-0.7,0.1h-0.4 c-0.1,0-0.3,0.1-1.4,1.1l-0.2,0.2c-0.2,0.1-0.3,0.1-0.5,0.1c-0.3,0-0.5,0-0.8,0.1c-0.2,0.1-0.3,0.3-0.3,0.5 c-0.1,0.3-0.1,0.4-0.5,0.5c-0.4,0-0.7-0.1-1-0.3c-0.2-0.1-0.4-0.2-0.5-0.2c-0.7,0.3-1,1-0.8,1.7c0.1,0.5,0.4,1,0.7,1.3"></path> <path class="st0" d="M52.1,75.7c0.1,0.1,0.1,0.1,0.2,0.2c0,0,0,0.2-0.1,0.3c-0.2,0.3-0.2,0.7,0,1.1c0.2,0.4,0.6,0.6,1,0.5h0 c0.1,0,0.2,0,0.3,0c0.1,0.1,0.2,0.2,0.3,0.3c0.2,0.2,0.3,0.4,0.6,0.4c0.1,0,0.2,0,0.3-0.1c0.1-0.1,0.3-0.1,0.5,0 c0.3,0.2,0.6,0.3,0.9,0.3c0,0,0,0.1,0,0.1c0,0.3,0.1,0.8,0.6,0.8h0.1c0.2,0,0.5-0.1,0.6-0.3c0,0,0,0,0.1,0l0.1,0.1 c0.1,0.1,0.2,0.1,0.4,0.1c0.1,0,0.4-0.1,0.4-0.5s0.2-0.5,0.2-0.5c0,0,0.1-0.1,0.1-0.1c0,0,0-0.1,0-0.1c-0.1-0.2-0.2-0.4-0.2-0.5 c0.2-0.1,0.4-0.2,0.6-0.3l0.3-0.1c0.4-0.3,0.6-0.7,0.5-1.2c0-0.1,0.1-0.2,0.1-0.3c0.2-0.2,0.4-0.4,0.7-0.4 c0.2,0.1,0.4,0,0.5-0.2c0-0.1,0-0.3-0.3-0.7c-0.3-0.3-0.4-0.6-0.5-1c-0.1-0.3-0.1-0.7,0-1c0.2-0.1,0.3-0.2,0.4-0.4 c0.1-0.1,0.2-0.2,0.2-0.2s0,0,0,0c0.3,0,0.5-0.3,0.6-0.6l0,0c0.1,0,0.2,0,0.3,0c0.1,0,0.1,0,0.2-0.1c0.1-0.1,0.1-0.3,0.1-0.5 c-0.1-0.2-0.4-0.4-0.8-0.5S61,70.1,61,69.9s0.1-0.7-0.7-0.9c0,0-0.1,0-0.1,0c-0.7,0.4-1.3,0.8-1.8,1.4c0,0-0.1,0.1-0.7,0.1h-0.4 c-0.1,0-0.3,0.1-1.4,1.1l-0.2,0.2c-0.2,0.1-0.3,0.1-0.5,0.1c-0.3,0-0.5,0-0.8,0.1c-0.2,0.1-0.3,0.3-0.3,0.5 c-0.1,0.3-0.1,0.4-0.5,0.5c-0.4,0-0.7-0.1-1-0.3c-0.2-0.1-0.4-0.2-0.5-0.2c-0.7,0.3-1,1-0.8,1.7C51.5,74.8,51.7,75.3,52.1,75.7z "></path> <path d="M65.4,62.4L65.4,62.4c0,0.1,0,0.1-0.1,0.2c0,0.2,0,0.3,0.2,0.5c0.1,0.1,0.2,0.1,0.3,0.2l0,0c0.2,0,0.7-0.2,0.7-0.5 c0-0.2,0-0.5-0.2-0.7c0-0.3,0.1-0.6,0.3-0.9l0.2-0.1c0.6-0.2,0.8-0.9,0.6-1.5c0,0,0,0,0,0l-0.1-0.2l0,0c0.1,0,0.1,0,0.2-0.1 c0-0.1,0-0.1,0-0.2c0-0.3-0.4-0.5-1-0.7h-0.1c-0.1,0-0.1,0-0.2,0c-0.3,0.4-0.5,0.9-0.6,1.4c0,0.3,0,0.6-0.2,0.8l0,0 c-0.2,0-0.4,0.1-0.5,0.2c-0.1,0.2-0.1,0.4-0.1,0.6C65,61.9,65.2,62.2,65.4,62.4"></path> <path class="st0" d="M65.4,62.4L65.4,62.4c0,0.1,0,0.1-0.1,0.2c0,0.2,0,0.3,0.2,0.5c0.1,0.1,0.2,0.1,0.3,0.2l0,0 c0.2,0,0.7-0.2,0.7-0.5c0-0.2,0-0.5-0.2-0.7c0-0.3,0.1-0.6,0.3-0.9l0.2-0.1c0.6-0.2,0.8-0.9,0.6-1.5c0,0,0,0,0,0l-0.1-0.2l0,0 c0.1,0,0.1,0,0.2-0.1c0-0.1,0-0.1,0-0.2c0-0.3-0.4-0.5-1-0.7h-0.1c-0.1,0-0.1,0-0.2,0c-0.3,0.4-0.5,0.9-0.6,1.4 c0,0.3,0,0.6-0.2,0.8l0,0c-0.2,0-0.4,0.1-0.5,0.2c-0.1,0.2-0.1,0.4-0.1,0.6C65.1,62,65.2,62.3,65.4,62.4z"></path> <path d="M55.7,56.6c0.3,0,0.7-0.1,0.9-0.3l0.5-0.5c0.1-0.1,0.1-0.2,0.1-0.3c-0.1-0.2-0.3-0.2-0.5-0.3c-0.2-0.1-0.5-0.1-0.7-0.1 c-0.6,0-1.1,0.3-1.3,0.8c0,0,0,0.1,0,0.1C54.9,56.4,55.3,56.6,55.7,56.6"></path> <path class="st0" d="M55.7,56.6c0.3,0,0.7-0.1,0.9-0.3l0.5-0.5c0.1-0.1,0.1-0.2,0.1-0.3c-0.1-0.2-0.3-0.2-0.5-0.3 c-0.2-0.1-0.5-0.1-0.7-0.1c-0.6,0-1.1,0.3-1.3,0.8c0,0,0,0.1,0,0.1C54.9,56.4,55.3,56.6,55.7,56.6z"></path> <path d="M69.2,68.3c-0.4,0.3-0.8,0.4-1.2,0.5c-0.2,0-0.3,0-0.5-0.1c-0.2-0.1-0.3-0.2-0.5-0.2c-0.1,0-1.3,0.3-1.3,0.6 c0,0.1,0,0.2,0.1,0.2c0.1,0.1,0.2,0.1,0.3,0.1c0.1,0,0.1,0,0.2,0.1c0.1,0.1,0.2,0.1,0.3,0.1c0.1,0,0.2,0,0.4-0.1 c0.1,0,0.3-0.1,0.4-0.1h0.2l0,0c0,0.1,0,0.1,0,0.2c-0.3,0.7-0.2,1.2,0.2,1.5l0.2,0.1c0.2,0.1,0.4,0.2,0.6,0.3h0.2 c0.1,0,0.1,0,0.2,0c0.1,0,0.1,0,0.2-0.1c0-0.1,0-0.2,0-0.2c-0.1-0.2,0-0.5,0.1-0.7c0.1,0,0.2,0.1,0.2,0.1 c0.1,0.1,0.2,0.1,0.3,0.2c0.1,0,0.2-0.1,0.3-0.2l0.1-0.2c0.2-0.2,0.2-0.5,0.1-0.8C70,69.5,70,69.2,70,69c0-0.2-0.1-0.4-0.2-0.5 c-0.1-0.1-0.2-0.2-0.4-0.3C69.3,68.2,69.2,68.3,69.2,68.3"></path> <path class="st0" d="M69.2,68.3c-0.4,0.3-0.8,0.4-1.2,0.5c-0.2,0-0.3,0-0.5-0.1c-0.2-0.1-0.3-0.2-0.5-0.2 c-0.1,0-1.3,0.3-1.3,0.6c0,0.1,0,0.2,0.1,0.2c0.1,0.1,0.2,0.1,0.3,0.1c0.1,0,0.1,0,0.2,0.1c0.1,0.1,0.2,0.1,0.3,0.1 c0.1,0,0.2,0,0.4-0.1c0.1,0,0.3-0.1,0.4-0.1h0.2l0,0c0,0.1,0,0.1,0,0.2c-0.3,0.7-0.2,1.2,0.2,1.5l0.2,0.1 c0.2,0.1,0.4,0.2,0.6,0.3h0.2c0.1,0,0.1,0,0.2,0c0.1,0,0.1,0,0.2-0.1c0-0.1,0-0.2,0-0.2c-0.1-0.2,0-0.5,0.1-0.7 c0.1,0,0.2,0.1,0.2,0.1c0.1,0.1,0.2,0.1,0.3,0.2c0.1,0,0.2-0.1,0.3-0.2l0.1-0.2c0.2-0.2,0.2-0.5,0.1-0.8C70,69.5,70,69.2,70,69 c0-0.2-0.1-0.4-0.2-0.5c-0.1-0.1-0.2-0.2-0.4-0.3C69.3,68.2,69.2,68.3,69.2,68.3z"></path> <path d="M66,64.2c0.1-0.1,0.1-0.3,0-0.5c-0.1-0.2-0.3-0.3-0.4-0.5c0,0-0.1-0.1-0.1-0.1c-0.2,0-0.4,0.1-0.5,0.3 c-0.1,0.1-0.1,0.3,0,0.4c0,0.1,0.1,0.2,0.1,0.2c0.1,0.2,0.2,0.4,0.3,0.4c0,0,0.1,0,0.1,0C65.8,64.5,66,64.4,66,64.2"></path> <path class="st0" d="M66,64.2c0.1-0.1,0.1-0.3,0-0.5c-0.1-0.2-0.3-0.3-0.4-0.5c0,0-0.1-0.1-0.1-0.1c-0.2,0-0.4,0.1-0.5,0.3 c-0.1,0.1-0.1,0.3,0,0.4c0,0.1,0.1,0.2,0.1,0.2c0.1,0.2,0.2,0.4,0.3,0.4c0,0,0.1,0,0.1,0C65.8,64.5,65.9,64.4,66,64.2z"></path> <path d="M67.4,63.6h0.2l0,0c0,0.2,0.1,0.4,0.2,0.6c0.1,0.1,0.2,0.2,0.3,0.2c0.1,0,0.2,0,0.2-0.6l0,0c0-0.2-0.1-0.3-0.2-0.3 c-0.1,0-0.5-0.3-0.8-0.5h-0.1c-0.1,0-0.2,0-0.2,0c-0.2,0-0.3,0.1-0.3,0.3c0,0,0,0,0,0c0,0.2,0.1,0.4,0.6,0.5h0.1"></path> <path class="st0" d="M67.4,63.6h0.2l0,0c0,0.2,0.1,0.4,0.2,0.6c0.1,0.1,0.2,0.2,0.3,0.2c0.1,0,0.2,0,0.2-0.6l0,0 c0-0.2-0.1-0.3-0.2-0.3c-0.1,0-0.5-0.3-0.8-0.5h-0.1c-0.1,0-0.2,0-0.2,0c-0.2,0-0.3,0.1-0.3,0.3c0,0,0,0,0,0 c0,0.2,0.1,0.4,0.6,0.5L67.4,63.6z"></path> <path d="M68.8,66.8c0.2,0,0.4-0.1,0.4-0.3c0,0,0.1-0.1,0.1-0.1l0.2-0.1c0.1,0,0.2-0.1,0.2-0.1c0.1-0.1,0-0.2,0-0.5v-0.1 c-0.1-0.5-0.2-0.8-0.7-0.7l0,0c-0.1,0-0.2,0-0.2,0.1c-0.1,0.1-0.1,0.3,0,0.4c0.1,0.1,0.1,0.2,0.2,0.3c0,0,0.1,0.1,0.1,0.2 c-0.1,0-0.2,0.1-0.3,0.1c-0.1,0.1-0.2,0.3-0.2,0.4c0,0.1,0,0.3,0.1,0.4C68.8,66.8,68.9,66.8,68.8,66.8"></path> <path class="st0" d="M68.8,66.8c0.2,0,0.4-0.1,0.4-0.3c0,0,0.1-0.1,0.1-0.1l0.2-0.1c0.1,0,0.2-0.1,0.2-0.1c0.1-0.1,0-0.2,0-0.5 v-0.1c-0.1-0.5-0.2-0.8-0.7-0.7l0,0c-0.1,0-0.2,0-0.2,0.1c-0.1,0.1-0.1,0.3,0,0.4c0.1,0.1,0.1,0.2,0.2,0.3c0,0,0.1,0.1,0.1,0.2 c-0.1,0-0.2,0.1-0.3,0.1c-0.1,0.1-0.2,0.3-0.2,0.4c0,0.1,0,0.3,0.1,0.4C68.8,66.7,68.8,66.8,68.8,66.8z"></path> <path d="M66.5,65.3c-0.1-0.1-0.2-0.1-0.2,0c-0.1,0.1-0.1,0.3-0.1,0.5c0.1,0.2,0.2,0.4,0.4,0.5c0.1,0,0.1,0,0.2,0v0.1 c-0.7,1.2-0.5,1.3-0.4,1.4c0,0.1,0.1,0.1,0.2,0.1c0,0,0.1,0,0.1,0h0.2c0.3-0.1,0.3-0.1,0.5-0.5l0.1-0.1c0-0.1,0.1-0.2,0.2-0.3 c0.1,0,0.1-0.1,0.1-0.2c0-0.1-0.1-0.2-0.2-0.2s-0.2-0.1-0.2-0.2l-0.1-0.1c0,0,0,0,0-0.1c0.1-0.1,0.1-0.2,0.1-0.4 c0-0.1-0.2-0.2-0.4-0.3c-0.1,0-0.2,0-0.2,0.1c0,0,0,0,0,0l-0.3-0.1C66.5,65.5,66.5,65.4,66.5,65.3"></path> <path class="st0" d="M66.5,65.3c-0.1-0.1-0.2-0.1-0.2,0c-0.1,0.1-0.1,0.3-0.1,0.5c0.1,0.2,0.2,0.4,0.4,0.5c0.1,0,0.1,0,0.2,0 v0.1c-0.7,1.2-0.5,1.3-0.4,1.4c0,0.1,0.1,0.1,0.2,0.1c0,0,0.1,0,0.1,0h0.2c0.3-0.1,0.3-0.1,0.5-0.5l0.1-0.1 c0-0.1,0.1-0.2,0.2-0.3c0.1,0,0.1-0.1,0.1-0.2c0-0.1-0.1-0.2-0.2-0.2s-0.2-0.1-0.2-0.2l-0.1-0.1c0,0,0,0,0-0.1 c0.1-0.1,0.1-0.2,0.1-0.4c0-0.1-0.2-0.2-0.4-0.3c-0.1,0-0.2,0-0.2,0.1c0,0,0,0,0,0l-0.3-0.1C66.5,65.5,66.5,65.4,66.5,65.3z"></path> <path d="M54.6,83.5c0.1,0.1,0.3,0.1,0.5,0.2c0.1,0,0.2,0,0.2-0.1c0.1,0,0.1-0.1,0.1-0.2c0-0.2-0.2-0.4-0.6-0.6s-0.5-0.3-0.7-0.3 l0,0v-0.1c0,0,0-0.1,0-0.1c0-0.1,0-0.1,0-0.2c0-0.1-0.1-0.2-0.2-0.2l-0.2-0.2c-0.6-0.4-1.1-0.8-1.4-0.6l-0.2,0.1 c-0.2,0.1-0.5,0.2-0.7,0.2l0,0c-0.2,0-0.4-0.1-0.6-0.2c-0.1-0.1-0.2-0.1-0.3-0.1c-0.1,0-0.1,0-0.2-0.1c0,0,0-0.1,0-0.1 c-0.1-0.3-0.4-0.6-0.8-0.6c-0.1,0-0.3-0.1-0.3-0.2c-0.1-0.1-0.2-0.2-0.4-0.2c-0.1,0-0.1,0-0.2-0.1c-0.3-0.2-0.8-0.2-1.1,0.2 c-0.1,0.1-0.1,0.2-0.1,0.3c0,0.2,0.1,0.4,0.2,0.4c0.1,0.1,0.3,0.2,0.3,0.4c0,0.1,0.1,0.1,0.1,0.2c0.3,0.3,0.7,0.4,1.1,0.5 c0.1,0,0.3,0,0.4,0c0.5,0,1.1,0.2,1.5,0.5c1.1,0.8,1.7,1.1,2.3,1C53.8,83.2,54.2,83.3,54.6,83.5"></path> <path class="st0" d="M54.6,83.5c0.1,0.1,0.3,0.1,0.5,0.2c0.1,0,0.2,0,0.2-0.1c0.1,0,0.1-0.1,0.1-0.2c0-0.2-0.2-0.4-0.6-0.6 s-0.5-0.3-0.7-0.3l0,0v-0.1c0,0,0-0.1,0-0.1c0-0.1,0-0.1,0-0.2c0-0.1-0.1-0.2-0.2-0.2l-0.2-0.2c-0.6-0.4-1.1-0.8-1.4-0.6 l-0.2,0.1c-0.2,0.1-0.5,0.2-0.7,0.2l0,0c-0.2,0-0.4-0.1-0.6-0.2c-0.1-0.1-0.2-0.1-0.3-0.1c-0.1,0-0.1,0-0.2-0.1c0,0,0-0.1,0-0.1 c-0.1-0.3-0.4-0.6-0.8-0.6c-0.1,0-0.3-0.1-0.3-0.2c-0.1-0.1-0.2-0.2-0.4-0.2c-0.1,0-0.1,0-0.2-0.1c-0.3-0.2-0.8-0.2-1.1,0.2 c-0.1,0.1-0.1,0.2-0.1,0.3c0,0.2,0.1,0.4,0.2,0.4c0.1,0.1,0.3,0.2,0.3,0.4c0,0.1,0.1,0.1,0.1,0.2c0.3,0.3,0.7,0.4,1.1,0.5 c0.1,0,0.3,0,0.4,0c0.5,0,1.1,0.2,1.5,0.5c1.1,0.8,1.7,1.1,2.3,1C53.8,83.2,54.3,83.3,54.6,83.5z"></path> <path d="M63.8,81.5c-0.1,0.1-0.2,0.2-0.2,0.3c0,0.1,0.1,0.2,0.2,0.3c0.1,0.1,0.2,0.1,0.3,0.1c0.2,0,0.4-0.1,0.4-0.3 c0.1-0.2,0.1-0.4,0-0.6l-0.2-0.3c-0.1-0.1-0.2-0.3-0.3-0.5c0-0.1,0-0.1,0-0.1s0.1-0.3-0.1-0.7c-0.4-0.5-0.5-0.7-0.5-1 c0.2-0.1,0.4-0.2,0.6-0.3c0.4-0.2,0.7-0.3,0.7-0.5c0-0.1,0-0.2-0.1-0.2c-0.2-0.2-0.4-0.2-0.7-0.2c-0.3,0-0.5,0.1-0.7,0.2 c-0.1,0.2-0.3,0.3-0.5,0.4c0-0.1-0.1-0.2-0.1-0.3c0-0.1-0.3-0.9-0.8-1s-0.8,0.6-0.8,1.1c0,0.2-0.1,0.4-0.3,0.6l-0.1,0.1 c-0.2,0.1-0.2,0.3-0.3,0.5c0,0.2,0.1,0.3,0.4,0.6c0.3,0.4,0.4,1,0.2,1.5l-0.1,0.2c-0.2,0.3-0.4,0.5-0.3,0.7s0.1,0.2,0.4,0.1 c0.9-0.5,1.3-1.4,1.2-2.4c0-0.1,0-0.3,0.1-0.4c0.1-0.1,0.4,0,0.5,0.1c0,0,0,0.1,0,0.1c-0.2,0.4-0.2,0.9,0.3,1.2v0.2 c0,0.2,0,0.5,0.3,0.5h0.2c0.1,0,0.3-0.1,0.4-0.1l0,0c0,0,0,0,0,0.1C63.9,81.4,63.8,81.5,63.8,81.5"></path> <path class="st0" d="M63.8,81.5c-0.1,0.1-0.2,0.2-0.2,0.3c0,0.1,0.1,0.2,0.2,0.3c0.1,0.1,0.2,0.1,0.3,0.1c0.2,0,0.4-0.1,0.4-0.3 c0.1-0.2,0.1-0.4,0-0.6l-0.2-0.3c-0.1-0.1-0.2-0.3-0.3-0.5c0-0.1,0-0.1,0-0.1s0.1-0.3-0.1-0.7c-0.4-0.5-0.5-0.7-0.5-1 c0.2-0.1,0.4-0.2,0.6-0.3c0.4-0.2,0.7-0.3,0.7-0.5c0-0.1,0-0.2-0.1-0.2c-0.2-0.2-0.4-0.2-0.7-0.2c-0.3,0-0.5,0.1-0.7,0.2 c-0.1,0.2-0.3,0.3-0.5,0.4c0-0.1-0.1-0.2-0.1-0.3c0-0.1-0.3-0.9-0.8-1s-0.8,0.6-0.8,1.1c0,0.2-0.1,0.4-0.3,0.6l-0.1,0.1 c-0.2,0.1-0.2,0.3-0.3,0.5c0,0.2,0.1,0.3,0.4,0.6c0.3,0.4,0.4,1,0.2,1.5l-0.1,0.2c-0.2,0.3-0.4,0.5-0.3,0.7s0.1,0.2,0.4,0.1 c0.9-0.5,1.3-1.4,1.2-2.4c0-0.1,0-0.3,0.1-0.4c0.1-0.1,0.4,0,0.5,0.1c0,0,0,0.1,0,0.1c-0.2,0.4-0.2,0.9,0.3,1.2v0.2 c0,0.2,0,0.5,0.3,0.5h0.2c0.1,0,0.3-0.1,0.4-0.1l0,0c0,0,0,0,0,0.1C63.9,81.4,63.9,81.5,63.8,81.5z"></path> <path d="M63.8,76.4l0.6,0.1c0.2,0,0.4,0.1,0.5,0.2c0.2,0.1,0.4,0.2,0.7,0.3h0.2c0.6,0,1.2-0.2,1.6-0.7c0.1-0.1,0.1-0.3,0-0.4 c0-0.1-0.1-0.2-0.2-0.2c-0.1,0-0.2,0.1-0.3,0.2c-0.1,0.1-0.2,0.2-0.4,0.3c-0.2,0.1-0.2,0.1-0.2,0.1l0,0 c-0.1-0.1-0.2-0.1-0.2-0.2c-0.4-0.1-0.8-0.3-1.2-0.3c-0.2-0.1-0.4-0.1-0.6-0.2c-0.2-0.1-0.4-0.2-0.7-0.2l0,0c0,0-0.1,0-0.1,0 c-1,0.1-1,0.3-1.1,0.4c0,0.1,0,0.2,0.1,0.3C62.9,76.3,63.4,76.4,63.8,76.4"></path> <path class="st0" d="M63.8,76.4l0.6,0.1c0.2,0,0.4,0.1,0.5,0.2c0.2,0.1,0.4,0.2,0.7,0.3h0.2c0.6,0,1.2-0.2,1.6-0.7 c0.1-0.1,0.1-0.3,0-0.4c0-0.1-0.1-0.2-0.2-0.2c-0.1,0-0.2,0.1-0.3,0.2c-0.1,0.1-0.2,0.2-0.4,0.3c-0.2,0.1-0.2,0.1-0.2,0.1l0,0 c-0.1-0.1-0.2-0.1-0.2-0.2c-0.4-0.1-0.8-0.3-1.2-0.3c-0.2-0.1-0.4-0.1-0.6-0.2c-0.2-0.1-0.4-0.2-0.7-0.2l0,0c0,0-0.1,0-0.1,0 c-1,0.1-1,0.3-1.1,0.4c0,0.1,0,0.2,0.1,0.3C62.9,76.3,63.3,76.3,63.8,76.4z"></path> <path d="M87.9,104.4c0-0.4-0.7-2-1.1-2.1c0-0.1,0-0.2-0.1-0.3c0-0.1,0-0.2-0.1-0.4v-0.1c0-0.1-0.1-0.3-0.3-0.3 c-0.2-0.3-0.2-0.5-0.3-0.8c-0.1-0.5-0.3-1-0.6-1.3l-0.3-0.2c-0.2-0.1-0.4-0.3-0.5-0.4c-0.1-0.3-0.1-0.6-0.1-0.9v-0.2 c0-0.4,0-0.8-0.2-1.1c-0.1-0.2-0.2-0.5-0.1-0.8c0.1-0.3,0.1-0.7-0.1-1c0,0,0-0.1-0.1-0.1c0-0.1-0.1-0.2-0.2-0.2 c-0.1,0-0.1,0-0.2,0c-0.1-0.1-0.2-0.1-0.3-0.2c-0.2-0.1-0.2-1-0.3-1.6c0-0.9-0.1-1.7-0.5-1.7l0,0c-0.3,0-0.5,0.5-0.6,0.8 c0,0.1,0,0.1-0.1,0.2c0,0.1-0.1,0.2-0.1,0.2c-0.2,0.4-0.4,0.8-0.6,1.2c-0.2,0.5-0.4,1-0.4,1.5c-0.1,0.6-0.3,1.1-0.8,1.5 c-0.1,0.1-0.2,0.2-0.3,0.2c-0.1,0.2-0.3,0.2-0.5,0.2c-0.4-0.1-0.7-0.3-1-0.6l-0.2-0.2l-0.2-0.2c-0.2-0.1-0.3-0.2-0.5-0.3 c-0.1-0.1-0.2-0.2-0.3-0.3c-0.2-0.3-0.5-0.5-0.8-0.6c-0.5-0.2-1-0.7-1-1c0-0.3,0.1-0.5,0.3-0.6l0,0c0.1-0.1,0.2-0.3,0.3-0.5 L76,92h0.2c0.3,0,0.5-0.1,0.5-0.4c0,0,0-0.1,0-0.1c0-0.1,0-0.2,0-0.2c0-0.1,0-0.2,0-0.3c-0.1-0.1-0.1-0.1-0.2-0.1h-0.6 c0,0,0,0,0-0.1s-0.3-0.2-0.4-0.2c-0.2,0-0.4-0.1-0.5-0.2c-0.4-0.4-1-0.7-1.7-0.8h-0.1c-0.1,0-0.2,0.1-0.2,0.2c0,0,0,0-0.1,0.1 c0,0.1-0.1,0.1-0.1,0.2v0.1c-0.1,0-0.1,0-0.2,0c-0.2,0-0.3,0-0.5-0.1c-0.2-0.1-0.4-0.1-0.6-0.1h-0.1c-0.4,0.1-0.7,0.3-1,0.7 c-0.1,0.1-0.3,0.3-0.4,0.4c-0.3,0.1-0.4,0.4-0.4,0.7c0,0.1,0,0.2,0,0.3c0,0.1,0,0.2,0,0.2h-0.1c-0.1,0-0.1,0-0.2-0.1 c-0.2-0.1-0.4-0.2-0.7-0.2c-0.2,0-0.3,0.1-0.4,0.2L68.1,92c-0.1-0.1-0.1-0.3-0.2-0.4c-0.2-0.4-0.3-0.7-0.7-0.7 c-0.1,0-0.1,0-0.2,0L66.5,91c-0.9,0.2-1.2,0.3-1.2,0.4c0,0.1,0,0.1,0,0.2l0,0c0,0-0.1,0-0.1,0H65c-0.3,0.1-0.5,0.2-0.7,0.8 c-0.1,0-0.1,0-0.2,0c-0.2,0-0.3,0-0.4,0.1c-0.1,0.1-0.2,0.3-0.2,0.5c0,0,0,0.1,0,0.1c-0.1,0-0.1,0.1-0.1,0.1l0,0h0 c-0.1-0.1-0.1-0.2-0.1-0.3c0-0.2-0.1-0.4-0.3-0.4c-0.1,0-0.1,0-0.2,0.1c-0.1,0-0.1,0.1-0.2,0.1c-0.4,0.1-0.6,0.5-0.5,0.9 c0,0,0,0,0,0c0,0.1,0,0.2,0.1,0.3l0,0c-0.2,0.1-0.4,0.3-0.6,0.5c-0.2,0.3-0.5,0.4-0.9,0.5h-1.7c-0.2,0-0.4,0.1-0.4,0.2 c-0.2,0-0.4,0.1-0.6,0.1h-0.2l-0.2-0.1C57.1,95,56.9,95,56.6,95c-0.2,0-0.3,0-0.5,0.1c-0.2,0.1-0.5,0.2-0.7,0.4 c-0.1,0-0.1,0-0.2,0c-0.2,0-0.3,0.1-0.5,0.2c-0.1,0.1-0.1,0.1-0.1,0.2l0,0h-0.1c-0.2-0.1-0.4,0-0.6,0.1 c-0.1,0.1-0.1,0.2-0.1,0.3c0,0.1,0,0.2,0,0.3c0,0.1,0,0.2-0.1,0.3c-0.1,0.1-0.1,0.3-0.2,0.4c0,0.1-0.1,0.2-0.1,0.2 c-0.2,0.2-0.1,0.3,0.1,0.6c0.1,0.1,0.2,0.3,0.3,0.4c0.2,0.1,0.3,0.3,0.2,0.5c0,0.1,0,0.2-0.1,0.2c-0.2,0.1-0.3,0.2-0.2,0.6 c0,0.2,0.1,0.3,0.1,0.5c0,0.2,0.1,0.4,0.3,0.6c0.2,0.2,0.4,0.5,0.5,0.9c0,0.1,0,0.2,0,0.3c0,0.3,0,0.5,0.1,0.7l0.1,0.1 c0.2,0.2,0.6,0.8,0.5,1.2c0,0.3-0.1,0.6-0.1,0.9c-0.2,0-0.4,0.1-0.5,0.2c-0.1,0.2,0,0.4,0.1,0.5c0.3,0.3,0.7,0.5,1.1,0.6 l0.3,0.1c0.3,0.3,0.6,0.4,1,0.2c0.3-0.1,0.6-0.2,0.9-0.3c0.2-0.1,0.4-0.2,0.5-0.2c0.5,0,1,0,1.5,0.2h0.1 c0.2,0.1,0.5,0.1,0.8,0.2c0.5,0,0.9-0.2,1.3-0.5c0.4-0.2,0.8-0.2,1.2-0.2c0.2,0,0.4,0,0.6,0.1c0.7,0.1,1.4,0.1,2.1-0.1 c0.8-0.1,1.6,0.1,2.3,0.4c0.4,0.3,0.9,0.4,1.3,0.5l0.4,0.1c0.2,0.4,0.4,0.8,0.7,1.1c0,0.3,0.1,0.5,0.2,0.8 c0.1,0.1,0.1,0.1,0.2,0.1c0.1-0.1,0.2-0.1,0.3-0.2c0.1-0.1,0.3-0.3,0.3-0.3h0.5c0,0,0.1,0,0.1,0l0.6-0.4h0.1c0,0,0,0.1,0,0.1 s0.1,0.3-0.1,0.4c-0.1,0.1-0.2,0.1-0.3,0.2c-0.2,0.1-0.4,0.2-0.4,0.4c0,0.1,0.1,0.2,0.2,0.2c0.2,0.1,0.5,0.1,0.7-0.1l0,0 c0.1,0.1,0,0.1,0,0.3l0,0c-0.1,0.2-0.1,0.3,0.1,0.5l0.1,0.1c0.1,0.1,0.2,0.1,0.2,0.1c0.1,0.1,0.2,0.1,0.2,0.2c0,0.1,0,0.2,0,0.3 c-0.1,0.2,0,0.3,0.1,0.4c0,0,0,0.1,0,0.1c0.1,0.3,0.3,0.7,1.3,0.9l0.3,0.2c0.4,0.2,0.4,0.2,0.6,0.2c0.1,0,0.3-0.1,0.4-0.2 c0.1-0.1,0.3-0.2,0.5-0.2c0.2,0.1,0.3,0.1,0.4,0.3c0.2,0.2,0.5,0.3,0.7,0.3h0.1c0.2,0,0.5-0.1,0.7-0.3c0.1-0.1,0.2-0.1,0.3-0.1 h0.1c0.2,0,0.4,0,0.6,0c0.5,0,1-0.1,1.4-0.5l0.6-0.7c0.4-0.5,0.9-0.9,1.5-1.3h0.3c0.3,0,0.6-0.1,0.8-0.3 c0.9-0.9,1.8-1.9,2.6-2.9l0,0c0.1-0.7,0.1-0.9,0-1.1s0.1-0.2,0.1-0.2c0.2-0.3,0.3-0.6,0.3-0.9"></path> <path class="st0" d="M87.9,104.4c0-0.4-0.7-2-1.1-2.1c0-0.1,0-0.2-0.1-0.3c0-0.1,0-0.2-0.1-0.4v-0.1c0-0.1-0.1-0.3-0.3-0.3 c-0.2-0.3-0.2-0.5-0.3-0.8c-0.1-0.5-0.3-1-0.6-1.3l-0.3-0.2c-0.2-0.1-0.4-0.3-0.5-0.4c-0.1-0.3-0.1-0.6-0.1-0.9v-0.2 c0-0.4,0-0.8-0.2-1.1c-0.1-0.2-0.2-0.5-0.1-0.8c0.1-0.3,0.1-0.7-0.1-1c0,0,0-0.1-0.1-0.1c0-0.1-0.1-0.2-0.2-0.2 c-0.1,0-0.1,0-0.2,0c-0.1-0.1-0.2-0.1-0.3-0.2c-0.2-0.1-0.2-1-0.3-1.6c0-0.9-0.1-1.7-0.5-1.7l0,0c-0.3,0-0.5,0.5-0.6,0.8 c0,0.1,0,0.1-0.1,0.2c0,0.1-0.1,0.2-0.1,0.2c-0.2,0.4-0.4,0.8-0.6,1.2c-0.2,0.5-0.4,1-0.4,1.5c-0.1,0.6-0.3,1.1-0.8,1.5 c-0.1,0.1-0.2,0.2-0.3,0.2c-0.1,0.2-0.3,0.2-0.5,0.2c-0.4-0.1-0.7-0.3-1-0.6l-0.2-0.2l-0.2-0.2c-0.2-0.1-0.3-0.2-0.5-0.3 c-0.1-0.1-0.2-0.2-0.3-0.3c-0.2-0.3-0.5-0.5-0.8-0.6c-0.5-0.2-1-0.7-1-1c0-0.3,0.1-0.5,0.3-0.6l0,0c0.1-0.1,0.2-0.3,0.3-0.5 L76,92h0.2c0.3,0,0.5-0.1,0.5-0.4c0,0,0-0.1,0-0.1c0-0.1,0-0.2,0-0.2c0-0.1,0-0.2,0-0.3c-0.1-0.1-0.1-0.1-0.2-0.1h-0.6 c0,0,0,0,0-0.1s-0.3-0.2-0.4-0.2c-0.2,0-0.4-0.1-0.5-0.2c-0.4-0.4-1-0.7-1.7-0.8h-0.1c-0.1,0-0.2,0.1-0.2,0.2c0,0,0,0-0.1,0.1 c0,0.1-0.1,0.1-0.1,0.2v0.1c-0.1,0-0.1,0-0.2,0c-0.2,0-0.3,0-0.5-0.1c-0.2-0.1-0.4-0.1-0.6-0.1h-0.1c-0.4,0.1-0.7,0.3-1,0.7 c-0.1,0.1-0.3,0.3-0.4,0.4c-0.3,0.1-0.4,0.4-0.4,0.7c0,0.1,0,0.2,0,0.3c0,0.1,0,0.2,0,0.2h-0.1c-0.1,0-0.1,0-0.2-0.1 c-0.2-0.1-0.4-0.2-0.7-0.2c-0.2,0-0.3,0.1-0.4,0.2L68.1,92c-0.1-0.1-0.1-0.3-0.2-0.4c-0.2-0.4-0.3-0.7-0.7-0.7 c-0.1,0-0.1,0-0.2,0L66.5,91c-0.9,0.2-1.2,0.3-1.2,0.4c0,0.1,0,0.1,0,0.2l0,0c0,0-0.1,0-0.1,0H65c-0.3,0.1-0.5,0.2-0.7,0.8 c-0.1,0-0.1,0-0.2,0c-0.2,0-0.3,0-0.4,0.1c-0.1,0.1-0.2,0.3-0.2,0.5c0,0,0,0.1,0,0.1c-0.1,0-0.1,0.1-0.1,0.1l0,0h0 c-0.1-0.1-0.1-0.2-0.1-0.3c0-0.2-0.1-0.4-0.3-0.4c-0.1,0-0.1,0-0.2,0.1c-0.1,0-0.1,0.1-0.2,0.1c-0.4,0.1-0.6,0.5-0.5,0.9 c0,0,0,0,0,0c0,0.1,0,0.2,0.1,0.3l0,0c-0.2,0.1-0.4,0.3-0.6,0.5c-0.2,0.3-0.5,0.4-0.9,0.5h-1.7c-0.2,0-0.4,0.1-0.4,0.2 c-0.2,0-0.4,0.1-0.6,0.1h-0.2l-0.2-0.1C57.1,95,56.9,95,56.6,95c-0.2,0-0.3,0-0.5,0.1c-0.2,0.1-0.5,0.2-0.7,0.4 c-0.1,0-0.1,0-0.2,0c-0.2,0-0.3,0.1-0.5,0.2c-0.1,0.1-0.1,0.1-0.1,0.2l0,0h-0.1c-0.2-0.1-0.4,0-0.6,0.1 c-0.1,0.1-0.1,0.2-0.1,0.3c0,0.1,0,0.2,0,0.3c0,0.1,0,0.2-0.1,0.3c-0.1,0.1-0.1,0.3-0.2,0.4c0,0.1-0.1,0.2-0.1,0.2 c-0.2,0.2-0.1,0.3,0.1,0.6c0.1,0.1,0.2,0.3,0.3,0.4c0.2,0.1,0.3,0.3,0.2,0.5c0,0.1,0,0.2-0.1,0.2c-0.2,0.1-0.3,0.2-0.2,0.6 c0,0.2,0.1,0.3,0.1,0.5c0,0.2,0.1,0.4,0.3,0.6c0.2,0.2,0.4,0.5,0.5,0.9c0,0.1,0,0.2,0,0.3c0,0.3,0,0.5,0.1,0.7l0.1,0.1 c0.2,0.2,0.6,0.8,0.5,1.2c0,0.3-0.1,0.6-0.1,0.9c-0.2,0-0.4,0.1-0.5,0.2c-0.1,0.2,0,0.4,0.1,0.5c0.3,0.3,0.7,0.5,1.1,0.6 l0.3,0.1c0.3,0.3,0.6,0.4,1,0.2c0.3-0.1,0.6-0.2,0.9-0.3c0.2-0.1,0.4-0.2,0.5-0.2c0.5,0,1,0,1.5,0.2h0.1 c0.2,0.1,0.5,0.1,0.8,0.2c0.5,0,0.9-0.2,1.3-0.5c0.4-0.2,0.8-0.2,1.2-0.2c0.2,0,0.4,0,0.6,0.1c0.7,0.1,1.4,0.1,2.1-0.1 c0.8-0.1,1.6,0.1,2.3,0.4c0.4,0.3,0.9,0.4,1.3,0.5l0.4,0.1c0.2,0.4,0.4,0.8,0.7,1.1c0,0.3,0.1,0.5,0.2,0.8 c0.1,0.1,0.1,0.1,0.2,0.1c0.1-0.1,0.2-0.1,0.3-0.2c0.1-0.1,0.3-0.3,0.3-0.3h0.5c0,0,0.1,0,0.1,0l0.6-0.4h0.1c0,0,0,0.1,0,0.1 s0.1,0.3-0.1,0.4c-0.1,0.1-0.2,0.1-0.3,0.2c-0.2,0.1-0.4,0.2-0.4,0.4c0,0.1,0.1,0.2,0.2,0.2c0.2,0.1,0.5,0.1,0.7-0.1l0,0 c0.1,0.1,0,0.1,0,0.3l0,0c-0.1,0.2-0.1,0.3,0.1,0.5l0.1,0.1c0.1,0.1,0.2,0.1,0.2,0.1c0.1,0.1,0.2,0.1,0.2,0.2c0,0.1,0,0.2,0,0.3 c-0.1,0.2,0,0.3,0.1,0.4c0,0,0,0.1,0,0.1c0.1,0.3,0.3,0.7,1.3,0.9l0.3,0.2c0.4,0.2,0.4,0.2,0.6,0.2c0.1,0,0.3-0.1,0.4-0.2 c0.1-0.1,0.3-0.2,0.5-0.2c0.2,0.1,0.3,0.1,0.4,0.3c0.2,0.2,0.5,0.3,0.7,0.3h0.1c0.2,0,0.5-0.1,0.7-0.3c0.1-0.1,0.2-0.1,0.3-0.1 h0.1c0.2,0,0.4,0,0.6,0c0.5,0,1-0.1,1.4-0.5l0.6-0.7c0.4-0.5,0.9-0.9,1.5-1.3h0.3c0.3,0,0.6-0.1,0.8-0.3 c0.9-0.9,1.8-1.9,2.6-2.9l0,0c0.1-0.7,0.1-0.9,0-1.1s0.1-0.2,0.1-0.2C87.7,105.2,87.9,104.8,87.9,104.4z"></path> <path d="M94,115.6L94,115.6c0-0.1-0.1-0.1-0.2-0.1c0,0,0,0,0-0.1c0-0.1-0.1-0.1-0.1-0.1h-0.1c0,0-0.1,0-0.1,0 c-0.2,0.1-0.7,0.5-0.9,0.6l-0.2,0.1c-0.2,0.1-0.4,0.2-0.6,0.3l-0.2,0.1c-0.1,0.1-0.1,0.1-0.3,0.1c-0.4,0-0.8,0.1-1.1,0.3 c-0.1,0-0.2,0.1-0.3,0.1c-0.2,0.1-0.4,0.1-0.6,0.2c-0.2,0.1-0.4,0.1-0.5,0.2c-0.8,0.2-1.2,0.4-1.2,0.6c0,0.2,0.1,0.3,0.3,0.4 l0.2,0.1c0.1,0.1,0.3,0.2,0.5,0.2h0.1c0.3-0.1,0.6-0.3,0.9-0.4c0.6-0.4,1.2-0.6,1.8-0.9h0.1c0.4,0,0.5-0.1,0.7-0.2l0.1-0.1 c0.2-0.2,0.5-0.3,0.8-0.4c0.2,0,1-0.5,1-0.8C94.1,115.7,94.1,115.6,94,115.6"></path> <path class="st0" d="M94,115.6L94,115.6c0-0.1-0.1-0.1-0.2-0.1c0,0,0,0,0-0.1c0-0.1-0.1-0.1-0.1-0.1h-0.1c0,0-0.1,0-0.1,0 c-0.2,0.1-0.7,0.5-0.9,0.6l-0.2,0.1c-0.2,0.1-0.4,0.2-0.6,0.3l-0.2,0.1c-0.1,0.1-0.1,0.1-0.3,0.1c-0.4,0-0.8,0.1-1.1,0.3 c-0.1,0-0.2,0.1-0.3,0.1c-0.2,0.1-0.4,0.1-0.6,0.2c-0.2,0.1-0.4,0.1-0.5,0.2c-0.8,0.2-1.2,0.4-1.2,0.6c0,0.2,0.1,0.3,0.3,0.4 l0.2,0.1c0.1,0.1,0.3,0.2,0.5,0.2h0.1c0.3-0.1,0.6-0.3,0.9-0.4c0.6-0.4,1.2-0.6,1.8-0.9h0.1c0.4,0,0.5-0.1,0.7-0.2l0.1-0.1 c0.2-0.2,0.5-0.3,0.8-0.4c0.2,0,1-0.5,1-0.8C94.2,115.7,94.1,115.6,94,115.6z"></path> <path d="M98.1,113.4c-0.1,0-0.3,0.1-0.4,0.2l-0.2,0.1c-0.1,0-0.3,0-0.4-0.1c0-0.1,0.1-0.2,0.1-0.3c0-0.1,0-0.2-0.1-0.2 c0,0,0,0,0,0c0,0-0.1,0-0.1,0c0-0.1,0-0.1-0.1-0.2c-0.1,0-0.2,0-0.2,0.1c0,0,0,0,0,0c-0.1,0.2-0.3,0.4-0.4,0.7 c-0.1,0.1-0.7,0.4-0.8,0.5h-0.2c-0.2,0-0.4,0.1-0.5,0.2c0,0.1,0,0.1,0,0.2c0,0.1,0.1,0.2,0.1,0.2l0.1,0.1 c-0.1,0.1-0.3,0.2-0.4,0.2c-0.2,0.1-0.3,0.2-0.4,0.3c0,0.1,0,0.2,0,0.2c0,0.1,0.1,0.1,0.2,0.1l0,0c0.4-0.1,0.8-0.3,1.1-0.6 c0.4-0.3,0.7-0.6,1.2-0.8c0.5-0.2,1-0.5,1.4-0.9C98.3,113.6,98.3,113.5,98.1,113.4C98.2,113.4,98.1,113.3,98.1,113.4"></path> <path class="st0" d="M98.1,113.4c-0.1,0-0.3,0.1-0.4,0.2l-0.2,0.1c-0.1,0-0.3,0-0.4-0.1c0-0.1,0.1-0.2,0.1-0.3 c0-0.1,0-0.2-0.1-0.2c0,0,0,0,0,0c0,0-0.1,0-0.1,0c0-0.1,0-0.1-0.1-0.2c-0.1,0-0.2,0-0.2,0.1c0,0,0,0,0,0 c-0.1,0.2-0.3,0.4-0.4,0.7c-0.1,0.1-0.7,0.4-0.8,0.5h-0.2c-0.2,0-0.4,0.1-0.5,0.2c0,0.1,0,0.1,0,0.2c0,0.1,0.1,0.2,0.1,0.2 l0.1,0.1c-0.1,0.1-0.3,0.2-0.4,0.2c-0.2,0.1-0.3,0.2-0.4,0.3c0,0.1,0,0.2,0,0.2c0,0.1,0.1,0.1,0.2,0.1l0,0 c0.4-0.1,0.8-0.3,1.1-0.6c0.4-0.3,0.7-0.6,1.2-0.8c0.5-0.2,1-0.5,1.4-0.9C98.3,113.6,98.3,113.5,98.1,113.4 C98.2,113.4,98.2,113.4,98.1,113.4z"></path> <path d="M97.1,111.7C97.1,111.7,97.1,111.8,97.1,111.7L97.1,111.7c-0.2,0.2-0.3,0.5-0.2,0.7c0,0,0,0,0,0 c0.1,0.2,0.2,0.3,0.4,0.3l0,0c0.1,0,0.2-0.1,0.3-0.2c0.1-0.2,0-0.8-0.2-0.9C97.3,111.6,97.2,111.6,97.1,111.7"></path> <path class="st0" d="M97.1,111.7C97.1,111.7,97.1,111.8,97.1,111.7L97.1,111.7c-0.2,0.2-0.3,0.5-0.2,0.7c0,0,0,0,0,0 c0.1,0.2,0.2,0.3,0.4,0.3l0,0c0.1,0,0.2-0.1,0.3-0.2c0.1-0.2,0-0.8-0.2-0.9C97.3,111.6,97.2,111.6,97.1,111.7z"></path> <path d="M78.8,114.3c-0.3-0.1-0.5-0.1-0.8-0.1c-0.2,0-0.3,0-0.5,0.1c-0.2-0.2-0.5-0.3-0.8-0.3c-0.1,0-0.2,0-0.3,0.1 c-0.2,0.2-0.2,0.4-0.1,0.7c0,0.1,0,0.2,0,0.2v0.1c-0.1,0.2-0.1,0.4,0.1,0.6c0,0,0.1,0.1,0.1,0.1c0.1,0.1,0.2,0.2,0.4,0.2h0.2 c0.3-0.1,0.5-0.2,0.8-0.4l0.2-0.1c0.2-0.1,0.9-0.6,0.9-1C79.1,114.5,79,114.4,78.8,114.3"></path> <path class="st0" d="M78.8,114.3c-0.3-0.1-0.5-0.1-0.8-0.1c-0.2,0-0.3,0-0.5,0.1c-0.2-0.2-0.5-0.3-0.8-0.3c-0.1,0-0.2,0-0.3,0.1 c-0.2,0.2-0.2,0.4-0.1,0.7c0,0.1,0,0.2,0,0.2v0.1c-0.1,0.2-0.1,0.4,0.1,0.6c0,0,0.1,0.1,0.1,0.1c0.1,0.1,0.2,0.2,0.4,0.2h0.2 c0.3-0.1,0.5-0.2,0.8-0.4l0.2-0.1c0.2-0.1,0.9-0.6,0.9-1C79.1,114.5,79,114.3,78.8,114.3z"></path> <path d="M73.7,80c0,0.1,0.1,0.2,0.2,0.3l0,0c0.2,0.2,0.4,0.4,0.7,0.5c0.2,0,0.4,0.1,0.5,0.2s-0.2,0.1-0.4,0.2s-0.5,0.1-0.4,0.4 c0,0.1,0.1,0.2,0.2,0.3c0,0,0.1,0,0.1,0.1c0,0.1,0,0.2,0,0.3c0,0.1,0,0.1,0,0.2c0,0,0,0,0,0.1c0,0.1,0,0.4,0.3,0.4 c0.2,0,0.3-0.1,0.4-0.2l0.2-0.1c0.2-0.1,0.4,0,0.6,0.2l0.2,0.2c0.1,0.2,0.4,0.4,0.6,0.4c0.4,0.1,0.8,0.2,1.2,0.4l0.3,0.2 c0.3,0.2,1,0.6,1,0.8c0,0.1,0,0.2,0.1,0.3c0.1,0.3,0.4,1.1,0.2,1.3c-0.1,0.1-0.3,0.2-0.4,0.3c-0.3,0.2-0.5,0.3-0.5,0.5 c0,0.1,0,0.2,0.1,0.2c0.2,0.2,0.5,0.2,0.8,0.2c0.2,0,0.4,0,0.5,0h0.3c0.3,0,0.3,0.1,0.4,0.2l0.3,0.4c0.2,0.2,0.3,0.4,0.4,0.5 c0.1,0.2,0.3,0.3,0.6,0.3h0.1c0.1,0,0.2,0,0.4,0c0.1,0,0.2,0,0.3,0.1c0.2,0.2,0.5,0.2,0.8,0.1c0.3-0.1,0.4-0.3,0.4-0.6 c0-0.2,0.3-0.3,0.3-0.3c0.1,0,0.2-0.1,0.3-0.1c0.1-0.1,0.3-0.2,0.5-0.2c0.1,0,0.1,0,0.2,0v0.1c0.2,0.2,0.4,0.3,0.7,0.4 c0.1,0,0.3,0.1,0.4,0.1v-0.2v0.2c0,0,0,0,0.1,0.1c0.1,0.2,0.2,0.3,0.3,0.5c0.1,0.3,0.2,0.5,0.3,0.6c0.1,0.1,0.1,0.1,0.2,0.2 c0.1,0.1,0.1,0.2,0.2,0.3c0.1,0.1,0.1,0.1,0.1,0.2c0,0.1,0.1,0.2,0.2,0.2c0.3,0.1,0.6,0.2,0.9,0.2c0.3,0,0.6,0.2,0.8,0.4 c0.1,0.1,0.2,0.2,0.4,0.2c0.1,0,0.2,0,0.2-0.1c0.1-0.1,0.1-0.2,0-0.3c-0.3-0.5-0.7-1-1.1-1.5c-0.1-0.1-0.2-0.3-0.2-0.5 c0-0.1,0-0.1-0.5-0.8L88,87.7l-0.1-0.1c0,0-0.1-0.1-0.1-0.1h0.1c0.1,0,0.2,0,0.3,0h0.3c0.1,0,0.4,0,0.4-0.2s-0.1-0.3-0.1-0.4 c-0.3-0.2-0.6-0.5-1-0.6c-0.2-0.1-0.4-0.2-0.6-0.3c0,0,0-0.1,0-0.1c0.1-0.2,0.1-0.5-0.2-0.7c-0.8-0.7-1.7-1.3-2.7-1.8 c-0.2-0.1-0.5-0.2-0.7-0.4c-0.2-0.2-0.5-0.4-0.7-0.5c-0.4-0.1-0.8-0.3-1.2-0.5l-0.2-0.2c-0.4-0.3-1.1-0.9-1.5-0.8 c-0.7,0.3-1.3,0.6-1.9,1l-0.5,0.3c-0.1,0.1-0.3,0.1-0.4,0.1c-0.4,0-0.8-0.3-1-1c0-0.1,0.1-0.4,0.1-0.7s0.1-0.5,0.1-0.6 c0-0.3-1.5-1-1.8-1h-0.1c-0.4,0.1-0.7,0.2-1.1,0.3c-0.1,0-0.1,0.1-0.2,0.2c0,0.2,0.1,0.3,0.2,0.4c0.1,0,0.2,0.1,0.2,0.2"></path> <path class="st0" d="M73.7,80c0,0.1,0.1,0.2,0.2,0.3l0,0c0.2,0.2,0.4,0.4,0.7,0.5c0.2,0,0.4,0.1,0.5,0.2s-0.2,0.1-0.4,0.2 s-0.5,0.1-0.4,0.4c0,0.1,0.1,0.2,0.2,0.3c0,0,0.1,0,0.1,0.1c0,0.1,0,0.2,0,0.3c0,0.1,0,0.1,0,0.2c0,0,0,0,0,0.1 c0,0.1,0,0.4,0.3,0.4c0.2,0,0.3-0.1,0.4-0.2l0.2-0.1c0.2-0.1,0.4,0,0.6,0.2l0.2,0.2c0.1,0.2,0.4,0.4,0.6,0.4 c0.4,0.1,0.8,0.2,1.2,0.4l0.3,0.2c0.3,0.2,1,0.6,1,0.8c0,0.1,0,0.2,0.1,0.3c0.1,0.3,0.4,1.1,0.2,1.3c-0.1,0.1-0.3,0.2-0.4,0.3 c-0.3,0.2-0.5,0.3-0.5,0.5c0,0.1,0,0.2,0.1,0.2c0.2,0.2,0.5,0.2,0.8,0.2c0.2,0,0.4,0,0.5,0h0.3c0.3,0,0.3,0.1,0.4,0.2l0.3,0.4 c0.2,0.2,0.3,0.4,0.4,0.5c0.1,0.2,0.3,0.3,0.6,0.3h0.1c0.1,0,0.2,0,0.4,0c0.1,0,0.2,0,0.3,0.1c0.2,0.2,0.5,0.2,0.8,0.1 c0.3-0.1,0.4-0.3,0.4-0.6c0-0.2,0.3-0.3,0.3-0.3c0.1,0,0.2-0.1,0.3-0.1c0.1-0.1,0.3-0.2,0.5-0.2c0.1,0,0.1,0,0.2,0v0.1 c0.2,0.2,0.4,0.3,0.7,0.4c0.1,0,0.3,0.1,0.4,0.1v-0.2v0.2c0,0,0,0,0.1,0.1c0.1,0.2,0.2,0.3,0.3,0.5c0.1,0.3,0.2,0.5,0.3,0.6 c0.1,0.1,0.1,0.1,0.2,0.2c0.1,0.1,0.1,0.2,0.2,0.3c0.1,0.1,0.1,0.1,0.1,0.2c0,0.1,0.1,0.2,0.2,0.2c0.3,0.1,0.6,0.2,0.9,0.2 c0.3,0,0.6,0.2,0.8,0.4c0.1,0.1,0.2,0.2,0.4,0.2c0.1,0,0.2,0,0.2-0.1c0.1-0.1,0.1-0.2,0-0.3c-0.3-0.5-0.7-1-1.1-1.5 c-0.1-0.1-0.2-0.3-0.2-0.5c0-0.1,0-0.1-0.5-0.8L88,87.7l-0.1-0.1c0,0-0.1-0.1-0.1-0.1h0.1c0.1,0,0.2,0,0.3,0h0.3 c0.1,0,0.4,0,0.4-0.2s-0.1-0.3-0.1-0.4c-0.3-0.2-0.6-0.5-1-0.6c-0.2-0.1-0.4-0.2-0.6-0.3c0,0,0-0.1,0-0.1 c0.1-0.2,0.1-0.5-0.2-0.7c-0.8-0.7-1.7-1.3-2.7-1.8c-0.2-0.1-0.5-0.2-0.7-0.4c-0.2-0.2-0.5-0.4-0.7-0.5 c-0.4-0.1-0.8-0.3-1.2-0.5l-0.2-0.2c-0.4-0.3-1.1-0.9-1.5-0.8c-0.7,0.3-1.3,0.6-1.9,1l-0.5,0.3c-0.1,0.1-0.3,0.1-0.4,0.1 c-0.4,0-0.8-0.3-1-1c0-0.1,0.1-0.4,0.1-0.7s0.1-0.5,0.1-0.6c0-0.3-1.5-1-1.8-1h-0.1c-0.4,0.1-0.7,0.2-1.1,0.3 c-0.1,0-0.1,0.1-0.2,0.2c0,0.2,0.1,0.3,0.2,0.4C73.5,80,73.6,80,73.7,80z"></path> <path d="M89.6,86.2c0,0.1,0,0.1,0,0.2c0.1,0.3,0.3,0.5,0.5,0.6l0.2,0.1l0.3,0.1c0.1,0,0.1,0.1,0.2,0.1c0.6,0,1.2-0.2,1.7-0.5 c0.3-0.2,0.5-0.4,0.7-0.6l0,0c0.1-0.2,0.2-0.4,0.1-0.6c-0.1-0.2-0.2-0.3-0.4-0.2c-0.2,0-0.4,0.2-0.4,0.4v0.1 c-0.2,0.1-0.3,0.3-0.5,0.4l-0.2,0.1c-0.1,0-0.3,0-0.4,0h-0.2c-0.2,0-0.8-0.1-0.8-0.1l0,0h-0.1c-0.2-0.1-0.4-0.1-0.6-0.1 C89.7,86.2,89.6,86.2,89.6,86.2"></path> <path class="st0" d="M89.6,86.2c0,0.1,0,0.1,0,0.2c0.1,0.3,0.3,0.5,0.5,0.6l0.2,0.1l0.3,0.1c0.1,0,0.1,0.1,0.2,0.1 c0.6,0,1.2-0.2,1.7-0.5c0.3-0.2,0.5-0.4,0.7-0.6l0,0c0.1-0.2,0.2-0.4,0.1-0.6c-0.1-0.2-0.2-0.3-0.4-0.2c-0.2,0-0.4,0.2-0.4,0.4 v0.1c-0.2,0.1-0.3,0.3-0.5,0.4l-0.2,0.1c-0.1,0-0.3,0-0.4,0h-0.2c-0.2,0-0.8-0.1-0.8-0.1l0,0h-0.1c-0.2-0.1-0.4-0.1-0.6-0.1 C89.7,86.1,89.6,86.2,89.6,86.2z"></path> <path d="M95.5,87.2c0,0-0.1,0-0.1,0c-0.1,0-0.1,0.1-0.1,0.2c0,0.1,0,0.2,0.1,0.3c0,0.1,0.1,0.2,0.1,0.3c0,0.1,0.1,0.3,0.2,0.4 l0,0c0.1,0.1,0.2,0.1,0.3,0.2c0.1,0,0.1,0,0.2-0.1c0.1-0.1,0.1-0.2,0-0.4C96,87.7,95.7,87.3,95.5,87.2"></path> <path class="st0" d="M95.5,87.2c0,0-0.1,0-0.1,0c-0.1,0-0.1,0.1-0.1,0.2c0,0.1,0,0.2,0.1,0.3c0,0.1,0.1,0.2,0.1,0.3 c0,0.1,0.1,0.3,0.2,0.4l0,0c0.1,0.1,0.2,0.1,0.3,0.2c0.1,0,0.1,0,0.2-0.1c0.1-0.1,0.1-0.2,0-0.4C96,87.7,95.8,87.4,95.5,87.2z"></path> <path d="M75.9,84.4c-0.1,0-0.1,0-0.2,0c-0.2,0.1-0.3,0.3-0.4,0.5c-0.1,0.1-0.1,0.3-0.1,0.4c0,0,0,0.1,0,0.1 c0,0.1,0.1,0.2,0.4,0.2c0.3,0,0.5-0.2,0.6-0.4c0,0,0-0.1,0-0.1c0-0.1,0-0.2,0-0.3C76.2,84.6,76.2,84.5,75.9,84.4L75.9,84.4"></path> <path class="st0" d="M75.9,84.4c-0.1,0-0.1,0-0.2,0c-0.2,0.1-0.3,0.3-0.4,0.5c-0.1,0.1-0.1,0.3-0.1,0.4c0,0,0,0.1,0,0.1 c0,0.1,0.1,0.2,0.4,0.2c0.3,0,0.5-0.2,0.6-0.4c0,0,0-0.1,0-0.1c0-0.1,0-0.2,0-0.3C76.2,84.6,76.2,84.5,75.9,84.4z"></path> <path d="M70.5,80.7c-0.1-0.1-0.3-0.1-0.4,0c-0.1,0.1-0.2,0.2-0.2,0.3c0.1,0.2,0.2,0.3,0.4,0.3c0.2,0,0.4,0,0.5,0 c0.1,0,0.2,0,0.3,0.1c0.1,0,0.2,0,0.4,0c0.1,0,0.1,0,0.1,0c0.2,0.2,0.4,0.3,0.6,0.4h0.1c0.2,0,0.4-0.1,0.4-0.2 c0-0.1,0-0.2-0.1-0.3c-0.2-0.1-0.3-0.2-0.5-0.3c-0.1,0-0.2-0.1-0.3-0.2c-0.1-0.1-0.2-0.2-0.6-0.2c-0.2,0-0.5,0-0.7-0.1"></path> <path class="st0" d="M70.5,80.7c-0.1-0.1-0.3-0.1-0.4,0c-0.1,0.1-0.2,0.2-0.2,0.3c0.1,0.2,0.2,0.3,0.4,0.3c0.2,0,0.4,0,0.5,0 c0.1,0,0.2,0,0.3,0.1c0.1,0,0.2,0,0.4,0c0.1,0,0.1,0,0.1,0c0.2,0.2,0.4,0.3,0.6,0.4h0.1c0.2,0,0.4-0.1,0.4-0.2 c0-0.1,0-0.2-0.1-0.3c-0.2-0.1-0.3-0.2-0.5-0.3c-0.1,0-0.2-0.1-0.3-0.2c-0.1-0.1-0.2-0.2-0.6-0.2C71,80.7,70.7,80.7,70.5,80.7z"></path> <path d="M68.8,80.7c-0.2-0.1-0.3-0.1-0.5-0.1c-0.2,0.1-0.3,0.1-0.4,0.2c0,0.1,0,0.2,0.1,0.2l0,0c0.1,0.1,0.3,0.2,0.4,0.3h0.1 c0.2,0,0.3-0.1,0.4-0.3C69,80.9,68.8,80.7,68.8,80.7"></path> <path class="st0" d="M68.8,80.7c-0.2-0.1-0.3-0.1-0.5-0.1c-0.2,0.1-0.3,0.1-0.4,0.2c0,0.1,0,0.2,0.1,0.2l0,0 c0.1,0.1,0.3,0.2,0.4,0.3h0.1c0.2,0,0.3-0.1,0.4-0.3C69.1,81,68.8,80.8,68.8,80.7z"></path> <path d="M71.4,89.2L71.4,89.2c-0.1,0-0.2-0.1-0.3-0.1c-0.1,0-0.2,0.1-0.2,0.2c0,0,0,0,0,0c0,0.2,0.1,0.4,0.2,0.4h0.1 c0.1,0,0.1,0.1,0.2,0.1h0.1c0.1,0,0.2-0.2,0.3-0.3c0,0,0-0.1,0-0.1C71.7,89.3,71.5,89.2,71.4,89.2"></path> <path class="st0" d="M71.4,89.2L71.4,89.2c-0.1,0-0.2-0.1-0.3-0.1c-0.1,0-0.2,0.1-0.2,0.2c0,0,0,0,0,0c0,0.2,0.1,0.4,0.2,0.4 h0.1c0.1,0,0.1,0.1,0.2,0.1h0.1c0.1,0,0.2-0.2,0.3-0.3c0,0,0-0.1,0-0.1C71.6,89.3,71.5,89.2,71.4,89.2z"></path> <path d="M64.3,87c0.2,0.2,0.5,0.3,0.8,0.3c0.1,0,0.3-0.1,0.4-0.2c0.1-0.1,0.2-0.2,0.3-0.3c0.1-0.1,0.2-0.2,0.2-0.2 c0.2-0.1,0.4-0.2,0.6-0.2c0,0,1,0,1.1-0.3c0-0.1,0-0.2,0-0.2c-0.1-0.3-0.7-0.3-0.9-0.3h-0.3c-0.5,0-0.6,0.1-0.7,0.1 c0,0,0,0-0.1,0.1c-0.1,0-0.2,0-0.3,0c-0.3,0-0.5,0.1-0.7,0.2c-0.1,0.1-0.2,0.2-0.4,0.3c-0.2,0.1-0.3,0.1-0.3,0.3 S64.2,86.9,64.3,87"></path> <path class="st0" d="M64.3,87c0.2,0.2,0.5,0.3,0.8,0.3c0.1,0,0.3-0.1,0.4-0.2c0.1-0.1,0.2-0.2,0.3-0.3c0.1-0.1,0.2-0.2,0.2-0.2 c0.2-0.1,0.4-0.2,0.6-0.2c0,0,1,0,1.1-0.3c0-0.1,0-0.2,0-0.2c-0.1-0.3-0.7-0.3-0.9-0.3h-0.3c-0.5,0-0.6,0.1-0.7,0.1 c0,0,0,0-0.1,0.1c-0.1,0-0.2,0-0.3,0c-0.3,0-0.5,0.1-0.7,0.2c-0.1,0.1-0.2,0.2-0.4,0.3c-0.2,0.1-0.3,0.1-0.3,0.3 S64.2,87,64.3,87z"></path> <path d="M62,85.5h0.1c0.1,0,0.3-0.1,0.4-0.3s-0.2-0.3-0.2-0.3c-0.2-0.1-0.4-0.2-0.6-0.2h-0.1l-0.1-0.1l-0.2-0.1 c0-0.1-0.1-0.1-0.2-0.1c-0.1,0-0.1,0-0.1,0.1c0,0.1,0,0.2,0,0.3c0.1,0.3,0.3,0.5,0.7,0.6c0,0,0.1,0,0.1,0.1 C61.8,85.5,61.9,85.5,62,85.5"></path> <path class="st0" d="M62,85.5h0.1c0.1,0,0.3-0.1,0.4-0.3s-0.2-0.3-0.2-0.3c-0.2-0.1-0.4-0.2-0.6-0.2h-0.1l-0.1-0.1l-0.2-0.1 c0-0.1-0.1-0.1-0.2-0.1c-0.1,0-0.1,0-0.1,0.1c0,0.1,0,0.2,0,0.3c0.1,0.3,0.3,0.5,0.7,0.6c0,0,0.1,0,0.1,0.1 C61.8,85.5,61.9,85.5,62,85.5z"></path> <path d="M60.9,85.6L60.9,85.6l-0.2-0.1c0,0,0-0.1-0.1-0.1c-0.1-0.1-0.2-0.1-0.3-0.1c-0.1,0-0.1,0.1-0.1,0.2 c0,0.2,0.1,0.3,0.2,0.4h0.1l0.2,0.1c0.1,0,0.1,0.1,0.2,0.2c0.1,0.2,0.3,0.3,0.5,0.3c0.1,0,0.1,0,0.2,0c0.1-0.1,0.2-0.2,0.2-0.4 c0-0.1-0.1-0.2-0.2-0.3C61.3,85.8,61.1,85.7,60.9,85.6"></path> <path class="st0" d="M60.9,85.6L60.9,85.6l-0.2-0.1c0,0,0-0.1-0.1-0.1c-0.1-0.1-0.2-0.1-0.3-0.1c-0.1,0-0.1,0.1-0.1,0.2 c0,0.2,0.1,0.3,0.2,0.4h0.1l0.2,0.1c0.1,0,0.1,0.1,0.2,0.2c0.1,0.2,0.3,0.3,0.5,0.3c0.1,0,0.1,0,0.2,0c0.1-0.1,0.2-0.2,0.2-0.4 c0-0.1-0.1-0.2-0.2-0.3C61.3,85.8,61.1,85.7,60.9,85.6z"></path> <path d="M70,76.5c0,0.1,0,0.1,0,0.2c0,0.1,0,0.1,0,0.2c0,0.1,0,0.1-0.1,0.2c0,0.1-0.1,0.1-0.1,0.2c0,0.1,0,0.2,0.1,0.3 c0.1,0.1,0.3,0.2,0.5,0.3c0.1,0,0.1,0,0.2-0.1c0.1-0.1,0.2-0.2,0.3-0.4c0-0.1,0.1-0.1,0.1-0.2c0.4-0.5,0.3-0.6,0.3-0.7 s-0.2-0.2-0.4-0.1l-0.2,0.1c0,0,0,0,0-0.1l0,0c-0.1-0.1-0.1-0.2-0.2-0.2c0,0-0.1,0-0.1,0C70.2,76.2,70,76.4,70,76.5"></path> <path class="st0" d="M70,76.5c0,0.1,0,0.1,0,0.2c0,0.1,0,0.1,0,0.2c0,0.1,0,0.1-0.1,0.2c0,0.1-0.1,0.1-0.1,0.2 c0,0.1,0,0.2,0.1,0.3c0.1,0.1,0.3,0.2,0.5,0.3c0.1,0,0.1,0,0.2-0.1c0.1-0.1,0.2-0.2,0.3-0.4c0-0.1,0.1-0.1,0.1-0.2 c0.4-0.5,0.3-0.6,0.3-0.7s-0.2-0.2-0.4-0.1l-0.2,0.1c0,0,0,0,0-0.1l0,0c-0.1-0.1-0.1-0.2-0.2-0.2c0,0-0.1,0-0.1,0 C70.2,76.2,70,76.3,70,76.5z"></path> <path d="M59.6,84.3c-0.1,0-0.1,0-0.2,0c-0.1,0-0.2,0.1-0.2,0.1c0,0,0,0,0,0.1c0-0.1,0-0.1-0.1-0.2c-0.2-0.1-0.4-0.1-0.6-0.2l0,0 c0,0-0.1,0-0.1,0c0,0,0,0-0.1,0h-0.2c-0.1,0-0.2-0.1-0.2-0.1c-0.2-0.1-0.5-0.3-0.7,0c-0.1,0.1-0.1,0.3,0,0.4 c0.1,0.1,0.2,0.2,0.3,0.2c0.1,0,0.3,0.1,0.4,0.3c0.1,0.1,0.3,0.1,0.4,0.1c0.2,0,0.3,0,0.5-0.1c0.1-0.1,0.3-0.2,0.4-0.2 c0.1,0,0.1-0.1,0.1-0.1c0,0,0,0.1,0,0.2c0,0.1,0.2,0.1,0.3,0.2h0.1c0.1,0,0.1,0,0.2,0c0.1,0,0.1,0,0.2-0.1 c0.1-0.1,0.1-0.2,0.1-0.3c-0.1-0.1-0.2-0.2-0.4-0.2"></path> <path class="st0" d="M59.6,84.3c-0.1,0-0.1,0-0.2,0c-0.1,0-0.2,0.1-0.2,0.1c0,0,0,0,0,0.1c0-0.1,0-0.1-0.1-0.2 c-0.2-0.1-0.4-0.1-0.6-0.2l0,0c0,0-0.1,0-0.1,0c0,0,0,0-0.1,0h-0.2c-0.1,0-0.2-0.1-0.2-0.1c-0.2-0.1-0.5-0.3-0.7,0 c-0.1,0.1-0.1,0.3,0,0.4c0.1,0.1,0.2,0.2,0.3,0.2c0.1,0,0.3,0.1,0.4,0.3c0.1,0.1,0.3,0.1,0.4,0.1c0.2,0,0.3,0,0.5-0.1 c0.1-0.1,0.3-0.2,0.4-0.2c0.1,0,0.1-0.1,0.1-0.1c0,0,0,0.1,0,0.2c0,0.1,0.2,0.1,0.3,0.2h0.1c0.1,0,0.1,0,0.2,0 c0.1,0,0.1,0,0.2-0.1c0.1-0.1,0.1-0.2,0.1-0.3C60,84.4,59.8,84.3,59.6,84.3z"></path> <path d="M56.2,83.5h-0.1c-0.1,0-0.3,0-0.3,0.1c0,0.1,0,0.2,0.1,0.2c0.1,0.1,0.3,0.2,0.5,0.2h0.1c0.1,0,0.3-0.1,0.3-0.2 c0.1-0.1,0.1-0.2,0-0.3c-0.1-0.1-0.3-0.2-0.4-0.1H56.2"></path> <path class="st0" d="M56.2,83.5h-0.1c-0.1,0-0.3,0-0.3,0.1c0,0.1,0,0.2,0.1,0.2c0.1,0.1,0.3,0.2,0.5,0.2h0.1 c0.1,0,0.3-0.1,0.3-0.2c0.1-0.1,0.1-0.2,0-0.3c-0.1-0.1-0.3-0.2-0.4-0.1H56.2z"></path> </g> </g> </g> </g> </svg> 