<?xml version="1.0" encoding="UTF-8"?> <!-- Generator: Adobe Illustrator 23.0.3, SVG Export Plug-In . SVG Version: 6.00 Build 0) --> <svg xmlns="http://www.w3.org/2000/svg" xmlns:xlink="http://www.w3.org/1999/xlink" id="Layer_1" x="0px" y="0px" viewBox="0 0 141.7 141.7" style="enable-background:new 0 0 141.7 141.7;" xml:space="preserve"> <title>Untitled-1</title> <g> <g> <g> <g> <path d="M97.5,102H44.9V28h52.6V102z M70.9,116.1c-2.3,0-4.2-1.8-4.2-4.1c0-2.3,1.8-4.2,4.1-4.2c2.3,0,4.2,1.8,4.2,4.1 C75,114.2,73.1,116.1,70.9,116.1 M64.7,20.5H78c0.9-0.1,1.7,0.6,1.7,1.5c0.1,0.9-0.6,1.7-1.5,1.7c-0.1,0-0.2,0-0.3,0H64.8 c-0.9-0.1-1.5-0.8-1.5-1.7C63.4,21.2,64,20.6,64.7,20.5 M92,17H49.7c-6.4,0-11.5,5.2-11.5,11.5c0,0,0,0,0,0v84.6 c0,6.4,5.2,11.5,11.5,11.5c0,0,0,0,0,0H92c6.4,0,11.5-5.2,11.5-11.5c0,0,0,0,0,0V28.5C103.6,22.2,98.4,17,92,17L92,17"></path> </g> </g> </g> </g> </svg> 