<?xml version="1.0" encoding="UTF-8"?> <!-- Generator: Adobe Illustrator 23.0.3, SVG Export Plug-In . SVG Version: 6.00 Build 0) --> <svg xmlns="http://www.w3.org/2000/svg" xmlns:xlink="http://www.w3.org/1999/xlink" id="Layer_1" x="0px" y="0px" viewBox="0 0 141.7 141.7" style="enable-background:new 0 0 141.7 141.7;" xml:space="preserve"> <title>Untitled-1</title> <g> <g> <g> <g> <path d="M108.3,50.7h-6.2v6.7c0,10.4-9.1,20.2-18.7,20.2H54.7l-8.8,9.5v3.9c0,6.7,6.2,13.5,12.5,13.5h31.2l18.7,20.2v-20.2 c6.2,0,12.5-6.7,12.5-13.5V64.1C120.8,57.4,114.6,50.7,108.3,50.7"></path> <path d="M66.7,35.5c0,7-7.4,8-6.7,15.3h-4.6c-1.3-8.4,5.8-9.6,5.8-14.5c0-2.5-1.3-4-4.7-4c-1.5,0-3,0.1-4.5,0.3v-3.9 c1.7-0.4,3.5-0.6,5.3-0.7C64,28.1,66.7,31,66.7,35.5 M54.5,56.6c-0.1-1.8,1.3-3.3,3.1-3.4c1.8-0.1,3.3,1.3,3.4,3.1 c0,0.1,0,0.2,0,0.4c-0.1,1.8-1.6,3.2-3.4,3.1C55.9,59.6,54.5,58.2,54.5,56.6 M95.9,57.4V30.5c0-6.7-6.2-13.5-12.5-13.5h-50 c-6.2,0-12.5,6.7-12.5,13.5v26.9c0,6.7,6.2,13.5,12.5,13.5v20.2l18.7-20.2h31.3C89.6,70.9,95.8,64.1,95.9,57.4"></path> </g> </g> </g> </g> </svg> 