<?xml version="1.0" encoding="UTF-8"?> <!-- Generator: Adobe Illustrator 23.0.3, SVG Export Plug-In . SVG Version: 6.00 Build 0) --> <svg xmlns="http://www.w3.org/2000/svg" xmlns:xlink="http://www.w3.org/1999/xlink" id="Layer_1" x="0px" y="0px" viewBox="0 0 141.7 141.7" style="enable-background:new 0 0 141.7 141.7;" xml:space="preserve"> <title>Untitled-1</title> <g> <g> <g> <g> <path d="M23.2,70.9c0,27,21.3,48.9,47.6,48.9s47.5-21.9,47.6-48.9S97.1,22,70.8,22S23.3,43.9,23.2,70.9 M18.4,70.9 C18.4,41.1,41.9,17,70.8,17s52.4,24.1,52.4,53.9s-23.4,53.8-52.4,53.8S18.4,100.6,18.4,70.9"></path> <path d="M42,70.9c0-20.1,6.4-38.4,16.9-51.7l3.6,3c-9.8,12.4-15.9,29.6-15.9,48.7s6.1,36.4,15.9,48.7l0,0l-3.6,3 C48.4,109.3,42,91,42,70.9"></path> <path d="M78,119.6c9.7-12.4,15.8-29.6,15.8-48.7S87.7,34.5,78,22.2l3.6-3c10.4,13.3,16.8,31.6,16.8,51.7s-6.4,38.4-16.9,51.7 L78,119.6z"></path> </g> </g> <rect x="68.4" y="18.9" width="4.8" height="103.3"></rect> <rect x="20.8" y="68.4" width="99.9" height="4.9"></rect> <rect x="27.8" y="42.4" width="85.3" height="4.8"></rect> <rect x="27.3" y="94.5" width="85.3" height="4.8"></rect> <g> <g> <path d="M70.9,50.5c3.5,0,6.4-2.9,6.4-6.4s-2.9-6.4-6.4-6.4c-3.5,0-6.4,2.9-6.4,6.4c0,0,0,0,0,0C64.5,47.6,67.3,50.5,70.9,50.5"></path> <path d="M95,64.6c3.5,0,6.4-2.9,6.4-6.4s-2.9-6.4-6.4-6.4c-3.5,0-6.4,2.9-6.4,6.4c0,0,0,0,0,0C88.6,61.8,91.5,64.6,95,64.6"></path> <path d="M57.1,77.4c3.5,0,6.4-2.9,6.4-6.4c0-3.5-2.9-6.4-6.4-6.4c-3.5,0-6.4,2.9-6.4,6.4C50.7,74.5,53.6,77.4,57.1,77.4"></path> <path d="M102.1,103.5c3.5,0,6.4-2.9,6.4-6.4c0-3.5-2.9-6.4-6.4-6.4c-3.5,0-6.4,2.9-6.4,6.4c0,0,0,0,0,0 C95.7,100.6,98.5,103.5,102.1,103.5"></path> </g> </g> </g> </g> </svg> 