<?xml version="1.0" encoding="UTF-8"?> <!-- Generator: Adobe Illustrator 23.0.3, SVG Export Plug-In . SVG Version: 6.00 Build 0) --> <svg xmlns="http://www.w3.org/2000/svg" xmlns:xlink="http://www.w3.org/1999/xlink" id="Layer_1" x="0px" y="0px" viewBox="0 0 141.7 141.7" style="enable-background:new 0 0 141.7 141.7;" xml:space="preserve"> <style type="text/css"> .st0{fill:none;stroke:#000000;stroke-width:0.57;stroke-linecap:round;stroke-linejoin:round;} </style> <title>Untitled-1</title> <g> <g> <g> <g> <path d="M124.3,75.2l-0.1-1.6l0.1-1.9c-0.3-0.9-0.2-1.9,0.2-2.8c-0.4-0.4-0.6-1-0.5-1.6c-0.4-1.1-1.1-2.1-1.8-3 c-0.3-0.7-0.8-1.2-1.3-1.7l-0.7-1.7h-0.7l-0.1-0.9c0.6-0.7,0.6-1.8-0.2-2.4c0,0-0.1-0.1-0.1-0.1L119,58 c-0.2-0.3-0.5-0.4-0.8-0.4l-0.5-0.8l-0.2,0.2l-0.1,0.6c-0.4-0.2-0.7-0.5-0.7-1v-1.8l-1.6-2.7c0.1-0.8,0.1-1.6-0.8-1.9l-1.8-1 l-0.4-1.2h-0.7c-0.4-0.3-0.9-0.9-1.2-0.6c-0.9-0.7-0.9-1.3-1.2-2l0.1-0.9c-0.8-0.3-1.2-0.8-0.3-1.8l-0.2-2.5 c-0.6-0.6-1.4-0.8-1.2-2.4c0-0.4,0.1-0.8-0.4-1.1c-0.2-0.8,0-1.7,0.3-2.5c-0.7-0.7-1.4-1.4-1.9-2.2c-0.3,0-0.6,0-0.9-0.1 c-0.6,0.7-1.1,1.1-1.5-0.4l-0.2-3.6c-0.4,0-0.3-0.5-0.2-1.1c-0.1-0.4-0.5-0.7-0.9-0.8c0-0.4,0.1-0.7,0.4-0.9 c-0.3-0.3-0.7-0.5-0.9-0.9l-0.1-1.7c-0.1-0.6-0.4-1.2-0.7-1.7c-0.6-0.2-0.8,0.5-1.2,0.7c-0.1,1.1-0.1,2.3-1.3,2.9l-0.4,1.8 c0.4,0.6,0.3,1.2-0.5,1.9c-0.2,0.9-0.2,1.9-0.2,2.8c-0.4,0.3-0.5,0.9-0.1,1.3c0,0.1,0.1,0.1,0.1,0.1c-0.5,3.8-1,7.6-4.7,9.1 c-0.9,0-1.2-0.6-1.8-1c-0.5,0-0.7-0.2-0.5-0.9c-0.4-0.4-0.8-1-1.5-1c-0.3-0.1-0.7-0.2-1-0.3l-0.9,27.9c0,0,5.5,0.3,6.7,0.4 L93,74.1l19,1.9l1.3-0.4c0.8-0.1,1.6-0.2,2.4-0.2l1.7,0.4l1.8,1.1l1.1-0.2l1.1-1.3L124.3,75.2z"></path> <path class="st0" d="M124.3,75.2l-0.1-1.6l0.1-1.9c-0.3-0.9-0.2-1.9,0.2-2.8c-0.4-0.4-0.6-1-0.5-1.6c-0.4-1.1-1.1-2.1-1.8-3 c-0.3-0.7-0.8-1.2-1.3-1.7l-0.7-1.7h-0.7l-0.1-0.9c0.6-0.7,0.6-1.8-0.2-2.4c0,0-0.1-0.1-0.1-0.1L119,58 c-0.2-0.3-0.5-0.4-0.8-0.4l-0.5-0.8l-0.2,0.2l-0.1,0.6c-0.4-0.2-0.7-0.5-0.7-1v-1.8l-1.6-2.7c0.1-0.8,0.1-1.6-0.8-1.9l-1.8-1 l-0.4-1.2h-0.7c-0.4-0.3-0.9-0.9-1.2-0.6c-0.9-0.7-0.9-1.3-1.2-2l0.1-0.9c-0.8-0.3-1.2-0.8-0.3-1.8l-0.2-2.5 c-0.6-0.6-1.4-0.8-1.2-2.4c0-0.4,0.1-0.8-0.4-1.1c-0.2-0.8,0-1.7,0.3-2.5c-0.7-0.7-1.4-1.4-1.9-2.2c-0.3,0-0.6,0-0.9-0.1 c-0.6,0.7-1.1,1.1-1.5-0.4l-0.2-3.6c-0.4,0-0.3-0.5-0.2-1.1c-0.1-0.4-0.5-0.7-0.9-0.8c0-0.4,0.1-0.7,0.4-0.9 c-0.3-0.3-0.7-0.5-0.9-0.9l-0.1-1.7c-0.1-0.6-0.4-1.2-0.7-1.7c-0.6-0.2-0.8,0.5-1.2,0.7c-0.1,1.1-0.1,2.3-1.3,2.9l-0.4,1.8 c0.4,0.6,0.3,1.2-0.5,1.9c-0.2,0.9-0.2,1.9-0.2,2.8c-0.4,0.3-0.5,0.9-0.1,1.3c0,0.1,0.1,0.1,0.1,0.1c-0.5,3.8-1,7.6-4.7,9.1 c-0.9,0-1.2-0.6-1.8-1c-0.5,0-0.7-0.2-0.5-0.9c-0.4-0.4-0.8-1-1.5-1c-0.3-0.1-0.7-0.2-1-0.3l-0.9,27.9c0,0,5.5,0.3,6.7,0.4 L93,74.1l19,1.9l1.3-0.4c0.8-0.1,1.6-0.2,2.4-0.2l1.7,0.4l1.8,1.1l1.1-0.2l1.1-1.3L124.3,75.2z"></path> <path d="M84.6,65.9l0.8-27.8c-0.8-0.4-1.6-0.9-2.2-1.6c-0.7-0.3-1.5-0.4-1.7-1.2h-1.1l-1.8-2.3c0.5-0.7,0.8-1.6,0.8-2.5l0.7-1 c-0.4,0.1-1.1-1.7,1-1.1l0.5-1.3l1.3-1.8c0-0.3-0.2-0.5-0.4-0.7c-0.3,0.2-1,0.1-1.7,0l-1.2,0c1.2-0.5,2.2-1.5,2.6-2.8 c-0.8,0.6-1.5,1.2-2.3,1.7c-0.6,0.6-1.3,1-2.1,1.3L76.8,24l-1,0.4c-0.8-0.1-1.5-0.5-2.1-1c-1.8,0.4-2-0.3-2.2-0.9h-1.2v-0.6 c-0.3-0.6-0.7-0.1-1-0.1l-0.9,0.1c-0.2,0.1-0.2,0.2,0.1,0.7c3.9,1.5,0.4,2.9-0.2,2.3c-0.5,0.3-1,0.2-1.5-0.3l-1.4,0.2 c-0.2,0.4-0.5,0.6-0.8,0.8c-0.5,0.5-0.5,1.3-1.4,1.5l-0.1,0.5c0.8,1.1,0.3,1.2-0.5,1.2c-0.3,0.9-0.4,2-1.3,2.2L61,32 c1.2,1.8-0.5,1.7-0.5,1.7c0.2,10.8,0.7,32,0.7,32L84.6,65.9z M63.6,22.9l0.8,0.7l-0.1,0.1h-0.8l-0.1-0.5L63.6,22.9z M64.1,22.1 c-0.3,0.8,0.6,1.1,1.2,1.6c0.4,0.2,0.6,0.1,0.9,0.1c0.3-0.3,0.6-0.6,0.9-0.9c0-0.3-0.1-0.5-0.4-0.5c-0.7-0.1-1.4-0.1-2.1,0 C64.4,22.4,64.2,22.3,64.1,22.1L64.1,22.1z M81.4,29.9l-0.2,0.2v0.7l0.2,0.3l1.2,0.1l-0.3-0.4v-0.6l-0.2-0.2L81.4,29.9z"></path> <path class="st0" d="M84.6,65.9l0.8-27.8c-0.8-0.4-1.6-0.9-2.2-1.6c-0.7-0.3-1.5-0.4-1.7-1.2h-1.1l-1.8-2.3 c0.5-0.7,0.8-1.6,0.8-2.5l0.7-1c-0.4,0.1-1.1-1.7,1-1.1l0.5-1.3l1.3-1.8c0-0.3-0.2-0.5-0.4-0.7c-0.3,0.2-1,0.1-1.7,0l-1.2,0 c1.2-0.5,2.2-1.5,2.6-2.8c-0.8,0.6-1.5,1.2-2.3,1.7c-0.6,0.6-1.3,1-2.1,1.3L76.8,24l-1,0.4c-0.8-0.1-1.5-0.5-2.1-1 c-1.8,0.4-2-0.3-2.2-0.9h-1.2v-0.6c-0.3-0.6-0.7-0.1-1-0.1l-0.9,0.1c-0.2,0.1-0.2,0.2,0.1,0.7c3.9,1.5,0.4,2.9-0.2,2.3 c-0.5,0.3-1,0.2-1.5-0.3l-1.4,0.2c-0.2,0.4-0.5,0.6-0.8,0.8c-0.5,0.5-0.5,1.3-1.4,1.5l-0.1,0.5c0.8,1.1,0.3,1.2-0.5,1.2 c-0.3,0.9-0.4,2-1.3,2.2L61,32c1.2,1.8-0.5,1.7-0.5,1.7c0.2,10.8,0.7,32,0.7,32L84.6,65.9z M63.6,22.9l0.8,0.7l-0.1,0.1h-0.8 l-0.1-0.5L63.6,22.9z M64.1,22.1c-0.3,0.8,0.6,1.1,1.2,1.6c0.4,0.2,0.6,0.1,0.9,0.1c0.3-0.3,0.6-0.6,0.9-0.9 c0-0.3-0.1-0.5-0.4-0.5c-0.7-0.1-1.4-0.1-2.1,0C64.4,22.4,64.2,22.3,64.1,22.1L64.1,22.1z M81.4,29.9l-0.2,0.2v0.7l0.2,0.3 l1.2,0.1l-0.3-0.4v-0.6l-0.2-0.2L81.4,29.9z"></path> <path d="M61.2,67.8l24.4,0.2l5.4,0.2l-0.2,6.9l-1.1,29.6l-1.2-0.5l-1.8-2.3l-0.1-0.8c0.2-1.4-0.2-2.8-1-3.9l0.1-1.1 c-0.7,0.2-1.5,0.3-1.9,0.8l-0.4-0.3l1.2-2c-0.8-0.5-1.1-1.3-1.4-2.1c-0.4,0.9-0.6,1.8-0.8,2.7c-0.6,0-1.3,0.1-1.4,0.4l-0.8-0.1 c-0.1-0.2-0.1-0.5,0.1-0.7c0.5-0.3,1-0.4,1.6-0.3l0.3-2.8l0.8-1.2v-0.4V89c0.1-0.4,0.1-0.8,0-1.2C82.3,89,81.5,90,80.7,91 c-1,0.1-1.5,0.9-1.9,1.7c-0.4,0.4-0.7,1-0.7,1.6c-0.5,0.1-0.9-0.1-1.3-0.4v-1.3L76,91.2l-0.7-0.7c0.1-0.7-0.4-0.9-0.9-1.2 l-0.9-1c0.2-0.5,0-2.3-1.8-1.8L71,86.2c-0.3-0.5-1-0.7-1.5-0.4c-1.4-0.8-2.7-2-4.1-1.1h-2.5l-1.1-0.4L61.2,67.8 M79.8,97 c-0.4,0.3-0.2,0.5,0.2,0.8c0.5-0.1,1.1-0.1,1.7,0l0.5,0.1c0.1-0.2,0.1-0.5,0.6-0.4v-0.4c-0.3-0.2-0.7-0.3-1-0.2l-0.5-0.3h-0.8 L79.8,97z"></path> <path class="st0" d="M61.2,67.8l24.4,0.2l5.4,0.2l-0.2,6.9l-1.1,29.6l-1.2-0.5l-1.8-2.3l-0.1-0.8c0.2-1.4-0.2-2.8-1-3.9l0.1-1.1 c-0.7,0.2-1.5,0.3-1.9,0.8l-0.4-0.3l1.2-2c-0.8-0.5-1.1-1.3-1.4-2.1c-0.4,0.9-0.6,1.8-0.8,2.7c-0.6,0-1.3,0.1-1.4,0.4l-0.8-0.1 c-0.1-0.2-0.1-0.5,0.1-0.7c0.5-0.3,1-0.4,1.6-0.3l0.3-2.8l0.8-1.2v-0.4V89c0.1-0.4,0.1-0.8,0-1.2C82.3,89,81.5,90,80.7,91 c-1,0.1-1.5,0.9-1.9,1.7c-0.4,0.4-0.7,1-0.7,1.6c-0.5,0.1-0.9-0.1-1.3-0.4v-1.3L76,91.2l-0.7-0.7c0.1-0.7-0.4-0.9-0.9-1.2 l-0.9-1c0.2-0.5,0-2.3-1.8-1.8L71,86.2c-0.3-0.5-1-0.7-1.5-0.4c-1.4-0.8-2.7-2-4.1-1.1h-2.5l-1.1-0.4L61.2,67.8 M79.8,97 c-0.4,0.3-0.2,0.5,0.2,0.8c0.5-0.1,1.1-0.1,1.7,0l0.5,0.1c0.1-0.2,0.1-0.5,0.6-0.4v-0.4c-0.3-0.2-0.7-0.3-1-0.2l-0.5-0.3h-0.8 L79.8,97z"></path> <path d="M17.2,69.6c0.1,0.6,0.3,1.2,0.6,1.7l0.9,0.9c1.1,1.3,2.3,2.6,2.7,4.2c1.2,1.8,2.9,3.3,2.6,5.7c1,1.7,1.7,3.6,3,4.8 c-0.6,1.4-0.6,2.9,0,4.2c0.3,1.2-0.6,1.3-1.4,1.6c0,0.9-0.3,1.8,0.9,2.4c0.4-0.1,0.8,0,1.1,0.3l0.7,0.5c0.4,0,0.8,0,0.9,0.4 l3.2-0.2c0.9-0.5,1.7-1.1,2.4-1.8c0.1-0.4,0.5-0.7,0.9-0.6c0.1,0,0.2,0.1,0.3,0.1c0.3,0,0.5-0.2,0.6-0.5c0.2-2.1,1.3-1.2,2-1.5 c1.2-0.6,2.6-0.7,3.9-0.5h2.9l0.6-0.3c0.7-0.8,1.1-1.8,1.4-2.8c0.9-0.4,1.8-0.9,2.5-1.5c1.5-1,3.3-1.4,5-1.1 c0.9-0.2,1.7-0.5,2.5-1c0.6-0.3,1.2-0.5,1.9-0.5l-1.1-50.6c-1.2-0.6-1.8,0-2.5,0.5c0,0-1.1,0.9-0.6-0.4l-2.1-2.1L51.4,31 l-0.5,0.3c-0.1,0.6-0.2,1.2-0.7,0.6c-1.3-0.3-1.1,0.9-1.6,1.4l-0.7-0.3l-1.5,1.1l0.4,0.9c-0.8,0.3-1.5,0.6-2.1,1.1 c-0.1,0.4-0.2,0.9-0.1,1.4c1.2,1.1,0.4,0.9,0.2,1.2c0,0.9-0.5,0.5-0.9,0.3h-1.6l-0.8-0.2c-0.1,0.1-0.1,0.2,0,0.3 c0.4,0.2,0.6,0.5,0.7,0.9c0.5,0.4,0.9,0.9,1.1,1.5c-0.4,0.2-0.7,0.4-1,0.7c-0.6-0.7-1.1-1.4-1.4-2.3c-1,0.9-1.1,1.8-2.1,2.5 c0,0.8-0.2,1.7,0.4,2.5l-1.2,1.3c-0.4,2.6-2.5,4.6-5.1,5h-1.8c-0.8,0.6-1.3,1.7-2.5,1.3L28.2,53c-0.3,0.6-0.9,1.1-2.7,1 c-1.8,1.2-2.4,2.3-4.4,3.7c-0.7,0.7-1.3,1.6-1.7,2.5c-0.1,0.1-0.2,0.2-0.6-0.1L18.7,59c-0.5,0.4-0.8,1.2-0.8,2.8 c0.3,0.3,0.3,0.7,0.1,1.1c0.2,0.8,0,1.6-0.5,2.2v0.8l1,1.5c0.9,1.2,1.7,2.5,2.1,4c-0.7-0.4-1.3-1-1.9-1.5l-0.1,0.6 c0.6,0.5,1,1.1,1.2,1.9l-1-1C18.1,70.9,17.6,70.3,17.2,69.6z"></path> <path class="st0" d="M17.2,69.6c0.1,0.6,0.3,1.2,0.6,1.7l0.9,0.9c1.1,1.3,2.3,2.6,2.7,4.2c1.2,1.8,2.9,3.3,2.6,5.7 c1,1.7,1.7,3.6,3,4.8c-0.6,1.4-0.6,2.9,0,4.2c0.3,1.2-0.6,1.3-1.4,1.6c0,0.9-0.3,1.8,0.9,2.4c0.4-0.1,0.8,0,1.1,0.3l0.7,0.5 c0.4,0,0.8,0,0.9,0.4l3.2-0.2c0.9-0.5,1.7-1.1,2.4-1.8c0.1-0.4,0.5-0.7,0.9-0.6c0.1,0,0.2,0.1,0.3,0.1c0.3,0,0.5-0.2,0.6-0.5 c0.2-2.1,1.3-1.2,2-1.5c1.2-0.6,2.6-0.7,3.9-0.5h2.9l0.6-0.3c0.7-0.8,1.1-1.8,1.4-2.8c0.9-0.4,1.8-0.9,2.5-1.5 c1.5-1,3.3-1.4,5-1.1c0.9-0.2,1.7-0.5,2.5-1c0.6-0.3,1.2-0.5,1.9-0.5l-1.1-50.6c-1.2-0.6-1.8,0-2.5,0.5c0,0-1.1,0.9-0.6-0.4 l-2.1-2.1L51.4,31l-0.5,0.3c-0.1,0.6-0.2,1.2-0.7,0.6c-1.3-0.3-1.1,0.9-1.6,1.4l-0.7-0.3l-1.5,1.1l0.4,0.9 c-0.8,0.3-1.5,0.6-2.1,1.1c-0.1,0.4-0.2,0.9-0.1,1.4c1.2,1.1,0.4,0.9,0.2,1.2c0,0.9-0.5,0.5-0.9,0.3h-1.6l-0.8-0.2 c-0.1,0.1-0.1,0.2,0,0.3c0.4,0.2,0.6,0.5,0.7,0.9c0.5,0.4,0.9,0.9,1.1,1.5c-0.4,0.2-0.7,0.4-1,0.7c-0.6-0.7-1.1-1.4-1.4-2.3 c-1,0.9-1.1,1.8-2.1,2.5c0,0.8-0.2,1.7,0.4,2.5l-1.2,1.3c-0.4,2.6-2.5,4.6-5.1,5h-1.8c-0.8,0.6-1.3,1.7-2.5,1.3L28.2,53 c-0.3,0.6-0.9,1.1-2.7,1c-1.8,1.2-2.4,2.3-4.4,3.7c-0.7,0.7-1.3,1.6-1.7,2.5c-0.1,0.1-0.2,0.2-0.6-0.1L18.7,59 c-0.5,0.4-0.8,1.2-0.8,2.8c0.3,0.3,0.3,0.7,0.1,1.1c0.2,0.8,0,1.6-0.5,2.2v0.8l1,1.5c0.9,1.2,1.7,2.5,2.1,4 c-0.7-0.4-1.3-1-1.9-1.5l-0.1,0.6c0.6,0.5,1,1.1,1.2,1.9l-1-1C18.1,70.9,17.6,70.3,17.2,69.6z"></path> <path d="M124.3,77.3l-3,0.2l-1.1,1.3l-1.1,0.2l-1.7-1.1l-1.8-0.4c-0.8,0-1.6,0.1-2.4,0.2l-1.3,0.4l-19-2l-1.1,28.5 c1.6-0.1,3.3,0.4,4.6,1.4H97l2.3-1.6l0.4-0.3v-0.5c0.3,0.1,0.7-0.2,0.9,0.6l-0.7,0.5l0.2,0.5h0.5c1,0.6,2,1.3,2.7,2.3 c0.3-0.1,0.5-0.3,0.4-0.7c-0.6-0.3-0.2-0.4,0.4-0.4c1-0.5,2-1.1,2.8-1.9l3.3-0.2c0.9-0.1,1.7-0.5,2.4-1.1c-0.5-1.3,0.2-2,0.4-3 l1-2.5c0.7-0.3,1.2-1,1.1-1.8c0.9-2.5,2.5-4.6,4.7-6.1l0.6-1.5c1.2-0.9,1.8-2.3,1.7-3.7c0.7-1.4,1.3-2.9,1.8-4.4 C124.3,79.4,124.4,78.3,124.3,77.3 M100,112.4c3,1.8,4.6,1.5,5.7,0.5c0.3,0,0.7-0.3,0.8,0c1.2,2.2,0.1,3.3-0.4,4.7 c-0.3,0.2-0.6,0.4-0.1,1.4c-0.4,0-0.7,0.6-0.9,1.4l-0.6-0.9c-1,0.5-0.7,1.7-1.7,1.8c-0.5-0.2-1.1-0.2-1.7,0 c-0.1-0.3,0-0.7-0.4-1c-0.8-0.8-1.2-1.9-1-3c0.1-0.1,0.3-0.1,0.2-0.6C99.4,114.9,97.7,112.4,100,112.4z"></path> <path class="st0" d="M124.3,77.3l-3,0.2l-1.1,1.3l-1.1,0.2l-1.7-1.1l-1.8-0.4c-0.8,0-1.6,0.1-2.4,0.2l-1.3,0.4l-19-2l-1.1,28.5 c1.6-0.1,3.3,0.4,4.6,1.4H97l2.3-1.6l0.4-0.3v-0.5c0.3,0.1,0.7-0.2,0.9,0.6l-0.7,0.5l0.2,0.5h0.5c1,0.6,2,1.3,2.7,2.3 c0.3-0.1,0.5-0.3,0.4-0.7c-0.6-0.3-0.2-0.4,0.4-0.4c1-0.5,2-1.1,2.8-1.9l3.3-0.2c0.9-0.1,1.7-0.5,2.4-1.1c-0.5-1.3,0.2-2,0.4-3 l1-2.5c0.7-0.3,1.2-1,1.1-1.8c0.9-2.5,2.5-4.6,4.7-6.1l0.6-1.5c1.2-0.9,1.8-2.3,1.7-3.7c0.7-1.4,1.3-2.9,1.8-4.4 C124.3,79.4,124.5,78.4,124.3,77.3z M100,112.4c3,1.8,4.6,1.5,5.7,0.5c0.3,0,0.7-0.3,0.8,0c1.2,2.2,0.1,3.3-0.4,4.7 c-0.3,0.2-0.6,0.4-0.1,1.4c-0.4,0-0.7,0.6-0.9,1.4l-0.6-0.9c-1,0.5-0.7,1.7-1.7,1.8c-0.5-0.2-1.1-0.2-1.7,0 c-0.1-0.3,0-0.7-0.4-1c-0.8-0.8-1.2-1.9-1-3c0.1-0.1,0.3-0.1,0.2-0.6C99.4,114.9,97.7,112.4,100,112.4z"></path> </g> </g> </g> </g> </svg> 