<?xml version="1.0" encoding="UTF-8"?> <!-- Generator: Adobe Illustrator 23.0.3, SVG Export Plug-In . SVG Version: 6.00 Build 0) --> <svg xmlns="http://www.w3.org/2000/svg" xmlns:xlink="http://www.w3.org/1999/xlink" id="Layer_1" x="0px" y="0px" viewBox="0 0 141.7 141.7" style="enable-background:new 0 0 141.7 141.7;" xml:space="preserve"> <title>Untitled-1</title> <g> <g> <g> <g> <path d="M87.7,114.6V69c4.6-0.9,7.5-5.4,6.6-9.9c-0.2-1-0.6-1.9-1.1-2.7L111.5,39c0.9,0.7,2,1.1,3.2,1.4v74.2L87.7,114.6z M27.1,92.6c4.6-0.9,7.5-5.4,6.6-9.9c-0.2-1.1-0.6-2.1-1.2-3l18.6-18.6c0.9,0.6,1.9,1,2.9,1.2v52.3H27.1L27.1,92.6z M20.4,84.4 c0-2.8,2.2-5.1,5-5.1c2.8,0,5.1,2.2,5.1,5c0,2.8-2.2,5.1-5,5.1c0,0,0,0,0,0C22.7,89.4,20.4,87.2,20.4,84.4 C20.4,84.4,20.4,84.4,20.4,84.4 M55.7,49c2.8,0,5,2.2,5,5s-2.2,5-5,5s-5-2.2-5-5S53,49,55.7,49 M77.6,60.6v0.2 c0,4,2.8,7.4,6.7,8.2v45.6H57.4V62.3c2.7-0.5,4.9-2.3,6-4.8L77.6,60.6z M86,55.7c2.8,0,5.1,2.2,5.1,5c0,2.8-2.2,5.1-5,5.1 c-2.8,0-5.1-2.2-5.1-5c0,0,0,0,0,0C81,58,83.2,55.8,86,55.7 M116.3,27.1c2.8,0,5.1,2.2,5.1,5c0,2.8-2.2,5.1-5,5.1 s-5.1-2.2-5.1-5c0,0,0,0,0,0C111.3,29.4,113.5,27.1,116.3,27.1C116.3,27.1,116.3,27.1,116.3,27.1 M124.7,32.2 c0-4.7-3.7-8.4-8.4-8.5c-4.7,0-8.4,3.7-8.5,8.4c0,1.6,0.4,3.2,1.3,4.5L90.8,53.9c-3.8-2.7-9.1-1.7-11.7,2.1 c-0.3,0.4-0.6,0.9-0.8,1.4l-14.2-3.2v-0.1c0-4.7-3.7-8.4-8.4-8.5s-8.4,3.7-8.5,8.4c0,1.7,0.5,3.3,1.4,4.7L30.1,77.3 c-4-2.3-9.2-0.9-11.5,3.1c-2.1,3.7-1.2,8.3,2.2,10.9c0.9,0.6,1.9,1,3,1.2v22h-5.1c-0.9-0.1-1.7,0.6-1.8,1.6 c-0.1,0.9,0.6,1.7,1.6,1.8c0.1,0,0.2,0,0.3,0H123c0.9-0.1,1.6-0.9,1.6-1.8c-0.1-0.8-0.7-1.5-1.6-1.6h-5V40.4 C121.9,39.6,124.7,36.2,124.7,32.2"></path> </g> </g> </g> </g> </svg> 