<?xml version="1.0" encoding="UTF-8"?> <!-- Generator: Adobe Illustrator 23.0.3, SVG Export Plug-In . SVG Version: 6.00 Build 0) --> <svg xmlns="http://www.w3.org/2000/svg" xmlns:xlink="http://www.w3.org/1999/xlink" id="Layer_1" x="0px" y="0px" viewBox="0 0 141.7 141.7" style="enable-background:new 0 0 141.7 141.7;" xml:space="preserve"> <style type="text/css"> .st0{fill:#FFFFFF;} </style> <title>Untitled-1</title> <g> <g> <g> <g> <path d="M95.5,40.8H82.3V27.2L95.5,40.8z M105.3,80.6V42c0-0.9-0.3-1.9-0.9-2.6L83.8,18.2c-0.6-0.8-1.6-1.2-2.6-1.2H27.8 c-2,0-3.6,1.6-3.6,3.5c0,0,0,0.1,0,0.1v93.9c0,2,1.6,3.6,3.6,3.6c0,0,0,0,0.1,0h63.8v-7.3H31.4V24.3h46.2v21.2h20.4v35.1H105.3z M38.9,88.7h47v-7h-47V88.7z M67.1,93.4H38.9v7h28.2V93.4z M38.9,77h39.9v-7H38.9V77z M38.9,65.3h51.6v-7H38.9V65.3z"></path> <path d="M105.8,108.7c-0.1-1.6-1.2-3-2.7-3.6c-1.5-0.5-3.1,0-4.1,1.2c-1,1.3-1.2,3.2-0.2,4.2s1,2.4,1,3.7c0,0.8,0,1.6,0,2.4 c0,1.1,0.8,1.8,2,1.8s2-0.6,2-1.8s-0.1-2.5,0-3.8c0.1-0.6,0.3-1.1,0.6-1.6c0.4-0.8,0.8-1.6,1.2-2.4 M101.6,124.7H90 c-2.7,0-3.8-1.1-3.8-3.9v-20.2c0-2.2,1.2-3.6,3.4-3.6c8.2,0,16.3,0,24.5,0c1.9-0.1,3.4,1.3,3.6,3.2c0,0.2,0,0.3,0,0.5 c-0.1,6.8,0,13.6,0,20.5c0.2,1.7-1,3.3-2.8,3.6c-0.2,0-0.5,0-0.7,0c-4.1,0-8.2,0-12.3,0"></path> <path d="M114.9,95H110c0-0.8,0-1.6,0-2.3c0.3-6.7-4.7-8.8-9.9-8.1c-2,0.3-4,0.9-5.1,2.7c-0.7,1.3-1.2,2.8-1.4,4.3 c-0.1,1.1-0.1,2.3,0,3.4h-4.8c-0.5-5-0.2-9.7,4.4-13.3c4-3.2,11.2-3.7,15.8-0.8C114.4,84.1,115.5,88.8,114.9,95"></path> <path class="st0" d="M105.8,108.7c-0.4,0.8-0.8,1.6-1.2,2.4c-0.3,0.5-0.5,1.1-0.6,1.6c-0.1,1.2,0,2.5,0,3.8s-0.7,1.8-2,1.8 s-2-0.6-2-1.8c0-0.8,0-1.6,0-2.4c0-1.3,0.1-2.5-1-3.7s-0.8-3,0.2-4.2c1-1.3,2.6-1.7,4.1-1.2c1.5,0.6,2.6,2,2.7,3.6"></path> </g> </g> </g> </g> </svg> 