<?xml version="1.0" encoding="UTF-8"?> <!-- Generator: Adobe Illustrator 23.0.3, SVG Export Plug-In . SVG Version: 6.00 Build 0) --> <svg xmlns="http://www.w3.org/2000/svg" xmlns:xlink="http://www.w3.org/1999/xlink" id="Layer_1" x="0px" y="0px" viewBox="0 0 141.7 141.7" style="enable-background:new 0 0 141.7 141.7;" xml:space="preserve"> <title>Untitled-1</title> <g> <g> <g> <g> <path d="M54.9,22.5h31.6c0.5-1.9,0.6-3.3,1.7-4.3c2.3-2.2,6.9-0.8,7.7,1.9c0.8,2.5,0.3,6.4-0.2,9.2c-1.4,8-6.8,14.2-11.6,17.4 c-3.1-1.9-6.5-3.5-9.9-4.7c1.4-1.1,3.3-1.7,4.5-3c-4.3-1-8.4,0.6-12.3-0.2c-2.7-0.5-5.3-3.8-6.7-5.8h24.6c1.2-1,1.6-2.9,2.2-4.5 H55.3c2,7.8,8.4,12.6,16.1,15.1c7.9,2.6,14.2,5.9,19.2,12.1c3.6,4.3,5.5,9.7,5.6,15.3c0,10.6-6,16.3-12,21.3 c-3.1-1.9-6.5-3.5-9.9-4.7c1.5-1.2,3.5-1.8,4.7-3.2c-4.5-0.6-8.7,0.8-12.5,0c-2.6-0.6-5.3-3.8-6.7-5.8h24.5 c1.2-1,1.6-2.9,2.2-4.5H55.3c1.3,5.6,5.1,9.4,9.7,12.3s10.5,3.6,15.7,6.7c6.7,3.9,12.9,9.3,14.8,18.7c0.5,2.5,1.4,7,0.4,10.1 c-1.5,4.7-10.1,3.7-9.2-2.4H55.1c-0.5,1.9-0.7,3.3-1.7,4.3c-2.3,2.2-6.8,0.8-7.7-1.9c-0.8-2.5-0.3-6.4,0.2-9.2 c1.4-8,6.8-14.2,11.6-17.5c3.1,1.9,6.5,3.5,9.9,4.7c-1.4,1.1-3.3,1.7-4.5,3c4.3,1,8.4-0.6,12.3,0.2c2.7,0.6,5.3,3.8,6.7,5.8 H57.3c-1.2,1-1.5,2.9-2.2,4.5h31.2c-1.3-6.8-7.8-11.8-14-14.2c-4.2-1.7-8.7-2.8-12.9-5.4c-6.6-4.1-13.9-11.9-14-22.6 s5.9-16.5,12-21.5c3.1,1.9,6.5,3.5,9.9,4.7c-1.4,1.2-3.5,1.8-4.7,3.2c4.5,0.6,8.7-0.8,12.5,0c2.6,0.5,5.3,3.8,6.7,5.8H57.3 c-1.2,1-1.5,2.9-2.2,4.5h31.2c-1.5-5.8-4.9-9.3-9.7-12.3C72.2,52.9,66.2,52.1,61,49c-6.9-4-13-9.3-14.9-18.8 c-0.9-4.4-1.8-12.3,3-13.1C53.2,16.4,54.6,19,54.9,22.5"></path> </g> </g> </g> </g> </svg> 