<?xml version="1.0" encoding="UTF-8"?> <!-- Generator: Adobe Illustrator 23.0.3, SVG Export Plug-In . SVG Version: 6.00 Build 0) --> <svg xmlns="http://www.w3.org/2000/svg" xmlns:xlink="http://www.w3.org/1999/xlink" id="Layer_1" x="0px" y="0px" viewBox="0 0 141.7 141.7" style="enable-background:new 0 0 141.7 141.7;" xml:space="preserve"> <title>Untitled-1</title> <g> <g> <path d="M21.8,82.8h98.3V25.5H21.8V82.8z M124.8,87.5H17V20.8h107.8L124.8,87.5z"></path> <g> <g> <path d="M61.6,59.8l18-19.2l-3.9-3.7L60.6,52.7c0,0-4,3.5-7.6,3.5H38.2C31.5,56.3,26,61.8,26,68.5v24.7h5.4V72.7 c0-0.6,0.4-1,1-1s1,0.4,1,1v48.1h10.2V95.4c0-1.1,0.9-2,2-2s2,0.9,2,2V121h10.6V72.9C58.1,66.5,59.7,61.8,61.6,59.8"></path> <path d="M55.2,43.8c0,5.4-4.4,9.8-9.7,9.8c-5.4,0-9.8-4.4-9.8-9.7c0-5.4,4.4-9.8,9.7-9.8c0,0,0,0,0,0c5.3-0.1,9.7,4.2,9.7,9.5 C55.2,43.7,55.2,43.7,55.2,43.8"></path> <path d="M55.5,43.6c0,5.4-4.4,9.7-9.8,9.7c-5.4,0-9.8-4.4-9.7-9.8s4.4-9.7,9.8-9.7c0,0,0,0,0,0c5.3,0,9.7,4.2,9.7,9.6 C55.5,43.5,55.5,43.5,55.5,43.6"></path> <path d="M95.3,42.1c-0.5,0.3-2-0.2-2.3-0.5c-0.6-0.6-1.8-1.8-1.5-2.7c-0.3-0.7-0.3-1.4,0.1-2.1c0,0,0.7-2.8,4.8-4.2 c0.4-0.2,2.8-0.5,1.3,1.6c-0.5,0.7-1.1,0.8-1.1,1.6c0,0.6-0.2,1.1-0.6,1.6c-0.1,0.1-0.5,0.2-0.1,0.6c0.6,0.5,0.7,1.4,0.3,2 C95.6,41,95.8,41.8,95.3,42.1"></path> <path d="M87.2,42.1c0.5,0.3,2-0.2,2.3-0.5c0.5-0.6,1.8-1.8,1.5-2.7c0.3-0.6,0.3-1.4,0-2.1c0,0-0.7-2.8-4.7-4.2 c-0.4-0.2-2.7-0.4-1.3,1.7c0.5,0.7,1,0.7,1,1.5c0.1,0.6,0.3,1.1,0.6,1.6c0.1,0.1,0.5,0.2,0.1,0.6c-0.6,0.5-0.7,1.4-0.3,2 C87,40.9,86.8,41.8,87.2,42.1"></path> <path d="M91.2,40.3c0.2,0,0.3-0.9,0.3-2s-0.1-2-0.3-2c-0.2,0.6-0.3,1.3-0.3,2C90.9,39,91,39.7,91.2,40.3"></path> <path d="M91.3,36.4c0-0.2,0-0.4,0.1-0.5c0-0.1,0.1-0.2,0.1-0.3c0.2-0.3,0.4-0.5,0.7-0.7l0,0l0,0c-0.3,0.2-0.5,0.4-0.7,0.7 C91.3,35.8,91.3,36.1,91.3,36.4L91.3,36.4"></path> <path d="M91.2,36.4c0-0.2,0-0.4-0.1-0.5c0-0.1-0.1-0.2-0.1-0.3c-0.2-0.3-0.4-0.5-0.7-0.7l0,0l0,0c0.3,0.2,0.5,0.4,0.7,0.7 C91.2,35.8,91.2,36.1,91.2,36.4L91.2,36.4L91.2,36.4z"></path> <path d="M95.3,59c-0.5,0.3-2-0.2-2.3-0.5c-0.6-0.6-1.8-1.8-1.5-2.7c-0.3-0.7-0.3-1.4,0.1-2.1c0,0,0.7-2.8,4.8-4.2 c0.4-0.2,2.8-0.5,1.3,1.6c-0.5,0.7-1.1,0.8-1.1,1.6c0,0.6-0.2,1.1-0.6,1.6c-0.1,0.1-0.5,0.2-0.1,0.6c0.6,0.5,0.7,1.4,0.3,2 C95.6,57.9,95.8,58.7,95.3,59"></path> <path d="M87.2,59c0.5,0.3,2-0.2,2.3-0.5c0.6-0.5,1.8-1.8,1.6-2.7c0.3-0.7,0.3-1.4,0-2.1c0,0-0.7-2.8-4.7-4.2 c-0.4-0.2-2.7-0.4-1.3,1.7c0.5,0.7,1,0.7,1,1.5c0.1,0.6,0.3,1.1,0.6,1.6c0.1,0.1,0.5,0.2,0.1,0.6c-0.6,0.5-0.7,1.4-0.3,2 C87,57.8,86.8,58.7,87.2,59"></path> <path d="M91.2,57.3c0.2,0,0.3-0.9,0.3-2s-0.1-2-0.3-2c-0.2,0.6-0.3,1.3-0.3,2C91,56.4,91.1,57.3,91.2,57.3"></path> <path d="M91.3,53.3c0-0.2,0-0.3,0.1-0.5c0-0.1,0.1-0.2,0.1-0.3c0.2-0.3,0.4-0.5,0.7-0.7l0,0l0,0c-0.3,0.2-0.5,0.4-0.7,0.7 C91.3,52.8,91.3,53.1,91.3,53.3L91.3,53.3L91.3,53.3"></path> <path d="M91.2,53.3c0-0.2,0-0.4-0.1-0.5c0-0.1-0.1-0.2-0.1-0.3c-0.2-0.3-0.4-0.5-0.7-0.7l0,0l0,0c0.3,0.2,0.5,0.4,0.7,0.7 C91.2,52.8,91.2,53.1,91.2,53.3L91.2,53.3L91.2,53.3z"></path> <path d="M95.3,76c-0.5,0.3-2-0.2-2.3-0.5c-0.6-0.6-1.8-1.8-1.5-2.7c-0.3-0.7-0.3-1.4,0.1-2.1c0,0,0.7-2.8,4.8-4.2 c0.4-0.2,2.8-0.5,1.3,1.6c-0.5,0.7-1.1,0.8-1.1,1.6c-0.1,0.6-0.3,1.1-0.6,1.5c-0.1,0.1-0.5,0.2-0.1,0.6c0.6,0.5,0.7,1.4,0.3,2 C95.6,74.8,95.8,75.7,95.3,76"></path> <path d="M87.2,75.9c0.5,0.3,2-0.2,2.3-0.5c0.6-0.6,1.8-1.8,1.6-2.7c0.3-0.7,0.3-1.4,0-2.1c0,0-0.7-2.8-4.7-4.2 c-0.4-0.2-2.7-0.4-1.3,1.7c0.5,0.7,1,0.7,1,1.5c0.1,0.6,0.3,1.1,0.6,1.6c0.1,0.1,0.5,0.2,0.1,0.6c-0.6,0.5-0.7,1.4-0.3,2 C87,74.8,86.8,75.6,87.2,75.9"></path> <path d="M91.2,74.2c0.2,0,0.3-0.9,0.3-2s-0.1-2-0.3-2c-0.2,0.6-0.3,1.3-0.3,2C90.9,72.9,91,73.6,91.2,74.2"></path> <path d="M91.3,70.3c0-0.2,0-0.4,0.1-0.5c0-0.1,0.1-0.2,0.1-0.3c0.2-0.3,0.4-0.5,0.7-0.7l0,0l0,0c-0.3,0.2-0.5,0.4-0.7,0.7 C91.3,69.7,91.3,70,91.3,70.3L91.3,70.3L91.3,70.3"></path> <path d="M91.2,70.3c0-0.2,0-0.4-0.1-0.5c0-0.1-0.1-0.2-0.1-0.3c-0.2-0.3-0.4-0.5-0.7-0.6l0,0l0,0c0.3,0.2,0.5,0.4,0.7,0.7 C91.2,69.7,91.2,70,91.2,70.3L91.2,70.3L91.2,70.3z"></path> <path d="M113.7,42.1c-0.5,0.3-2-0.2-2.3-0.5c-0.5-0.6-1.8-1.8-1.5-2.7c-0.3-0.7-0.3-1.4,0.1-2.1c0,0,0.7-2.8,4.8-4.2 c0.4-0.2,2.8-0.5,1.3,1.6c-0.4,0.7-1.1,0.8-1.1,1.6c-0.1,0.6-0.3,1.1-0.7,1.6c-0.1,0.1-0.5,0.2-0.1,0.6c0.6,0.5,0.7,1.4,0.3,2 C113.9,41,114.1,41.8,113.7,42.1"></path> <path d="M105.6,42.1c0.5,0.3,2-0.2,2.3-0.5c0.6-0.6,1.8-1.8,1.6-2.7c0.3-0.7,0.3-1.4-0.1-2.1c0,0-0.7-2.8-4.7-4.2 c-0.4-0.2-2.7-0.4-1.3,1.7c0.4,0.7,1,0.7,1,1.5c0.1,0.6,0.3,1.1,0.6,1.6c0.1,0.1,0.5,0.2,0.1,0.6c-0.6,0.5-0.7,1.4-0.3,2 C105.4,40.9,105.2,41.8,105.6,42.1"></path> <path d="M109.7,40.3c0.2-0.6,0.3-1.3,0.3-2c0.1-0.7,0-1.4-0.3-2c-0.2,0-0.3,0.9-0.3,2S109.5,40.3,109.7,40.3"></path> <path d="M109.7,36.4c0-0.2,0-0.4,0.1-0.5c0-0.1,0.1-0.2,0.1-0.3c0.2-0.3,0.4-0.5,0.7-0.7l0,0l0,0c-0.3,0.2-0.5,0.4-0.7,0.7 C109.7,35.8,109.7,36.1,109.7,36.4L109.7,36.4"></path> <path d="M109.6,36.4c0-0.2,0-0.4-0.1-0.5c0-0.1-0.1-0.2-0.1-0.3c-0.2-0.3-0.4-0.5-0.7-0.7l0,0l0,0c0.3,0.2,0.5,0.4,0.8,0.7 C109.6,35.8,109.6,36.1,109.6,36.4L109.6,36.4L109.6,36.4z"></path> <path d="M113.7,59c-0.5,0.3-2-0.2-2.3-0.5c-0.5-0.6-1.8-1.8-1.5-2.7c-0.3-0.7-0.3-1.4,0.1-2.1c0,0,0.7-2.8,4.8-4.2 c0.4-0.2,2.8-0.5,1.3,1.6c-0.4,0.7-1.1,0.8-1.1,1.6c-0.1,0.6-0.3,1.1-0.7,1.6c-0.1,0.1-0.5,0.2-0.1,0.6c0.6,0.5,0.7,1.4,0.3,2 C113.9,57.9,114.1,58.7,113.7,59"></path> <path d="M105.6,59c0.5,0.3,2-0.2,2.3-0.5c0.6-0.5,1.8-1.8,1.6-2.7c0.3-0.7,0.3-1.4-0.1-2.1c0,0-0.7-2.8-4.7-4.2 c-0.4-0.2-2.7-0.4-1.3,1.7c0.4,0.7,1,0.7,1,1.5c0.1,0.6,0.3,1.1,0.6,1.6c0.1,0.1,0.5,0.2,0.1,0.6c-0.6,0.5-0.7,1.4-0.3,2 C105.4,57.9,105.2,58.7,105.6,59"></path> <path d="M109.7,57.3c0.2-0.6,0.3-1.3,0.3-2c0.1-0.7,0-1.4-0.3-2c-0.2,0-0.3,0.9-0.3,2S109.5,57.3,109.7,57.3"></path> <path d="M109.7,53.3c0-0.2,0-0.3,0.1-0.5c0-0.1,0.1-0.2,0.1-0.3c0.2-0.3,0.4-0.5,0.7-0.7l0,0l0,0c-0.3,0.2-0.5,0.4-0.7,0.7 C109.7,52.8,109.7,53.1,109.7,53.3L109.7,53.3"></path> <path d="M109.6,53.3c0-0.2,0-0.4-0.1-0.5c0-0.1-0.1-0.2-0.1-0.3c-0.2-0.3-0.4-0.5-0.7-0.7l0,0l0,0c0.3,0.2,0.5,0.4,0.8,0.7 C109.6,52.8,109.6,53.1,109.6,53.3L109.6,53.3L109.6,53.3z"></path> <path d="M113.7,76c-0.5,0.3-2-0.2-2.3-0.5c-0.5-0.6-1.8-1.8-1.5-2.7c-0.3-0.7-0.3-1.4,0.1-2.1c0,0,0.7-2.8,4.8-4.2 c0.4-0.2,2.8-0.5,1.3,1.6c-0.4,0.7-1.1,0.8-1.1,1.6c-0.1,0.6-0.3,1.1-0.7,1.6c-0.1,0.1-0.5,0.2-0.1,0.6c0.6,0.5,0.7,1.4,0.3,2 C113.9,74.8,114.1,75.7,113.7,76"></path> <path d="M105.6,75.9c0.5,0.3,2-0.2,2.3-0.5c0.6-0.6,1.8-1.8,1.6-2.7c0.3-0.7,0.3-1.4-0.1-2.1c0,0-0.7-2.8-4.7-4.2 c-0.4-0.2-2.7-0.4-1.3,1.7c0.4,0.7,1,0.7,1,1.5c0.1,0.6,0.3,1.1,0.6,1.6c0.1,0.1,0.5,0.2,0.1,0.6c-0.6,0.5-0.7,1.4-0.3,2 C105.4,74.8,105.2,75.6,105.6,75.9"></path> <path d="M109.7,74.2c0.2-0.6,0.3-1.3,0.3-2c0.1-0.7,0-1.4-0.3-2c-0.2,0-0.3,0.9-0.3,2S109.5,74.2,109.7,74.2"></path> <path d="M109.7,70.3c0-0.2,0-0.4,0.1-0.5c0-0.1,0.1-0.2,0.1-0.3c0.2-0.3,0.4-0.5,0.7-0.7l0,0l0,0c-0.3,0.2-0.5,0.4-0.7,0.7 C109.7,69.7,109.7,70,109.7,70.3L109.7,70.3"></path> <path d="M109.6,70.3c0-0.2,0-0.4-0.1-0.5c0-0.1-0.1-0.2-0.1-0.3c-0.2-0.3-0.4-0.5-0.7-0.6l0,0l0,0c0.3,0.2,0.5,0.4,0.8,0.7 C109.6,69.7,109.6,70,109.6,70.3L109.6,70.3L109.6,70.3z"></path> </g> </g> </g> </g> </svg> 