<?xml version="1.0" encoding="UTF-8"?> <!-- Generator: Adobe Illustrator 23.0.3, SVG Export Plug-In . SVG Version: 6.00 Build 0) --> <svg xmlns="http://www.w3.org/2000/svg" xmlns:xlink="http://www.w3.org/1999/xlink" id="Layer_1" x="0px" y="0px" viewBox="0 0 141.7 141.7" style="enable-background:new 0 0 141.7 141.7;" xml:space="preserve"> <style type="text/css"> .st0{fill:none;stroke:#FFFFFF;stroke-width:2.5;stroke-linejoin:round;} .st1{fill:none;stroke:#FFFFFF;stroke-width:2.5;stroke-linecap:round;stroke-linejoin:round;} </style> <title>Untitled-1</title> <g> <g> <path d="M53.4,109.7l34.9,12.9V32.1L53.4,19.2V109.7z M123.4,109.7l-34.8,12.9V32.1l34.9-12.9L123.4,109.7z M53.1,109.7 l-34.8,12.9V32.1l34.9-12.9L53.1,109.7z"></path> <path class="st0" d="M53.4,109.7l34.9,12.9V32.1L53.4,19.2V109.7z M123.4,109.7l-34.8,12.9V32.1l34.9-12.9L123.4,109.7z M53.1,109.7l-34.8,12.9V32.1l34.9-12.9L53.1,109.7z"></path> <g> <g> <path class="st1" d="M18.3,83.8c0,0,36.9-8.7,57,32.5"></path> </g> </g> </g> </g> <line class="st1" x1="66.3" y1="60.9" x2="77" y2="71.6"></line> <line class="st1" x1="77" y1="60.9" x2="66.3" y2="71.6"></line> </svg> 