<?xml version="1.0" encoding="UTF-8"?> <!-- Generator: Adobe Illustrator 23.0.3, SVG Export Plug-In . SVG Version: 6.00 Build 0) --> <svg xmlns="http://www.w3.org/2000/svg" xmlns:xlink="http://www.w3.org/1999/xlink" id="Layer_1" x="0px" y="0px" viewBox="0 0 141.7 141.7" style="enable-background:new 0 0 141.7 141.7;" xml:space="preserve"> <title>Untitled-1</title> <g> <g> <g> <g> <path d="M48.6,38.2c16-0.3,28.5-4.9,28.5-10.4c0-5.9-12.5-10.4-28.5-10.8c-16,0.4-28.8,4.9-28.8,10.8 C19.8,33.3,32.6,37.9,48.6,38.2 M77.1,59.4V57c-7,4.9-18.4,7.3-29.5,7.3C36.8,64,26.4,61.5,19.8,57v13.9 c0,6.6,13.9,10.4,28.1,10.4c2.9,0.1,5.8-0.1,8.7-0.3c1.1-5.3,3.8-10.2,7.6-14C67.9,63.5,72.3,60.8,77.1,59.4 M56.3,85.5 c-2.9,0.3-5.8,0.4-8.7,0.3c-10.8-0.3-21.2-2.8-27.8-7.3v13.9c0,6.6,13.9,10.4,28.1,10.4c4.3,0.3,8.6,0.1,12.9-0.7 C57.5,97.2,55.9,91.4,56.3,85.5 M77.1,114v-0.3c-4.9-1.2-9.3-3.7-12.9-7.3l-0.7-0.7c-5.2,1.3-10.6,1.9-16,1.7 c-10.8,0-21.2-2.4-27.8-7.3V114c0,6.6,13.9,10.8,28.1,10.8C62.5,124.8,77.1,121,77.1,114 M77.1,49.4V35.1 c-7,5.2-18.4,7.6-29.5,7.3c-10.8,0-21.2-2.4-27.8-7.3v14.2c0,6.3,13.9,10.4,28.1,10.4C62.5,59.8,77.1,55.9,77.1,49.4"></path> <path d="M76.8,94.2c0.8,1.2,0.6,2.8-0.6,3.6c-1,0.7-2.3,0.6-3.2-0.1c-5.9-6.1-5.9-15.8,0-21.9c1-1,2.7-1,3.7,0.1 c0.9,0.9,1,2.4,0.2,3.4c-0.7,0.3-1,1-1.7,1.7c-2.5,4.1-2.1,9.2,1,12.9C76.4,93.8,76.4,94.2,76.8,94.2"></path> <path d="M97.3,99.7c-7.2,7.2-18.9,7.2-26.1,0c-7.2-7.2-7.2-18.9,0-26.1c7.2-7.2,18.9-7.2,26.1,0c0,0,0,0,0,0 C104.2,80.9,104.2,92.4,97.3,99.7 M120.9,117.8L103.2,100c6.3-9,5.6-21.9-2.4-29.9c-9.1-9-23.9-9-33,0 c-9.1,8.8-9.4,23.2-0.6,32.4c0.2,0.2,0.4,0.4,0.6,0.6c7.9,7.9,20.3,9.1,29.5,2.8l17.7,17.3c1.5,1.6,4,1.7,5.7,0.2 c0.1-0.1,0.2-0.2,0.2-0.2C122.3,121.7,122.3,119.4,120.9,117.8"></path> </g> </g> </g> </g> </svg> 