<?xml version="1.0" encoding="UTF-8"?> <!-- Generator: Adobe Illustrator 23.0.3, SVG Export Plug-In . SVG Version: 6.00 Build 0) --> <svg xmlns="http://www.w3.org/2000/svg" xmlns:xlink="http://www.w3.org/1999/xlink" id="Layer_1" x="0px" y="0px" viewBox="0 0 141.7 141.7" style="enable-background:new 0 0 141.7 141.7;" xml:space="preserve"> <title>Untitled-1</title> <g> <g> <g> <g> <path d="M34.5,98.8c-2.2,1-3.7,3.2-3.7,5.6c0,3.2,2.6,5.9,5.8,5.9c0,0,0,0,0.1,0c3.2-0.1,5.8-2.7,5.9-5.9c0.1-3.2-2.4-5.9-5.6-6 C36.2,98.4,35.3,98.5,34.5,98.8"></path> <path d="M37.4,42.7c3.3,0,6-2.6,6-5.9c0-0.8-0.1-1.5-0.4-2.2c-0.9-2.3-3.1-3.8-5.6-3.7c-3.3,0-5.9,2.7-5.9,5.9 C31.5,40.1,34.1,42.7,37.4,42.7"></path> <path d="M29,71c0-3.3-2.7-6-6-6s-6,2.7-6,6s2.7,6,6,6S29,74.3,29,71"></path> <path d="M70.9,112.9c-3.2,0-5.9,2.6-5.9,5.8c0,0,0,0,0,0.1c0,3.3,2.7,5.9,5.9,5.9c3.3,0,5.9-2.7,5.9-5.9 C76.8,115.5,74.1,112.9,70.9,112.9"></path> <path d="M70.9,29L70.9,29c3.3,0,6-2.6,6.1-5.9c0-3.3-2.6-6-5.9-6.1c-3.2,0-5.9,2.6-5.9,5.8c0,0,0,0,0,0.1 c-0.2,3.1,2.1,5.8,5.3,6.1C70.5,29,70.7,29,70.9,29"></path> <path d="M104.2,98.8c-3.3,0-5.9,2.7-5.9,5.9c0,3.3,2.7,5.9,5.9,5.9c3.2,0,5.9-2.6,5.9-5.8c0,0,0,0,0-0.1 C110,101.5,107.4,98.9,104.2,98.8"></path> <path d="M104.9,43.2c3.3,0,5.9-2.6,6.1-5.9c0-3.3-2.6-5.9-5.9-5.9c-3.3,0-5.9,2.6-5.9,5.9c0,0,0,0,0,0 C98.8,40.5,101.7,43.2,104.9,43.2"></path> <path d="M118.8,65c-3.3,0-5.9,2.7-5.9,5.9c0,3.3,2.6,5.9,5.9,5.9c3.3,0,5.9-2.7,5.9-5.9C124.7,67.6,122.1,65,118.8,65"></path> <path d="M71.7,81.4c-5.8,0-10.5-4.6-10.5-10.4c0-5.8,4.6-10.5,10.4-10.5c5.8,0,10.5,4.6,10.5,10.4c0,0,0,0.1,0,0.1 C82.1,76.7,77.5,81.4,71.7,81.4 M93.6,84c1.1-2,2-4.2,2.7-6.4l4.5-0.2c0.9-0.1,1.6-0.8,1.7-1.7v-9.2c0-0.9-0.8-1.7-1.7-1.7 l-3-0.2h-1.5c-0.6-2.3-1.5-4.4-2.7-6.4l3-3.4c0.7-0.6,0.7-1.7,0-2.3c0,0,0,0,0,0l-6.4-6.4c-0.6-0.6-1.7-0.7-2.3,0c0,0,0,0,0,0 l-3.4,3c-2-1.1-4.2-2.1-6.4-2.7l-0.2-4.6c-0.1-0.9-0.8-1.6-1.7-1.7h-9.1c-0.9,0-1.7,0.8-1.7,1.7c0,0,0,0,0,0l-0.2,4.6 c-2.3,0.6-4.4,1.5-6.4,2.7l-3.4-3c-0.6-0.7-1.7-0.7-2.3,0c0,0,0,0,0,0l-6.4,6.3c-0.7,0.6-0.7,1.6-0.1,2.3c0,0,0,0,0.1,0.1l3,3.4 c-1.1,2-2,4.2-2.7,6.4l-4.5,0.2c-0.9,0.1-1.6,0.8-1.7,1.7v9.1c0,0.9,0.8,1.7,1.7,1.7l4.5,0.2c0.6,2.3,1.5,4.4,2.7,6.4l-3,3.4 c-0.7,0.6-0.7,1.6-0.1,2.3c0,0,0,0,0.1,0.1l6.4,6.5c0.6,0.7,1.7,0.7,2.3,0c0,0,0,0,0,0l3.4-3c2,1.1,4.2,2.1,6.4,2.7l0.2,4.6 c0.1,0.9,0.8,1.6,1.7,1.7h9.1c0.9,0,1.7-0.8,1.7-1.7l0.2-4.6c2.3-0.6,4.4-1.5,6.4-2.7l3.4,3c0.6,0.6,1.7,0.7,2.3,0c0,0,0,0,0,0 l6.4-6.4c0.7-0.6,0.7-1.7,0-2.3c0,0,0,0,0,0L93.6,84z"></path> <path d="M46.6,34.9l16.5-6.6c-0.6-0.9-1.1-2-1.3-3l-16.5,6.6c0.3,0.5,0.5,1,0.8,1.5C46.3,33.8,46.5,34.4,46.6,34.9"></path> <path d="M106.6,46.4l6.7,16.9c0.9-0.7,1.9-1.2,3-1.3l-6.7-16.7C108.6,45.8,107.6,46.2,106.6,46.4"></path> <path d="M97,32.2L80,25c-0.2,1.2-0.7,2.3-1.3,3.2l17,7.3C95.9,34.3,96.4,33.2,97,32.2"></path> <path d="M44.4,109.7l17.3,7.4c0.2-1.1,0.6-2.1,1.2-3l-17.2-7.4C45.5,107.7,45,108.7,44.4,109.7"></path> <path d="M106.4,95.8c1.1,0.2,2.1,0.7,3,1.3l7.2-17.1c-1.1-0.2-2.1-0.7-3-1.3L106.4,95.8z"></path> <path d="M78.6,113.7c0.6,0.9,1.1,1.9,1.3,3l16.5-6.7c-0.7-0.9-1.1-1.9-1.3-3L78.6,113.7z"></path> <path d="M33.2,95.8c0.5-0.2,1-0.3,1.7-0.5l-6.6-16.6c-0.9,0.7-1.9,1.1-3,1.3l6.6,16.4C32.3,96.2,32.7,96,33.2,95.8"></path> <path d="M35.3,45.9c-1.1-0.2-2.1-0.6-3-1.3l-7.4,17.2c1.1,0.3,2.2,0.7,3.2,1.3L35.3,45.9z"></path> </g> </g> </g> </g> </svg> 