<?xml version="1.0" encoding="UTF-8"?> <!-- Generator: Adobe Illustrator 23.0.3, SVG Export Plug-In . SVG Version: 6.00 Build 0) --> <svg xmlns="http://www.w3.org/2000/svg" xmlns:xlink="http://www.w3.org/1999/xlink" id="Layer_1" x="0px" y="0px" viewBox="0 0 141.7 141.7" style="enable-background:new 0 0 141.7 141.7;" xml:space="preserve"> <title>Untitled-1</title> <g> <g> <polygon points="77.1,48.1 76.8,50.4 75.4,52.3 73.4,53.4 71.2,54.2 69,53.5 66.9,52.4 65.7,50.4 65.4,48.1 65.8,45.8 67.2,44 68.9,42.4 71.2,42.2 73.4,42.6 75.2,44 76.4,45.9 "></polygon> <polygon points="75.5,71.7 75.4,74.1 74.1,76.1 72,77.1 69.8,78 67.5,77.4 65.8,75.8 64.2,74.1 63.8,71.7 64.5,69.4 65.6,67.4 67.5,66.1 69.8,65.3 72.1,66.1 73.9,67.5 75.4,69.3 "></polygon> <polygon points="72.1,62.8 72,65 70.7,66.9 68.9,68.1 66.8,68.4 64.6,68.1 62.8,66.9 61.5,65 61.2,62.8 61.7,60.6 62.8,58.8 64.6,57.5 66.8,57.2 68.9,57.5 70.8,58.6 71.6,60.7 "></polygon> <polygon points="88.5,68.6 88.2,71.3 86.4,73.4 83.7,74 81.2,73.2 79.3,71.2 78.7,68.6 79.4,65.9 81.3,64 83.7,63.1 86.2,64 88.1,65.9 "></polygon> <polygon points="87.6,36.8 87.2,39.2 85.9,41.2 83.9,42.5 81.5,42.9 79.2,42.5 77.3,41.1 75.9,39.2 75.2,36.8 75.9,34.5 77.4,32.7 79.2,31.2 81.5,30.8 83.8,31.4 85.7,32.7 86.9,34.6 "></polygon> <polygon points="103.1,31.6 102.7,34 101.4,36 99.5,37.5 97.1,38.1 94.7,37.5 92.6,36.2 91.4,34 91.2,31.6 91.4,29.2 92.6,27.1 94.7,25.7 97.1,25.5 99.3,26 101.2,27.3 102.9,29.1 "></polygon> <polygon points="109.9,40.2 109.4,42.7 108.2,44.9 106.2,46.5 103.7,47 101.2,46.6 99.4,44.7 97.9,42.7 97.9,40.2 98.3,37.8 99.4,35.6 101.4,34.2 103.7,33.7 106.1,34.1 108.1,35.5 109.4,37.7 "></polygon> <polygon points="99.1,57.7 98.7,59.9 97.3,61.8 95.3,62.9 93,63.5 90.6,63.3 88.7,61.9 87.1,60 86.7,57.7 87.2,55.3 88.5,53.3 90.7,52.3 93,52 95.3,52.3 97.5,53.3 98.7,55.4 "></polygon> <g> <g> <path d="M21.9,115.9c-0.6,0-1.1-0.5-1.1-1.1c0-0.3,0.1-0.6,0.3-0.8c0.5-0.5,53.2-52.4,58.8-57.8c5.4-5.2,11.6-18.1,12.9-21.1 c0.2-0.6,0.9-0.8,1.4-0.6c0.6,0.2,0.8,0.9,0.6,1.4c-1.4,3.2-7.7,16.2-13.4,21.8s-58.3,57.2-58.8,57.8 C22.5,115.8,22.2,115.9,21.9,115.9"></path> <path d="M90,45.8c-0.6,0-1.1-0.5-1.1-1.1c0-0.4,0.3-0.8,0.7-1c0.9-0.3,8.5-3.3,10.8-3.5c0.6-0.1,1.1,0.3,1.2,0.9 s-0.3,1.1-0.9,1.2c0,0-0.1,0-0.1,0c-1.7,0.2-7.9,2.5-10.2,3.4C90.3,45.8,90.1,45.8,90,45.8"></path> <path d="M76.9,61.7c-0.3,0-0.6-0.1-0.8-0.4c-0.4-0.4-0.5-1-0.2-1.5c0.4-1,3-11.1,4.6-17.2c0.2-0.6,0.7-0.9,1.3-0.8 c0.6,0.1,0.9,0.7,0.8,1.3c-0.3,1.4-2.9,11.5-4.1,15.7h0.1c2.1-0.9,5.2-2.3,8.3-2.3c0.6-0.1,1.1,0.4,1.2,1c0.1,0.6-0.4,1.1-1,1.2 c-0.1,0-0.1,0-0.2,0c-2.6,0-5.5,1.3-7.4,2.1C78.6,61.3,77.8,61.6,76.9,61.7"></path> <path d="M71.8,71.1c-2,0-3.5-0.3-4.2-1.2c-0.4-0.5-0.6-1.2-0.4-1.9c0.8-2.7,2.8-15.5,2.8-15.6c0.1-0.6,0.7-0.9,1.3-0.8 c0.5,0.1,0.9,0.6,0.8,1.1c-0.1,0.5-2,12.9-2.8,15.8c1,0.3,2,0.5,3,0.3c1.7,0,3.7-0.2,5.2-0.4c0.8-0.1,1.5-0.2,2-0.2 c0.6,0,1.1,0.5,1.1,1.1c0,0.5-0.4,1-0.9,1.1c-0.5,0-1.1,0.1-1.9,0.2C75.7,70.9,73.8,71.1,71.8,71.1"></path> <path d="M44.3,92.8c0,0,4.7-14.1,5.8-17.6s4.5-20.6,9.9-28.7s15.6-26.5,20-29.3c0,0-11.7,38.2-17.2,44.2S53,73,52.6,76 S49.2,86.8,49,88.2S44.4,92.8,44.3,92.8"></path> <path d="M53.4,82.9c0,0,7.3,0.2,17.4-3.2s36.6-1.2,41.4,0.8s6.1,1,8.7,4.8c0,0-8.3,0.2-16,0.8s-23,3.2-32.3,0.4 c-2.2-0.7-16.4-2.6-20-0.4S53.4,82.9,53.4,82.9"></path> <path d="M38.1,98.3c0,0,1.8-11.7,3-14.8s8.1-21.8,6.9-29.9s-2.6-23.2-4-26.1s-4-7.7-4.4-10.5c0,0-3.4,9.5,0,22.4 s2,15.5-0.4,23.6s-2.8,16.6-1.4,20.2s-2.4,17-2.4,17L38.1,98.3z"></path> <path d="M47.8,97.1c-2.6,0.2-5.2,0.1-7.7-0.4l3-2.2c2.5,0.4,5,0.4,7.5,0.2c3.4-0.4,16.1,2.6,19.2,4c3.4,1.6,19.4,11.5,21.6,18 s0.4,8.1,0.4,8.1s-5.6-10.5-16.8-15.3"></path> </g> </g> </g> </g> </svg> 