<?xml version="1.0" encoding="UTF-8"?><svg id="Layer_2" xmlns="http://www.w3.org/2000/svg" viewBox="0 0 998.85 948.65"><g id="Layer_1-2"><g><path d="M763.44,173.26c10.83,6.81,20.11,23.82,13.92,64.66,0,0,29.7,28.46,11.14,54.45l62.57,47.03,5.49,40.84,18.56,11.14,45.79,74.25s37.13,110.14-61.88,220.28l-53.21,101.48s-31.33-10.44-56.58,15.68c-3.8,3.93-10.13,3.81-13.77-.26l-5.84-6.54c-3.87-4.33-9.9-6.03-15.45-4.33-20.7,6.37-73.31,15.39-104.05-43.64,0,0,7.78-38.89-24.11-49.78l-6.1-26.16c-2.28-9.76-13.75-14.06-21.88-8.21l-27.24,19.59-1.3,.76c-5.01,2.94-11.39-.15-12.19-5.9-1.52-10.97-6.96-26-24.62-32.98l-3.89-17.11s-67.83-55.02-123.37-5.55c-1.78,1.58-3.94,2.67-6.28,3.09l-51.28,9.2c-3.71,.67-7.06,2.62-9.47,5.53l-12.38,14.96c-1.68,2.03-3.9,3.53-6.4,4.33l-39.72,12.77-36.56,6.22-61.13,31.21c-7.62,3.89-16.55,4.31-24.5,1.16l-18.51-7.34c-7.6-3.01-11.87-11.1-10.09-19.09,6.18-27.77,10.55-94.06-63.11-157.62l5.44-35.78-20.22-34.22,7-31.89-13.09-9.4,16.09-29.7,40.84-12.38,73.01-44.55s66.83-11.14,65.59-91.58l28.46,13.61,7.43-29.7,32.18-47.03,45.79-23.51,51.98,28.46,19.8-55.69,59.4-6.19,14.91-37.13,51.92,24.75,50.74,8.66-37.13,63.11,79.2,43.31,12.38,27.84s29.55,10.85,48.88-5.24" fill="none" opacity=".4" stroke="#d66f53" stroke-linecap="round" stroke-linejoin="round" stroke-width="10.27"/><path d="M19.11,343.45l9.08-16.76c1.78-3.28,4.78-5.73,8.36-6.82l38.02-11.52,77.96-47.57s61.69-10.28,69.29-80.77c.87-8.06,9.39-12.87,16.7-9.38h0c7.46,3.57,16.32-.6,18.32-8.62l3.25-12.98c.53-2.12,1.43-4.12,2.66-5.92l30.2-44.14c1.5-2.2,3.53-3.99,5.91-5.21l36.5-18.74c5.49-2.82,12.03-2.73,17.44,.23l32.07,17.56c7.75,4.24,17.45,.54,20.41-7.78l11.44-32.17c2.48-6.98,8.75-11.91,16.12-12.68l41.55-4.33c6.04-.63,11.23-4.55,13.49-10.18l6.96-17.34c2.86-7.12,11.14-10.35,18.07-7.05l40.41,19.26c1.49,.71,3.06,1.21,4.68,1.48l32.77,5.59c9.16,1.56,13.92,11.81,9.21,19.82l-20.55,34.93c-5.11,8.69-2.02,19.88,6.82,24.72l61.81,33.8c4.28,2.34,7.67,6.02,9.65,10.47l6.25,14.05c2.68,6.02,8.15,10.37,14.64,11.51,21.9,3.83,68.79,2.52,57.14-83.3-.3-2.22-.21-4.48,.27-6.67l12.73-57.89c.7-3.18,2.04-6.18,3.94-8.82l9.73-13.53c5.33-7.41,16.92-5.01,18.87,3.91l14.13,64.69c1.66,7.59,7.88,13.43,15.59,14.35,13.92,1.66,34,12.7,28.53,64.09-.6,5.63,1.01,11.26,4.48,15.73,6.77,8.71,16.54,25.06,11.19,41.85-2.09,6.56,.24,13.73,5.74,17.86l56.09,42.16,5.86,43.6,19.82,11.89,48.89,79.28s39.64,117.6-66.07,235.2l-56.82,108.35s-32.94-10.98-59.78,16.1c-4.47,4.51-11.86,4.25-16.09-.49l-6.82-7.63c-3.37-3.77-8.65-5.22-13.46-3.65-20.2,6.58-75.83,17.98-109.88-40.76-1.81-3.12-2.57-6.73-2.26-10.32,.89-10.5,.44-34.71-20.49-45.61-3.79-1.98-6.58-5.45-7.56-9.61l-6.95-29.8c-1.44-6.15-8.67-8.87-13.8-5.18l-36.56,26.3-3.67,2.16c-4.37,2.57-9.96-.24-10.46-5.29-1.05-10.65-5.42-26.18-21.07-34.96-3.63-2.04-6.18-5.58-7.1-9.64l-1.16-5.12c-.94-4.12-3.39-7.73-6.87-10.12-18.01-12.33-77.04-46.27-126.69-1.51-1.59,1.43-3.54,2.4-5.64,2.78l-56.61,10.16c-3.15,.57-6,2.23-8.04,4.69l-13.97,16.87c-1.83,2.21-4.26,3.86-7,4.74l-42.32,13.6-33.42,5.69c-3.72,.63-7.32,1.83-10.68,3.55l-67.13,34.28c-3.73,1.9-8.09,2.11-11.98,.57l-29.97-11.88c-6.54-2.59-10.14-9.61-8.46-16.44,6.66-27.04,14.05-96.99-60.23-165.27-4.06-3.73-5.97-9.25-5.14-14.71l3.56-23.36c.58-3.83-.18-7.74-2.15-11.07l-15.03-25.43c-2.26-3.83-2.99-8.37-2.04-12.71l5.99-27.3-4.89-3.51c-5.19-3.73-6.8-10.73-3.76-16.35Z" fill="#d66f53"/><path d="M713.01,825.29l33.21,10.42c5.09,1.59,10.56,1.4,15.52-.55l24.13-9.48c6.81-2.68,13.91,3.16,12.61,10.36l-9.6,53.03c-3.45,19.05-20.04,32.9-39.4,32.9h0c-20.82,0-38.67-14.87-42.44-35.34l-8.87-48.21c-1.58-8.57,6.53-15.74,14.84-13.13Z" fill="#d66f53"/><path d="M696.34,846.84l33.21,10.42c5.09,1.59,10.56,1.4,15.52-.55l24.13-9.48c6.81-2.68,13.91,3.16,12.61,10.36l-9.6,53.03c-3.45,19.05-20.04,32.9-39.4,32.9h0c-20.82,0-38.67-14.87-42.44-35.34l-8.87-48.21c-1.58-8.57,6.53-15.74,14.84-13.13Z" fill="none" opacity=".4" stroke="#d66f53" stroke-linecap="round" stroke-linejoin="round" stroke-width="10.27"/></g></g></svg>