<?xml version="1.0" encoding="UTF-8" standalone="no"?>
<!DOCTYPE svg PUBLIC "-//W3C//DTD SVG 1.1//EN" "http://www.w3.org/Graphics/SVG/1.1/DTD/svg11.dtd">
<svg width="100%" height="100%" viewBox="0 0 187 176" version="1.1" xmlns="http://www.w3.org/2000/svg" xmlns:xlink="http://www.w3.org/1999/xlink" xml:space="preserve" xmlns:serif="http://www.serif.com/" style="fill-rule:evenodd;clip-rule:evenodd;stroke-linejoin:round;stroke-miterlimit:2;">
    <g transform="matrix(1,0,0,1,-42.2301,-491.917)">
        <g transform="matrix(1.51437,0,0,1.5089,-653.457,-608.806)">
            <path d="M514.08,826.37C509.886,827.29 505.73,827.927 501.908,828.099C501.908,828.099 492.808,833.045 488.244,835.493C477.796,841.096 471.675,843.162 471.675,843.162L459.389,843.092C480.028,826.829 493.059,799.645 506.367,779.766C518.712,761.297 531.811,727.866 549.747,729.55C563.921,730.881 568.503,736.695 568.503,736.86L582.524,737.555C582.524,737.555 571.123,741.895 568.542,747.517C567.744,749.255 565.915,752.287 565.906,756.497C565.89,763.569 565.642,769.876 565.301,777.106C564.885,785.944 560.379,796.468 556.236,803.206C552.513,809.261 546.905,814.574 540.443,817.535C535.787,819.668 529.127,822.248 522.009,824.329C524.61,828.433 527.467,833.118 529.1,835.812C536.885,837.649 543.815,840.242 550.161,843.351C546.315,843.957 545.897,843.186 542.367,842.798C539.016,842.429 532.565,841.11 529.285,841.456C527.785,841.615 523.695,842.486 522.414,843.066C519.82,844.239 520.868,844.475 515.913,845.594L525.463,836.202C521.623,832.129 518.385,829.136 514.08,826.37ZM505.154,825.027C508.15,823.623 511.184,822.256 514.304,820.998C516.345,820.175 518.38,819.417 520.464,818.799C521.643,818.42 522.857,818.121 524.08,817.794C525.955,817.293 527.863,816.83 529.702,816.187C531.875,815.426 533.934,814.418 535.834,813.177C538.536,811.211 541.048,808.699 543.16,805.816C545.206,803.023 546.852,799.998 548.221,797.088C546.289,799.578 544.004,802.046 541.519,804.356C539.127,806.578 536.58,808.568 533.858,809.949C532.992,810.423 532.079,810.794 531.163,811.177C529.659,811.806 528.106,812.35 526.552,812.903C524.067,813.787 521.602,814.708 519.272,815.775C517.243,816.787 515.269,817.898 513.342,819.146C510.495,820.989 507.817,823.018 505.154,825.027ZM554.792,734.985C556.531,734.985 557.943,736.397 557.943,738.136C557.943,739.875 556.531,741.286 554.792,741.286C553.053,741.286 551.641,739.875 551.641,738.136C551.641,736.397 553.053,734.985 554.792,734.985Z" style="fill:rgb(0,1,1);"/>
        </g>
    </g>
</svg>
