<?xml version="1.0" encoding="UTF-8" standalone="no"?>
<!DOCTYPE svg PUBLIC "-//W3C//DTD SVG 1.1//EN" "http://www.w3.org/Graphics/SVG/1.1/DTD/svg11.dtd">
<svg width="100%" height="100%" viewBox="0 0 187 172" version="1.1" xmlns="http://www.w3.org/2000/svg" xmlns:xlink="http://www.w3.org/1999/xlink" xml:space="preserve" xmlns:serif="http://www.serif.com/" style="fill-rule:evenodd;clip-rule:evenodd;stroke-linejoin:round;stroke-miterlimit:2;">
    <g transform="matrix(1,0,0,1,-267.529,-493.267)">
        <g transform="matrix(0.863824,0,0,0.863824,-18.8171,279.039)">
            <g transform="matrix(0.987268,0,0,0.988718,-167.912,-124.071)">
                <ellipse cx="579.485" cy="420.444" rx="32.009" ry="44.127"/>
            </g>
        </g>
        <g transform="matrix(0.863824,0,0,0.863824,-18.8171,279.039)">
            <g transform="matrix(1,0,0,1,-103.742,-128.317)">
                <ellipse cx="579.485" cy="420.444" rx="32.009" ry="44.127"/>
            </g>
        </g>
        <g transform="matrix(0.863824,0,0,0.863824,-18.8171,279.039)">
            <g transform="matrix(0.628212,0.321175,-0.343899,0.67266,302.859,-124.893)">
                <ellipse cx="579.485" cy="420.444" rx="32.009" ry="44.127"/>
            </g>
        </g>
        <g transform="matrix(0.863824,0,0,0.863824,-18.8171,279.039)">
            <g transform="matrix(0.611026,-0.352776,0.377736,0.654258,-155.717,272.975)">
                <ellipse cx="579.485" cy="420.444" rx="32.009" ry="44.127"/>
            </g>
        </g>
        <g transform="matrix(0.863824,0,0,0.863824,-18.8171,279.039)">
            <g transform="matrix(0.433087,0,0,0.369542,228.267,244.313)">
                <path d="M572.793,545.79C601.796,545.14 621.762,526.598 638.024,502.791C654.285,478.983 657.738,448.681 647.25,421.825L589.322,325.602C576.246,292.119 543.978,270.079 508.033,270.079L473.579,270.079C437.634,270.079 405.365,292.119 392.29,325.602L334.362,421.825C323.874,448.681 327.327,478.983 343.588,502.791C359.849,526.598 392.652,539.275 415.651,540.838C438.65,542.401 465.46,525.29 490.528,525.502C520.472,525.754 537.662,546.578 572.793,545.79Z"/>
            </g>
        </g>
    </g>
</svg>
