<?xml version="1.0" encoding="UTF-8" standalone="no"?>
<!DOCTYPE svg PUBLIC "-//W3C//DTD SVG 1.1//EN" "http://www.w3.org/Graphics/SVG/1.1/DTD/svg11.dtd">
<svg width="100%" height="100%" viewBox="0 0 188 167" version="1.1" xmlns="http://www.w3.org/2000/svg" xmlns:xlink="http://www.w3.org/1999/xlink" xml:space="preserve" xmlns:serif="http://www.serif.com/" style="fill-rule:evenodd;clip-rule:evenodd;stroke-linejoin:round;stroke-miterlimit:2;">
    <g transform="matrix(1,0,0,1,-265.294,-44.2697)">
        <g transform="matrix(0.965836,0.259152,-0.259152,0.965836,-193.954,-684.89)">
            <path d="M778.905,704.345C775.484,707.995 771.78,711.246 768.504,714.24C760.279,721.759 748.362,728.215 734.092,728.215C683.612,728.215 659.096,696 650.599,650.746C642.167,605.839 689.015,555.095 747.049,560.31C838.851,568.56 843.323,653.338 843.323,653.338C843.323,653.338 829.449,685.986 794.217,689.083C795.802,684.929 798.935,665.98 797.524,656.361C795.876,645.119 792.014,635.597 787.275,627.909C780.514,616.942 771.961,609.692 765.489,606.377C759.371,603.243 746.676,599.308 732.703,599.112C721.73,598.959 710,601.092 700.002,607.504C690.051,613.887 683.973,622.824 680.65,631.912C676.235,643.989 676.731,656.297 679.191,663.103C681.582,669.719 685.775,678.982 693.41,686.917C699.228,692.964 707.02,698.261 717.523,701.055C727.419,703.685 735.063,703.325 741.092,701.446C750.21,698.606 755.73,692.277 759.706,686.93C763.158,682.286 766.735,675.518 768.324,668.009C769.753,661.263 769.599,653.937 766.456,646.983C763.04,639.447 757.098,633.33 749.736,629.649C742.752,626.156 734.507,624.833 726.004,626.543C717.928,628.178 711.413,633.664 707.341,640.227C706.88,640.969 706.451,641.725 706.055,642.489C702.79,648.149 701.532,654.474 702.771,659.379C705.699,670.972 716.402,679.256 727.031,680.739C737.833,682.246 748.628,677.002 751.336,661.325C751.524,660.237 750.794,659.201 749.706,659.013C748.618,658.826 747.583,659.556 747.395,660.644C746.318,666.876 743.721,671.144 740.321,673.751C736.476,675.877 731.927,676.015 728.251,675.757C724.295,675.48 720.024,673.958 716.181,671.182C712.901,668.813 709.945,665.515 707.771,661.265C705.3,656.446 706.931,648.932 711.062,642.593C712.124,640.965 713.36,639.412 714.756,638.002C718.293,634.82 722.79,632.587 727.966,632.322C747.731,631.309 759.109,640.795 762.604,652.994C763.801,657.639 763.587,662.355 762.598,666.761C761.124,673.33 757.911,679.225 754.834,683.261C751.455,687.692 746.885,693.07 739.234,695.357C734.103,696.89 727.623,696.998 719.257,694.675C710.145,692.147 703.409,687.479 698.403,682.164C691.649,674.992 688.029,666.641 685.953,660.699C683.947,654.959 683.855,644.628 687.67,634.52C690.552,626.885 695.725,619.375 704.172,614.076C712.872,608.617 723.062,606.984 732.549,607.211C744.953,607.508 756.211,611.014 761.616,613.849C767.089,616.721 774.192,623.06 779.846,632.438C783.958,639.259 787.273,647.693 788.628,657.621C789.787,666.111 788.839,674.504 787.177,681.796C784.528,693.414 780.019,702.264 778.905,704.345Z"/>
        </g>
    </g>
</svg>
