<?xml version="1.0" encoding="UTF-8" standalone="no"?>
<!DOCTYPE svg PUBLIC "-//W3C//DTD SVG 1.1//EN" "http://www.w3.org/Graphics/SVG/1.1/DTD/svg11.dtd">
<svg width="100%" height="100%" viewBox="0 0 187 166" version="1.1" xmlns="http://www.w3.org/2000/svg" xmlns:xlink="http://www.w3.org/1999/xlink" xml:space="preserve" xmlns:serif="http://www.serif.com/" style="fill-rule:evenodd;clip-rule:evenodd;stroke-linejoin:round;stroke-miterlimit:2;">
    <g transform="matrix(1,0,0,1,-42.2301,-38.4798)">
        <g transform="matrix(1.86834,0,0,1.86834,-1258.87,-385.247)">
            <g transform="matrix(1,0,0,1,0,-54.785)">
                <path d="M739.197,336.798C738.335,332.221 736.77,328.087 734.881,324.37C733.465,321.584 731.84,319.049 730.179,316.726C729.275,315.461 728.371,314.256 727.465,313.116C726.479,311.875 725.514,310.707 724.557,309.625C723.234,308.128 721.968,306.798 720.787,305.636C717.192,302.095 714.525,300.187 714.525,300.187C714.525,300.187 717.549,301.579 721.703,304.546C723.089,305.535 724.58,306.695 726.127,308.044C727.259,309.031 728.409,310.11 729.547,311.301C730.603,312.406 731.644,313.6 732.644,314.888C734.5,317.278 736.219,319.978 737.717,322.93C739.747,326.933 741.321,331.433 742.172,336.379L742.199,336.373C742.802,343.153 742.838,349.555 742.755,354.534C742.719,356.741 744.481,358.563 746.688,358.6C748.896,358.636 750.718,356.874 750.754,354.666C750.931,343.997 750.497,327.235 745.805,313.328C742.426,303.312 736.826,294.788 728.114,290.386C720.337,286.457 701.856,282.679 701.856,282.679L696.394,281.579L697.098,287.106C697.098,287.106 700.152,310.113 703.36,316.475C709.297,328.247 724.865,338.021 739.197,336.798Z" style="fill:rgb(1,0,0);"/>
            </g>
            <g transform="matrix(1,0,0,1,0,-54.785)">
                <path d="M751.024,350.132L750.987,350.129C751.357,345.59 752.777,341.551 754.852,338.073C756.333,335.59 758.124,333.372 760.102,331.492C761.136,330.509 762.22,329.62 763.328,328.827C764.499,327.99 765.684,327.261 766.861,326.627C768.432,325.78 769.955,325.104 771.39,324.592C774.68,323.419 777.364,323.088 778.631,323.493C777.357,323.347 774.904,324.201 771.988,325.884C770.733,326.608 769.418,327.486 768.061,328.504C767.059,329.256 766.06,330.09 765.051,330.986C764.11,331.822 763.184,332.721 762.27,333.672C760.555,335.457 758.928,337.452 757.582,339.704C756.084,342.211 754.904,345.016 754.301,348.136C760.153,349.578 767.079,350.071 773.334,348.747C778.971,347.554 784.063,344.908 787.614,340.402C788.885,338.789 790.206,335.897 791.323,332.587C793.596,325.852 795.275,317.308 795.275,317.308L796.2,312.593L791.396,312.538C791.396,312.538 780.442,312.417 771.098,314.114C766.663,314.92 762.584,316.179 759.899,317.897C749.917,324.286 743.3,340.947 742.89,351.744C742.69,357.02 742.801,360.733 743.036,366.113C743.133,368.319 745.001,370.031 747.207,369.935C749.413,369.838 751.125,367.97 751.029,365.764C750.804,360.628 750.694,357.084 750.885,352.047C750.908,351.432 750.955,350.792 751.024,350.132Z" style="fill:rgb(1,0,0);"/>
            </g>
        </g>
    </g>
</svg>
