<svg width="20" height="20" viewBox="0 0 20 20" fill="none" xmlns="http://www.w3.org/2000/svg">
<path d="M1.33337 2.42423C1.33337 1.82355 1.81854 1.33838 2.41922 1.33838H4.58515C5.18006 1.33838 5.66522 1.82355 5.66522 2.42423V4.59015H1.33337V2.42423ZM1.33337 5.67023H5.66522V14.3339H1.33337V5.67023ZM1.33337 15.4198H5.66522V17.5857C5.66522 18.1864 5.18006 18.6716 4.57937 18.6716H2.41922C1.81854 18.6716 1.33337 18.1864 1.33337 17.5857V15.4198Z" fill="#F26649"/>
<path d="M6.75098 2.42394C6.75098 1.82342 7.23024 1.33838 7.83077 1.33838H9.99612C10.5966 1.33838 11.0817 1.82342 11.0817 2.42394V4.5893H6.75098V2.42394Z" fill="white"/>
<path d="M11.0828 5.67017H6.75098V14.3339H11.0828V5.67017Z" fill="white"/>
<path d="M6.75114 15.4197H11.0818V17.585C11.0818 18.1856 10.5968 18.6706 9.99628 18.6706H7.83093C7.2304 18.6706 6.74536 18.1856 6.74536 17.585V15.4197H6.75114Z" fill="white"/>
<path d="M15.2813 4.21402L12.1632 5.04551V1.71376L13.4105 1.37885C13.9821 1.22294 14.5769 1.56362 14.727 2.14105L15.2813 4.21402Z" fill="white"/>
<path d="M13.636 14.7441L12.1632 9.2109V6.17283L15.5594 5.26025L17.7946 13.6352L13.636 14.7441Z" fill="white"/>
<path d="M13.9186 15.7894L18.0765 14.6748L18.6309 16.7422C18.7811 17.3197 18.4461 17.9088 17.8686 18.0647L15.7897 18.6249C15.2179 18.7808 14.6231 18.4401 14.473 17.8626L13.9186 15.7894Z" fill="white"/>
</svg>
