<svg width="1440" height="1450" viewBox="0 0 1440 1450" fill="none" xmlns="http://www.w3.org/2000/svg">
<mask id="mask0_370_5410" style="mask-type:alpha" maskUnits="userSpaceOnUse" x="0" y="0" width="1440" height="1450">
<rect width="1440" height="1450" fill="#212121"/>
</mask>
<g mask="url(#mask0_370_5410)">
<path d="M1078.58 51.3208C1006.07 74.4026 965.894 152.304 988.852 225.011L1080.3 514.688L976.034 716.846L703.986 697.804L282.331 559.12C210.015 535.269 132.342 574.893 108.81 647.601C85.2787 720.308 124.689 798.402 196.814 822.253L406.685 891.306L315.811 970.746C258.417 1020.95 252.295 1108.27 302.228 1165.98C352.161 1223.68 439.017 1229.84 496.411 1179.64L724.457 980.363L952.12 996.328L992.487 1124.24L653.862 1203.87C579.824 1221.38 533.909 1295.81 551.127 1370.06C568.345 1444.5 642.383 1490.66 716.613 1473.16L1100.2 1382.95L1250.19 1667.43C1285.96 1734.95 1369.18 1760.72 1436.33 1724.75C1479.95 1701.48 1505.97 1658.01 1509.22 1612.04C1510.95 1587.03 1505.97 1561.26 1493.54 1537.6L1299.54 1170.02L1207.33 877.842L1329.2 641.638L1928.01 412.743C1981.39 393.893 2016.01 345.229 2019.65 291.949C2020.99 273.675 2018.5 254.825 2012.19 236.36C1986.93 164.422 1908.3 126.337 1836.56 151.727L1318.1 352.154L1251.72 141.532C1228.76 68.6322 1151.47 28.4313 1078.96 51.5131" fill="#212121"/>
</g>
</svg>
