<svg width="259" height="546" viewBox="0 0 259 546" fill="none" xmlns="http://www.w3.org/2000/svg">
<g clip-path="url(#clip0_781_1615)">
<path d="M114.831 5.49217e-06L102.854 22.7083C91.057 45.4167 66.835 90.8333 57.4153 136.25C47.9956 181.667 52.4812 227.083 64.5922 272.5C76.7032 317.917 95.5426 363.333 107.654 408.75C119.765 454.167 124.25 499.583 126.807 522.292L129.184 545L7.56493e-05 545L7.66419e-05 522.292C7.76345e-05 499.583 7.96197e-05 454.167 8.1605e-05 408.75C8.35902e-05 363.333 8.55754e-05 317.917 8.75606e-05 272.5C8.95459e-05 227.083 9.15311e-05 181.667 9.35163e-05 136.25C9.55015e-05 90.8333 9.74868e-05 45.4167 9.84794e-05 22.7083L9.9472e-05 4.72771e-07L114.831 5.49217e-06Z" fill="#F2F2F2"/>
</g>
<g clip-path="url(#clip0_781_1613)">
<path d="M153.381 7.33597e-06L137.384 22.75C121.626 45.5 89.2723 91 76.6903 136.5C64.1083 182 70.0997 227.5 86.2766 273C102.453 318.5 127.617 364 143.794 409.5C159.971 455 165.963 500.5 169.378 523.25L172.553 546L-2.88402e-05 546L-2.78458e-05 523.25C-2.68514e-05 500.5 -2.48625e-05 455 -2.28736e-05 409.5C-2.08848e-05 364 -1.88959e-05 318.5 -1.6907e-05 273C-1.49182e-05 227.5 -1.29293e-05 182 -1.09404e-05 136.5C-8.95155e-06 91 -6.96268e-06 45.5 -5.96825e-06 22.75L-4.97381e-06 6.31487e-07L153.381 7.33597e-06Z" fill="#F2F2F2" fill-opacity="0.65"/>
</g>
<g clip-path="url(#clip0_781_1611)">
<path d="M212.436 1.01605e-05L190.28 22.75C168.455 45.5 123.645 91 106.218 136.5C88.7917 182 97.09 227.5 119.495 273C141.901 318.5 176.754 364 199.159 409.5C221.564 455 229.863 500.5 234.593 523.25L238.991 546L-3.17102e-05 546L-3.07158e-05 523.25C-2.97213e-05 500.5 -2.77325e-05 455 -2.57436e-05 409.5C-2.37547e-05 364 -2.17659e-05 318.5 -1.9777e-05 273C-1.77881e-05 227.5 -1.57993e-05 182 -1.38104e-05 136.5C-1.18215e-05 91 -9.83266e-06 45.5 -8.83823e-06 22.75L-7.84379e-06 8.74627e-07L212.436 1.01605e-05Z" fill="#F2F2F2" fill-opacity="0.45"/>
</g>
<defs>
<clipPath id="clip0_781_1615">
<rect width="546" height="140" fill="white" transform="translate(140 6.11959e-06) rotate(90)"/>
</clipPath>
<clipPath id="clip0_781_1613">
<rect width="546" height="187" fill="white" transform="translate(187 8.17403e-06) rotate(90)"/>
</clipPath>
<clipPath id="clip0_781_1611">
<rect width="546" height="259" fill="white" transform="translate(259 1.13212e-05) rotate(90)"/>
</clipPath>
</defs>
</svg>