<svg width="20" height="20" viewBox="0 0 20 20" fill="none" xmlns="http://www.w3.org/2000/svg">
<path d="M9.66667 10.0001C11.6917 10.0001 13.3333 8.35846 13.3333 6.33341C13.3333 4.30837 11.6917 2.66675 9.66667 2.66675C7.64162 2.66675 6 4.30837 6 6.33341C6 8.35846 7.64162 10.0001 9.66667 10.0001Z" fill="black"/>
<path d="M4.94464 6.5428C5.02427 7.01492 5.18355 7.48704 5.37126 7.92503C5.46796 8.15256 5.57603 8.38009 5.6898 8.61331V16.9921L1.45207 18.6871C0.92307 18.8976 0.354248 18.5108 0.354248 17.942V8.91478C0.354248 8.59056 0.553336 8.29477 0.854811 8.16963L4.93895 6.53711L4.94464 6.5428Z" fill="white"/>
<path d="M14.2279 8.61332C14.3474 8.38579 14.4497 8.15258 14.5464 7.92505C14.5635 7.88523 14.5806 7.83973 14.5976 7.79991L18.4656 6.25271C18.9946 6.04225 19.5635 6.42905 19.5635 6.99787V16.0251C19.5635 16.3493 19.3644 16.6451 19.0629 16.7702L14.2336 18.6985V8.61332H14.2279Z" fill="white"/>
<path d="M11.2876 12.9989C11.7483 12.4187 12.4765 11.4744 13.1591 10.4333V18.7445L6.7594 16.9127V10.4333C7.44204 11.4744 8.17018 12.4187 8.63096 12.9989C9.3136 13.8522 10.5992 13.8522 11.2819 12.9989H11.2876Z" fill="white"/>
<path d="M15.5304 6.2412C15.5304 8.77814 12.1345 13.2946 10.6442 15.1546C10.2858 15.5983 9.62032 15.5983 9.26765 15.1546C7.77734 13.2946 4.38147 8.77246 4.38147 6.2412C4.38716 3.15819 6.8786 0.666748 9.96161 0.666748C13.0446 0.666748 15.5361 3.15819 15.5361 6.2412H15.5304ZM9.96161 7.72582C10.6271 7.72582 11.2358 7.37316 11.5714 6.79865C11.9013 6.22414 11.9013 5.51311 11.5714 4.9386C11.2415 4.36409 10.6271 4.01142 9.96161 4.01142C9.29609 4.01142 8.68745 4.36409 8.35185 4.9386C8.02193 5.51311 8.02193 6.22414 8.35185 6.79865C8.68176 7.37316 9.29609 7.72582 9.96161 7.72582Z" fill="#F26649"/>
</svg>
