<svg width="20" height="20" viewBox="0 0 20 20" fill="none" xmlns="http://www.w3.org/2000/svg">
<path d="M0 15.3335V5.3335C0 4.23483 0.896 3.3335 2 3.3335H6C6.62933 3.3335 7.22133 3.63216 7.6 4.1335L8.19733 4.9335C8.384 5.18416 8.68267 5.3335 8.99733 5.3335H14C15.104 5.3335 16 6.2295 16 7.3335V15.3335C16 16.4375 15.104 17.3335 14 17.3335H2C0.896 17.3335 0 16.4375 0 15.3335Z" fill="#9D9D9D"/>
<path d="M14.7778 5.3335H1.88889C0.845684 5.3335 0 6.14427 0 7.14441V15.5226C0 16.5227 0.845684 17.3335 1.88889 17.3335H14.7778C15.821 17.3335 16.6667 16.5227 16.6667 15.5226V7.14441C16.6667 6.14427 15.821 5.3335 14.7778 5.3335Z" fill="white"/>
<path d="M13.6667 9.99984C15.6917 9.99984 17.3333 8.35821 17.3333 6.33317C17.3333 4.30813 15.6917 2.6665 13.6667 2.6665C11.6416 2.6665 10 4.30813 10 6.33317C10 8.35821 11.6416 9.99984 13.6667 9.99984Z" fill="black"/>
<path d="M17.9986 6.33127C17.9986 7.28854 17.6898 8.17258 17.1666 8.88923L19.8038 11.5309C20.0654 11.7924 20.0654 12.2161 19.8038 12.4725C19.5422 12.7288 19.1183 12.734 18.8619 12.4725L16.2247 9.83081C15.5078 10.3539 14.6235 10.6625 13.666 10.6625C11.2694 10.6625 9.33337 8.72183 9.33337 6.33127C9.33337 3.9407 11.2694 2 13.666 2C16.0625 2 17.9986 3.9407 17.9986 6.33127ZM13.666 9.33386C14.7387 9.33386 15.7276 8.76368 16.2666 7.83256C16.8055 6.90145 16.8003 5.76109 16.2666 4.82997C15.7329 3.89885 14.7387 3.32867 13.666 3.32867C12.5933 3.32867 11.6043 3.89885 11.0654 4.82997C10.5264 5.76109 10.5316 6.90145 11.0654 7.83256C11.5991 8.76368 12.5933 9.33386 13.666 9.33386Z" fill="#F26649"/>
</svg>
