<svg width="20" height="20" viewBox="0 0 20 20" fill="none" xmlns="http://www.w3.org/2000/svg">
<path d="M1.91729 14.6667C0.249737 11.7796 0.249737 8.22053 1.91729 5.33341C3.58485 2.4463 6.66485 0.666748 9.99996 0.666748C13.3351 0.666748 16.4151 2.4463 18.0826 5.33341C19.7502 8.22053 19.7502 11.7796 18.0826 14.6667C16.4151 17.5539 13.3351 19.3334 9.99996 19.3334C6.66485 19.3334 3.58485 17.5539 1.91729 14.6667ZM9.33418 5.46408L7.92796 5.74408C7.36796 5.85608 7.28085 6.62141 7.80351 6.85164L9.36529 7.5423C9.55196 7.62319 9.75107 7.66675 9.9564 7.66675H11.0453C11.5617 7.66675 11.8231 7.0383 11.456 6.67119L10.6471 5.8623C10.3048 5.52008 9.80707 5.37075 9.32796 5.46408H9.33418ZM15.6622 13.6712C15.4382 13.4472 15.0648 13.4472 14.8408 13.6712L13.6711 14.841C13.4471 15.065 13.4471 15.4383 13.6711 15.6623C13.8951 15.8863 14.2684 15.8863 14.4924 15.6623L15.6622 14.4925C15.8862 14.2685 15.8862 13.8952 15.6622 13.6712ZM15.6497 11.1947C15.3448 11.2943 15.1768 11.6241 15.2826 11.929L15.5751 12.8063C15.6746 13.1112 16.0044 13.2792 16.3093 13.1734C16.6142 13.0676 16.7822 12.7441 16.6764 12.4392L16.384 11.5619C16.2844 11.257 15.9546 11.089 15.6497 11.1947Z" fill="white"/>
<path d="M8.27037 13.6898C8.35748 13.7209 8.44459 13.7644 8.51925 13.8142L9.44636 14.4115C9.7077 14.5795 10.0064 14.6666 10.3113 14.6666C10.8028 14.6666 11.2633 14.4426 11.5681 14.0569L12.0037 13.4969C12.2153 13.2293 12.3335 12.8933 12.3335 12.5511C12.3335 12.2089 12.2153 11.8729 12.0037 11.6053L11.3504 10.7715C11.1761 10.5475 11.033 10.2986 10.9335 10.0373L10.5664 9.09154C10.5104 8.9422 10.361 8.84265 10.1993 8.84265C10.0748 8.84265 9.95659 8.89865 9.88192 9.00443L9.50236 9.52087C9.32814 9.75731 9.04192 9.86931 8.7557 9.80709C8.63748 9.7822 8.5317 9.71376 8.46325 9.62043L8.29525 9.39643C8.03392 9.04798 7.61703 8.83643 7.18148 8.83643C6.74592 8.83643 6.32903 9.04176 6.0677 9.39643L5.87481 9.65154C5.81881 9.7262 5.74414 9.78843 5.65703 9.82576L4.36903 10.4355C3.62236 10.7902 3.31748 11.6986 3.70325 12.4329L3.82148 12.6569C4.15125 13.2791 4.87925 13.584 5.55125 13.3662L6.11125 13.1858C6.3477 13.1111 6.60903 13.1173 6.84548 13.1982L8.27037 13.6898Z" fill="#F26649"/>
<path d="M10.2927 17.0003H10.8775C11.2011 17.0003 11.4624 16.739 11.4624 16.4155C11.4624 16.0919 11.2011 15.8306 10.8775 15.8306H10.2927C9.9691 15.8306 9.70776 16.0919 9.70776 16.4155C9.70776 16.739 9.9691 17.0003 10.2927 17.0003Z" fill="#F26649"/>
</svg>
