<svg width="20" height="20" viewBox="0 0 20 20" fill="none" xmlns="http://www.w3.org/2000/svg">
<path d="M9.66667 10.0001C11.6917 10.0001 13.3333 8.35846 13.3333 6.33341C13.3333 4.30837 11.6917 2.66675 9.66667 2.66675C7.64162 2.66675 6 4.30837 6 6.33341C6 8.35846 7.64162 10.0001 9.66667 10.0001Z" fill="white"/>
<path d="M4.94458 6.5428C5.02421 7.01492 5.18348 7.48704 5.37119 7.92503C5.46789 8.15256 5.57597 8.38009 5.68973 8.61331V16.9921L1.45201 18.6871C0.923009 18.8976 0.354187 18.5108 0.354187 17.942V8.91478C0.354187 8.59056 0.553275 8.29477 0.85475 8.16963L4.93889 6.53711L4.94458 6.5428Z" fill="#212121"/>
<path d="M14.2279 8.61332C14.3474 8.38579 14.4497 8.15258 14.5464 7.92505C14.5635 7.88523 14.5806 7.83973 14.5976 7.79991L18.4656 6.25271C18.9946 6.04225 19.5635 6.42905 19.5635 6.99787V16.0251C19.5635 16.3493 19.3644 16.6451 19.0629 16.7702L14.2336 18.6985V8.61332H14.2279Z" fill="#212121"/>
<path d="M11.2875 12.9989C11.7483 12.4187 12.4764 11.4744 13.1591 10.4333V18.7445L6.75934 16.9127V10.4333C7.44198 11.4744 8.17012 12.4187 8.6309 12.9989C9.31354 13.8522 10.5992 13.8522 11.2818 12.9989H11.2875Z" fill="#212121"/>
<path d="M15.5303 6.2412C15.5303 8.77814 12.1344 13.2946 10.6441 15.1546C10.2857 15.5983 9.6202 15.5983 9.26753 15.1546C7.77721 13.2946 4.38135 8.77246 4.38135 6.2412C4.38704 3.15819 6.87847 0.666748 9.96149 0.666748C13.0445 0.666748 15.5359 3.15819 15.5359 6.2412H15.5303ZM9.96149 7.72582C10.627 7.72582 11.2356 7.37316 11.5713 6.79865C11.9012 6.22414 11.9012 5.51311 11.5713 4.9386C11.2413 4.36409 10.627 4.01142 9.96149 4.01142C9.29597 4.01142 8.68733 4.36409 8.35172 4.9386C8.02181 5.51311 8.02181 6.22414 8.35172 6.79865C8.68164 7.37316 9.29597 7.72582 9.96149 7.72582Z" fill="#F26649"/>
</svg>
