<svg width="20" height="20" viewBox="0 0 20 20" fill="none" xmlns="http://www.w3.org/2000/svg">
<path d="M1.91735 14.6667C0.249798 11.7796 0.249798 8.22053 1.91735 5.33341C3.58491 2.4463 6.66491 0.666748 10 0.666748C13.3351 0.666748 16.4151 2.4463 18.0827 5.33341C19.7502 8.22053 19.7502 11.7796 18.0827 14.6667C16.4151 17.5539 13.3351 19.3334 10 19.3334C6.66491 19.3334 3.58491 17.5539 1.91735 14.6667ZM9.33424 5.46408L7.92802 5.74408C7.36802 5.85608 7.28091 6.62141 7.80358 6.85164L9.36535 7.5423C9.55202 7.62319 9.75113 7.66675 9.95646 7.66675H11.0454C11.5618 7.66675 11.8231 7.0383 11.456 6.67119L10.6471 5.8623C10.3049 5.52008 9.80713 5.37075 9.32802 5.46408H9.33424ZM15.6622 13.6712C15.4382 13.4472 15.0649 13.4472 14.8409 13.6712L13.6711 14.841C13.4471 15.065 13.4471 15.4383 13.6711 15.6623C13.8951 15.8863 14.2685 15.8863 14.4925 15.6623L15.6622 14.4925C15.8862 14.2685 15.8862 13.8952 15.6622 13.6712ZM15.6498 11.1947C15.3449 11.2943 15.1769 11.6241 15.2827 11.929L15.5751 12.8063C15.6747 13.1112 16.0045 13.2792 16.3094 13.1734C16.6142 13.0676 16.7822 12.7441 16.6765 12.4392L16.384 11.5619C16.2845 11.257 15.9547 11.089 15.6498 11.1947Z" fill="#212121"/>
<path d="M8.27043 13.6898C8.35754 13.7209 8.44465 13.7644 8.51931 13.8142L9.44643 14.4115C9.70776 14.5795 10.0064 14.6666 10.3113 14.6666C10.8029 14.6666 11.2633 14.4426 11.5682 14.0569L12.0038 13.4969C12.2153 13.2293 12.3335 12.8933 12.3335 12.5511C12.3335 12.2089 12.2153 11.8729 12.0038 11.6053L11.3504 10.7715C11.1762 10.5475 11.0331 10.2986 10.9335 10.0373L10.5664 9.09154C10.5104 8.9422 10.3611 8.84265 10.1993 8.84265C10.0749 8.84265 9.95665 8.89865 9.88198 9.00443L9.50243 9.52087C9.3282 9.75731 9.04198 9.86931 8.75576 9.80709C8.63754 9.7822 8.53176 9.71376 8.46332 9.62043L8.29532 9.39643C8.03398 9.04798 7.61709 8.83643 7.18154 8.83643C6.74598 8.83643 6.32909 9.04176 6.06776 9.39643L5.87487 9.65154C5.81887 9.7262 5.7442 9.78843 5.65709 9.82576L4.36909 10.4355C3.62243 10.7902 3.31754 11.6986 3.70331 12.4329L3.82154 12.6569C4.15131 13.2791 4.87931 13.584 5.55131 13.3662L6.11132 13.1858C6.34776 13.1111 6.60909 13.1173 6.84554 13.1982L8.27043 13.6898Z" fill="#F26649"/>
<path d="M10.2927 17.0003H10.8776C11.2012 17.0003 11.4625 16.739 11.4625 16.4155C11.4625 16.0919 11.2012 15.8306 10.8776 15.8306H10.2927C9.96916 15.8306 9.70782 16.0919 9.70782 16.4155C9.70782 16.739 9.96916 17.0003 10.2927 17.0003Z" fill="#F26649"/>
</svg>
