<?xml version="1.0" encoding="UTF-8"?> <svg xmlns="http://www.w3.org/2000/svg" xmlns:xlink="http://www.w3.org/1999/xlink" version="1.1" id="Layer_1" x="0px" y="0px" viewBox="0 0 141.7 141.7" style="enable-background:new 0 0 141.7 141.7;" xml:space="preserve"> <title>Untitled-1</title> <g> <g> <g> <g> <path d="M115.2,59.5c0.6,3.1-0.4,6.7-1.6,9.6c-8.6-1.3-15.1-4.7-18.8-9.3c-2.1,0.8-4,1.9-5.8,3.2c-0.3,4.1-1.6,8.1-3.8,11.6 c9.6,2.8,12.9,8,13.8,22.1c9.9,1.1,20.3-2.3,25.7-9.8C125.3,69.1,122.8,61.6,115.2,59.5"></path> <path d="M57.4,74.7c-2.6-4.3-3.9-9.2-3.9-14.2c-1.9-1.4-4.4-2-7.4-2.6c-2.2,2-5,3.3-8,3.7c-4.6,5.2-8.1,11.3-10.3,17.8 c-0.5-7.1-0.5-14.2,0-21.3c-8.5,1.8-12,6-10.4,28c4.6,6.7,12.1,10.8,20.2,10.9c2,0,4-0.1,6-0.4C44.5,82.7,47.8,77.6,57.4,74.7"></path> <path d="M50,42.7c1.3-9.4-3.5-14.5-10.2-15.5c-0.7-0.1-1.3-0.1-2-0.1c-5.9,0-10.9,3.8-12,12.2c-1.3,9.4,3.1,17.7,9.8,18.6 c0.4,0.1,0.8,0.1,1.1,0.1C42.9,58,48.7,51.4,50,42.7"></path> <path d="M116.8,40.2c-1.2-9-6.6-13-12.8-13c-0.7,0-1.4,0.1-2.1,0.1c-7.1,1-12.3,6.5-10.9,16.5c1.3,9.4,7.5,16.4,14.1,16.4 c0.4,0,0.9,0,1.3-0.1C113.5,59.1,118.2,50.2,116.8,40.2"></path> <path d="M80.5,80l3.3,5.6l-12.5-3.4l-12.5,3.4l3.3-5.6c-0.6-0.5-1.2-1-1.8-1.6c-10,2.3-12.5,6.2-12.6,26.6 c5.1,6.3,12.8,9.7,23.6,9.7c11.2,0,18.5-3.4,23.6-9.7c-0.1-20.4-2.5-24.2-12.6-26.6C81.7,79,81.1,79.5,80.5,80"></path> <path d="M57.9,60.1c0,10.3,6,18.7,13.4,18.7s13.5-8.4,13.5-18.7s-6-15.3-13.4-15.3S57.9,49.8,57.9,60.1"></path> </g> </g> </g> </g> </svg> 