<?xml version="1.0" encoding="UTF-8"?> <svg xmlns="http://www.w3.org/2000/svg" xmlns:xlink="http://www.w3.org/1999/xlink" width="50px" height="50px" viewBox="0 0 514 514"><!-- Generator: Sketch 63.1 (92452) - https://sketch.com --><title>iNaturalistAU-BlackIcon</title><desc>Created with Sketch.</desc><g id="iNaturalistAU-BlackIcon" stroke="none" stroke-width="1" fill="none" fill-rule="evenodd"><rect fill="#FFFFFF" x="0" y="0" width="514" height="514"></rect><circle id="Oval" fill="#000000" cx="257" cy="257" r="257"></circle><path d="M98,151.463158 C186.535414,160.494584 256.130036,192.834301 306.783864,248.482308 C308.760995,250.654373 314.251163,256.796053 318.446512,255.275 C322.64186,253.753947 327.761779,244.234353 330.001199,240.919938 C333.517782,235.715277 344.381395,217.248684 368.027907,209.643421 C391.674419,202.038158 421.637487,210.50136 422.725456,210.875888 L423.065876,210.995323 C424.989587,211.684602 426.768758,212.594416 425.656,214.151515 C424.477786,215.800207 414.467007,219.768367 407.665643,232.727928 C400.389361,246.592417 396.112827,273.415741 395.063544,279.327249 C390.930834,303.671986 381.020648,326.245045 366.687555,345.429125 C341.469761,379.181795 302.560745,402.443794 257.337883,406.406813 C232.615491,408.573312 208.751483,404.731575 187.182344,396.08919 C213.319703,393.533212 244.954116,381.169146 270.365416,351.566578 C302.427907,314.215789 267.339535,333.609211 237.209302,328.665789 C216.099442,325.202327 198.917567,314.392592 170.080188,277.833791 C179.331008,275.256894 197.567491,272.113333 212.277518,271.48658 C185.068981,265.260628 148.973123,248.112294 133.002698,221.693874 C145.837385,217.25747 162.726184,218.868336 176.219722,219.452076 C124.826007,188.631474 102.66108,172.02855 98,151.463158 Z M220.809302,118 C223.846564,119.475299 269.635439,139.286064 291.748837,168.955263 C322.64186,210.403947 323.786047,250.331579 315.395349,241.205263 C295.678287,219.759593 277.551535,206.027003 255.134884,190.630263 C237.972093,178.842105 226.502102,145.243955 220.809302,118 Z M379.302796,220.030922 C374.901596,220.415978 371.645867,224.296004 372.030922,228.697204 C372.415978,233.098404 376.296004,236.354133 380.697204,235.969078 C385.098404,235.584022 388.354133,231.703996 387.969078,227.302796 C387.584022,222.901596 383.703996,219.645867 379.302796,220.030922 Z" id="iNaturalist-Logomark-Copy-2" fill="#FFFFFF"></path></g></svg> 